<?xml version="1.0" encoding="UTF-8" standalone="no"?>
<!-- Created with Inkscape (http://www.inkscape.org/) -->

<svg
   xmlns:dc="http://purl.org/dc/elements/1.1/"
   xmlns:cc="http://creativecommons.org/ns#"
   xmlns:rdf="http://www.w3.org/1999/02/22-rdf-syntax-ns#"
   xmlns:svg="http://www.w3.org/2000/svg"
   xmlns="http://www.w3.org/2000/svg"
   xmlns:sodipodi="http://sodipodi.sourceforge.net/DTD/sodipodi-0.dtd"
   xmlns:inkscape="http://www.inkscape.org/namespaces/inkscape"
   id="svg4144"
   version="1.1"
   inkscape:version="0.91 r13725"
   width="174.375"
   height="173.4375"
   viewBox="0 0 174.375 173.4375"
   sodipodi:docname="add.svg">
  <metadata
     id="metadata4150">
    <rdf:RDF>
      <cc:Work
         rdf:about="">
        <dc:format>image/svg+xml</dc:format>
        <dc:type
           rdf:resource="http://purl.org/dc/dcmitype/StillImage" />
        <dc:title></dc:title>
      </cc:Work>
    </rdf:RDF>
  </metadata>
  <defs
     id="defs4148" />
  <sodipodi:namedview
     pagecolor="#ffffff"
     bordercolor="#666666"
     borderopacity="1"
     objecttolerance="10"
     gridtolerance="10"
     guidetolerance="10"
     inkscape:pageopacity="0"
     inkscape:pageshadow="2"
     inkscape:window-width="1366"
     inkscape:window-height="705"
     id="namedview4146"
     showgrid="false"
     inkscape:zoom="3.0904505"
     inkscape:cx="87.1875"
     inkscape:cy="86.71875"
     inkscape:window-x="-8"
     inkscape:window-y="-8"
     inkscape:window-maximized="1"
     inkscape:current-layer="svg4144" />
  <g
     id="g4154">
    <path
       style="fill:#3b4669;stroke:#3b4669;stroke-opacity:1;stroke-width:4.9;stroke-miterlimit:4;stroke-dasharray:none"
       d="m 81.919405,160.98409 c -7.759901,-2.26887 -10.863419,-10.13807 -10.488918,-17.56518 -0.866628,-11.58955 0.35322,-23.26737 -0.803746,-34.82217 -3.087444,-7.16233 -12.289576,-3.95672 -18.375154,-4.91569 -9.272434,-0.55547 -19.326348,0.32238 -27.713743,-4.318356 -7.082706,-4.872536 -7.905194,-16.422607 -2.086917,-22.49259 9.708806,-6.826905 22.255537,-4.300501 33.365814,-4.75466 5.560099,-0.36346 16.239704,2.125089 14.374376,-6.996059 0.527678,-12.205657 -0.900947,-24.510667 0.726699,-36.650719 1.704788,-7.432846 9.198854,-14.131335 17.181667,-11.72258 8.262194,1.575777 10.861197,11.350933 11.477376,18.587335 0.901351,9.853044 0.01,19.835169 1.180901,29.638025 1.34444,2.431135 3.04096,6.569239 6.46031,5.821513 11.21603,0.264205 22.50853,-0.471976 33.65641,0.897496 6.43199,1.190816 11.46856,6.462152 12.30717,12.952389 1.91414,8.180767 -5.84543,15.697066 -13.76629,15.879196 -10.86011,1.58216 -21.90236,0.94428 -32.78502,2.23991 -6.50013,4.23601 -4.26029,13.00601 -4.71101,19.57877 -0.0125,9.22023 0.50675,18.51351 -0.67487,27.67984 -1.863604,6.24757 -7.123823,12.19771 -14.171659,11.62131 -1.732054,0.0298 -3.509768,-0.0574 -5.153396,-0.65778 z m 11.150674,-5.23807 c 5.840805,-3.84939 3.236924,-13.04776 4.234186,-19.24791 0.184471,-11.03806 0.137116,-22.07827 0.195735,-33.11743 3.03077,-3.870273 7.61988,-5.824438 12.55038,-5.628162 10.6641,-1.04225 21.5693,0.06654 32.08909,-2.126117 7.37465,-1.071057 8.68926,-10.157627 4.02444,-14.905751 -5.59376,-6.284292 -14.84941,-4.467789 -22.36147,-5.124804 -8.14018,-0.41849 -16.43914,0.270525 -24.47077,-1.005729 -3.794528,-5.606063 -1.834301,-13.355158 -2.674515,-19.869591 -0.885537,-9.464376 1.298066,-20.265285 -4.903094,-28.369412 -5.576639,-6.813428 -15.66996,-1.744258 -15.847372,6.432841 -2.273874,13.831439 -0.821542,27.984749 -2.81711,41.840459 -4.528355,4.564515 -13.026483,1.321787 -19.047034,2.482905 -7.778808,0.454463 -15.665182,-0.788083 -23.372758,0.488864 -8.216078,1.45301 -9.418316,11.098564 -5.748514,17.176986 5.675759,4.23946 13.450112,3.042409 20.127939,3.619035 9.155537,0.549486 18.883614,-1.116442 27.600626,2.294766 4.438436,5.23571 1.776213,13.46736 2.798982,19.98144 0.505581,10.58576 -0.585154,21.44214 1.956647,31.81094 2.682449,5.75095 10.633268,3.01451 15.664612,3.26667 z"
       id="path4156"
       inkscape:connector-curvature="0" />
  </g>
</svg>
