<?xml version="1.0" encoding="UTF-8" standalone="no"?>
<!-- Created with Inkscape (http://www.inkscape.org/) -->

<svg
   xmlns:dc="http://purl.org/dc/elements/1.1/"
   xmlns:cc="http://creativecommons.org/ns#"
   xmlns:rdf="http://www.w3.org/1999/02/22-rdf-syntax-ns#"
   xmlns:svg="http://www.w3.org/2000/svg"
   xmlns="http://www.w3.org/2000/svg"
   xmlns:sodipodi="http://sodipodi.sourceforge.net/DTD/sodipodi-0.dtd"
   xmlns:inkscape="http://www.inkscape.org/namespaces/inkscape"
   id="svg4790"
   version="1.1"
   inkscape:version="0.91 r13725"
   width="174.375"
   height="174.375"
   viewBox="0 0 174.375 174.375"
   sodipodi:docname="black_white1.svg">
  <metadata
     id="metadata4796">
    <rdf:RDF>
      <cc:Work
         rdf:about="">
        <dc:format>image/svg+xml</dc:format>
        <dc:type
           rdf:resource="http://purl.org/dc/dcmitype/StillImage" />
        <dc:title />
      </cc:Work>
    </rdf:RDF>
  </metadata>
  <defs
     id="defs4794" />
  <sodipodi:namedview
     pagecolor="#ffffff"
     bordercolor="#666666"
     borderopacity="1"
     objecttolerance="10"
     gridtolerance="10"
     guidetolerance="10"
     inkscape:pageopacity="0"
     inkscape:pageshadow="2"
     inkscape:window-width="1366"
     inkscape:window-height="705"
     id="namedview4792"
     showgrid="false"
     inkscape:zoom="0.27169121"
     inkscape:cx="36.200154"
     inkscape:cy="94.735806"
     inkscape:window-x="-8"
     inkscape:window-y="-8"
     inkscape:window-maximized="1"
     inkscape:current-layer="svg4790" />
  <g
     id="g4800">
    <path
       style="fill:#6d6d6d;fill-opacity:1;stroke-width:0;stroke-miterlimit:4;stroke-dasharray:none;stroke:#6d6d6d;stroke-opacity:1"
       d="m 121.48131,154.92187 c -0.38841,-0.38671 -18.28294,-0.70312 -39.765629,-0.70312 l -39.059431,0 -0.149289,-29.27084 C 42.33338,90.91439 41.45102,46.680086 40.7439,36.5625 c -0.270278,-3.867188 -0.130521,-7.568442 0.310572,-8.225011 0.629589,-0.937145 9.931105,-1.195184 43.269898,-1.200378 28.99185,-0.0045 43.07726,-0.332729 44.38818,-1.034313 4.0074,-2.144699 4.36726,0.239642 4.53821,30.069323 0.0874,15.253771 0.15727,29.210691 0.15525,31.015379 -0.002,1.804687 0.0126,11.085937 0.0324,20.625 0.0945,45.41366 0.21568,42.90969 -2.20049,45.48158 -1.55876,1.65923 -3.17828,2.33092 -5.62011,2.33092 -1.88668,0 -3.74812,-0.31641 -4.13652,-0.70313 z m 4.98396,-6.72716 c 1.09793,-0.68662 1.29683,-9.82032 1.23342,-56.640791 -0.0543,-40.066223 -0.37914,-56.389366 -1.15109,-57.831746 -1.06225,-1.984841 -1.3026,-2.001628 -19.51467,-1.36294 -10.141546,0.355658 -27.298555,0.708608 -38.12668,0.784334 l -19.6875,0.137683 -0.330661,28.125 c -0.576861,49.06597 -0.620988,74.83022 -0.138089,80.625 l 0.46875,5.625 6.09375,0.5176 c 10.286783,0.87377 69.76109,0.89121 71.15277,0.0209 z m -70.580664,-8.27284 c -0.546383,-1.82291 -0.550318,-12.09705 -0.0054,-14.29687 0.288463,-1.16468 2.403521,-1.38998 12.312706,-1.31152 6.58039,0.0521 12.808126,-0.23758 13.839376,-0.64371 1.56042,-0.61453 1.395265,-0.74839 -0.984375,-0.79784 -1.572656,-0.0327 -3.3865,-0.58656 -4.030764,-1.23082 -0.776829,-0.77683 -4.40064,-1.1881 -10.758519,-1.22099 -5.27292,-0.0273 -10.103607,-0.3688 -10.73486,-0.75894 -0.631253,-0.39013 -1.147732,-2.161 -1.147732,-3.93526 0,-2.56823 0.370991,-3.22592 1.819672,-3.22592 1.000819,0 2.092186,0.44094 2.425261,0.97987 0.333075,0.53892 2.572816,0.92401 4.977204,0.85575 2.404387,-0.0682 7.460491,0.53015 11.235785,1.3298 5.432851,1.15075 7.241117,1.21851 8.671875,0.32499 0.994237,-0.62092 1.807703,-1.45978 1.807703,-1.86413 0,-1.43657 -4.538535,-2.42585 -10.700465,-2.3324 -9.349002,0.14176 -9.155569,0.56558 -9.698868,-21.25052 -0.511375,-20.534142 -0.335972,-21.23481 5.290859,-21.135006 1.864348,0.03307 12.038161,0.03006 22.608474,-0.0067 18.763122,-0.06521 19.259282,-0.01739 20.928262,2.017198 1.23906,1.510472 1.55065,2.930873 1.13222,5.161276 -0.42676,2.274797 -1.43274,26.301372 -1.43525,34.279222 -1.3e-4,0.38671 -1.58226,0.70958 -3.51585,0.71747 -1.9336,0.008 -4.09872,0.38366 -4.81138,0.83502 -1.87435,1.1871 1.27659,2.03219 6.79842,1.82333 4.80451,-0.18173 6.57537,0.85758 6.05871,3.55584 -0.28574,1.49229 -1.38366,1.77673 -7.7065,1.9965 -4.05532,0.14097 -9.11291,0.70431 -11.239091,1.25189 -2.126185,0.54756 -4.709541,0.99221 -5.740791,0.98809 -1.03125,-0.004 -3.277063,0.19575 -4.990696,0.44414 -2.624076,0.38036 -2.93412,0.67041 -1.964938,1.83821 0.668626,0.80564 2.759575,1.39212 4.990696,1.39981 2.111966,0.007 5.105563,0.0512 6.652438,0.0975 1.546875,0.0463 7.136722,-0.11326 12.421882,-0.3546 10.11809,-0.46202 10.84919,-0.1459 8.74695,3.78216 -0.74059,1.38382 -2.69391,1.64779 -13.82812,1.86873 -7.131143,0.14152 -13.353484,0.64124 -13.827426,1.11052 -0.520528,0.51541 0.778652,1.56327 3.281251,2.64652 4.05705,1.7561 4.183097,1.7567 6.078385,0.0289 1.88614,-1.71944 6.95104,-2.40917 8.23833,-1.12187 1.53282,1.53281 7.5684,2.96025 9.08495,2.14862 1.73775,-0.93002 2.77255,-0.34762 2.77255,1.56044 0,0.85136 -0.82554,1.06144 -2.6988,0.6868 -1.50252,-0.30051 -2.97392,-0.0946 -3.31946,0.46449 -0.69927,1.13144 -11.29057,0.49718 -13.63838,-0.81672 -0.93113,-0.52109 -1.992234,-0.30015 -3.018365,0.62849 -1.2705,1.14978 -2.194631,1.23477 -4.688091,0.43108 -3.324171,-1.07143 -4.715293,-1.16244 -18.763107,-1.22754 -7.399271,-0.0343 -9.85781,0.32714 -13.186617,1.93859 -4.951164,2.39681 -5.12061,2.40685 -5.740076,0.34012 z M 64.21875,133.125 c 0.345491,-0.55901 -0.789957,-0.9375 -2.8125,-0.9375 -2.022543,0 -3.157991,0.37849 -2.8125,0.9375 0.318674,0.51562 1.584299,0.9375 2.8125,0.9375 1.228201,0 2.493826,-0.42188 2.8125,-0.9375 z m 35.294934,-18.26995 4.080066,-2.33247 -7.03125,0.003 c -7.232453,0.003 -10.598579,1.01732 -8.898413,2.68097 0.511315,0.50033 2.406225,1.08319 4.210913,1.29526 1.804687,0.21205 3.343659,0.45306 3.419934,0.53558 0.07631,0.0825 1.974713,-0.89957 4.21875,-2.18242 z M 79.619516,104.61317 c 0.84724,-1.02086 0.78805,-2.06878 -0.258302,-4.57306 -0.74657,-1.786791 -1.822321,-3.536054 -2.390557,-3.887241 C 76.40242,95.801681 75.9375,94.062675 75.9375,92.288422 c 0,-3.349353 -1.253361,-4.323123 -2.243448,-1.742997 -0.312979,0.81561 -0.569052,4.169647 -0.569052,7.453419 0,4.697146 0.349899,6.174286 1.640625,6.926066 2.268685,1.32138 3.567757,1.23796 4.853891,-0.31174 z m 16.176222,-2.89442 c 0.391593,-3.695644 -2.112282,-3.827775 -3.395426,-0.17917 -0.716719,2.03798 -0.617621,2.82396 0.438337,3.47658 1.76906,1.09333 2.588688,0.17938 2.957089,-3.29741 z m 10.484942,3.48443 c 0.24961,-0.40388 -0.53132,-2.67775 -1.73539,-5.05304 -1.49224,-2.943774 -1.88389,-4.624037 -1.23019,-5.277737 1.05377,-1.053769 0.2485,-2.997403 -1.24186,-2.997403 -0.51761,0 -0.81775,0.738281 -0.66699,1.640625 0.15076,0.902344 -0.26364,2.93415 -0.9209,4.515122 -1.655834,3.982933 -0.15222,7.906753 3.02987,7.906753 1.2714,0 2.51585,-0.33044 2.76546,-0.73432 z m 4.81478,-3.95594 c 0.3196,-0.51713 0.28168,-2.936978 -0.0843,-5.377421 l -0.6654,-4.437166 -1.39198,2.9392 c -1.99205,4.206263 -0.054,10.428037 2.14167,6.875387 z M 95.431697,84.140625 95.15625,77.34375 92.109375,77.049977 c -3.486227,-0.336136 -3.522558,-0.213105 -1.582368,5.358534 1.001672,2.876499 1.139592,4.42489 0.455107,5.109375 -1.906957,1.906957 -1.334923,2.379999 3.980833,3.291943 0.409303,0.07022 0.62024,-2.930923 0.46875,-6.669204 z m -19.791278,0.996094 c -0.299274,-0.747875 -0.521421,-0.525728 -0.566406,0.566406 -0.04071,0.988281 0.18087,1.541992 0.492394,1.230469 0.311522,-0.311524 0.344829,-1.120117 0.07401,-1.796875 z M 110.625,81.975922 c 0,-2.224041 -0.43119,-3.225922 -1.38839,-3.225922 -1.86305,0 -2.87672,4.343466 -1.42257,6.095602 1.66387,2.004848 2.81096,0.8338 2.81096,-2.86968 z M 59.296875,61.210285 c -1.346537,-0.49298 -1.598806,-5.523271 -0.316729,-6.315637 0.470331,-0.290681 3.739862,0.04834 7.265625,0.753378 3.709419,0.741763 9.175593,1.084389 12.972979,0.813162 7.783735,-0.555954 8.069659,-0.54814 22.5,0.614895 6.1875,0.498691 11.88281,0.955597 12.65625,1.015349 0.8282,0.06398 0.34887,0.682318 -1.16607,1.504255 -2.04779,1.111031 -7.68729,1.461685 -27.656254,1.719625 -13.796159,0.178204 -25.61127,0.130943 -26.255801,-0.105027 z M 119.0625,55.3125 c 0,-0.515625 0.44678,-0.9375 0.99283,-0.9375 0.54606,0 0.7321,0.421875 0.41342,0.9375 -0.31868,0.515625 -0.76545,0.9375 -0.99283,0.9375 -0.22738,0 -0.41342,-0.421875 -0.41342,-0.9375 z M 56.106309,50.355213 c -2.163193,-4.038835 1.948603,-7.263049 7.409316,-5.809926 3.696461,0.983647 26.94771,1.283497 33.046875,0.426175 3.91132,-0.54979 5.6811,-0.392073 7.3301,0.653236 1.76066,1.116093 3.06344,1.187235 6.85408,0.374288 5.28369,-1.133151 8.63471,-0.06926 8.1261,2.579894 -0.23935,1.246627 -1.4798,1.610433 -5.91594,1.735053 -3.0872,0.08673 -9.6209,0.462815 -14.51934,0.835755 -4.898438,0.37294 -16.224883,0.723859 -25.169879,0.779818 -14.721599,0.0921 -16.348743,-0.05717 -17.161312,-1.574293 z"
       id="path4804"
       inkscape:connector-curvature="0"
       sodipodi:nodetypes="cscsssssscssscccsssscsscsccccsscsssssscsssssssssccssssscsscsssssssssssssssssccssssscccsccccsssssssssssssssssssscscsccscsssssssssssssssssssssssssssssssssssss" />
    <path
       style="fill:#000000;fill-opacity:1;stroke:#000000;stroke-opacity:1;stroke-width:4.9;stroke-miterlimit:4;stroke-dasharray:none"
       d="m 46.498492,152.96411 -2.72026,-0.62036 0.207157,-25.7416 c 0.113936,-14.15789 0.461608,-26.15333 0.772605,-26.656531 1.420575,-2.298535 1.991081,4.281471 2.063914,23.804381 0.04328,11.60156 0.329421,22.029 0.635865,23.17207 0.896289,3.34329 2.530938,3.59756 25.667227,3.99254 8.243942,0.14073 10.119343,0.38926 7.96875,1.05602 -1.546875,0.47958 -7.875,0.81487 -14.0625,0.74507 -6.1875,-0.0697 -12.726563,0.0971 -14.53125,0.37094 -1.804688,0.27381 -4.505366,0.21868 -6.001508,-0.12253 z m 75.845258,0.0969 c -5.6,-0.55821 -6.38383,-2.1235 -1.06337,-2.1235 7.98317,0 8.09462,-0.19407 8.09462,-14.09548 0,-11.08357 0.73809,-14.5945 2.24345,-10.67159 0.31298,0.8156 0.56905,6.4803 0.56905,12.5882 0,10.88058 -0.05,11.1446 -2.47018,13.04833 -1.3586,1.06867 -2.72969,1.87212 -3.04688,1.78545 -0.31718,-0.0867 -2.26419,-0.32581 -4.32669,-0.53141 z M 57.1875,137.39908 c 0,-0.80387 0.421875,-1.46158 0.9375,-1.46158 0.515625,0 0.9375,0.39697 0.9375,0.88217 0,0.48519 -0.421875,1.1429 -0.9375,1.46158 -0.515625,0.31868 -0.9375,-0.0783 -0.9375,-0.88217 z m 1.171875,-7.68798 c -0.644531,-0.27079 -1.171875,-0.99813 -1.171875,-1.61632 0,-1.32584 15.557258,-1.96848 16.356275,-0.67564 0.273624,0.44274 -1.923507,1.09519 -4.882513,1.4499 -2.959006,0.35471 -6.223762,0.80007 -7.255012,0.98968 -1.03125,0.18961 -2.402344,0.12318 -3.046875,-0.14762 z m 25.493158,-0.7282 c -1.000085,-0.73128 -1.534385,-1.61355 -1.187334,-1.9606 1.022054,-1.02206 4.522301,0.48501 4.522301,1.94713 0,1.6994 -1.023661,1.70354 -3.334967,0.0135 z m 7.084967,-0.5454 c 0,-0.51563 1.029789,-0.9375 2.288422,-0.9375 1.258628,0 2.549153,0.42187 2.867828,0.9375 0.338044,0.54696 -0.615263,0.9375 -2.288419,0.9375 -1.577308,0 -2.867831,-0.42188 -2.867831,-0.9375 z m -15,-0.9375 c 0,-0.51563 0.607914,-0.9375 1.350922,-0.9375 0.743007,0 1.611654,0.42187 1.930328,0.9375 0.318674,0.51562 -0.289241,0.9375 -1.350922,0.9375 -1.06168,0 -1.930328,-0.42188 -1.930328,-0.9375 z m 53.4375,-10.78125 c 0,-2.83594 0.42187,-5.15625 0.9375,-5.15625 0.51562,0 0.9375,2.32031 0.9375,5.15625 0,2.83594 -0.42188,5.15625 -0.9375,5.15625 -0.51563,0 -0.9375,-2.32031 -0.9375,-5.15625 z m -51.328125,3.54536 c -1.610229,-0.5776 -1.479529,-2.13911 0.179047,-2.13911 1.552841,0 2.781863,1.5459 1.711245,2.15246 -0.395129,0.22386 -1.245761,0.21785 -1.890292,-0.0133 z m 7.188445,-0.31181 c -0.936248,-0.57863 -1.024154,-1.10096 -0.306124,-1.81899 1.049,-1.04901 4.133304,-0.35563 4.133304,0.92919 0,1.20352 -2.412163,1.76433 -3.82718,0.8898 z M 72.1875,118.125 c 0,-0.51562 0.396977,-0.9375 0.882172,-0.9375 0.485194,0 1.142904,0.42188 1.461578,0.9375 0.318674,0.51563 -0.0783,0.9375 -0.882172,0.9375 -0.803867,0 -1.461578,-0.42187 -1.461578,-0.9375 z M 61.875,117.1875 c 0,-0.51562 0.421875,-0.9375 0.9375,-0.9375 0.515625,0 0.9375,0.42188 0.9375,0.9375 0,0.51563 -0.421875,0.9375 -0.9375,0.9375 -0.515625,0 -0.9375,-0.42187 -0.9375,-0.9375 z m 41.71875,0 c -0.69492,-1.1244 2.07087,-1.1244 4.6875,0 1.58051,0.67917 1.40515,0.81607 -1.11654,0.8716 -1.64535,0.0362 -3.25228,-0.35597 -3.57096,-0.8716 z m 9.84375,0 c 0,-0.51562 0.63281,-0.9375 1.40625,-0.9375 0.77344,0 1.40625,0.42188 1.40625,0.9375 0,0.51563 -0.63281,0.9375 -1.40625,0.9375 -0.77344,0 -1.40625,-0.42187 -1.40625,-0.9375 z m -38.428665,-7.43453 c -7.120318,-0.54166 -8.651501,-1.57348 -6.736353,-4.5394 0.604898,-0.93678 1.693451,-0.78424 5.073532,0.71093 3.370024,1.49072 4.842663,1.69857 6.789723,0.9583 3.257188,-1.23838 9.497723,-1.20743 11.863762,0.0589 1.428095,0.7643 2.411007,0.65374 4.115157,-0.46287 2.097272,-1.37417 2.39115,-1.32591 4.644914,0.76279 2.0311,1.88237 2.17176,2.31967 0.90278,2.80662 -1.715213,0.65819 -16.235188,0.49738 -26.653515,-0.29519 z m 34.135755,-2.469 c 0.80632,-0.8063 1.89114,-1.20329 2.41072,-0.88216 1.75184,1.0827 0.96177,2.34819 -1.46603,2.34819 -2.18654,0 -2.27438,-0.13632 -0.94469,-1.46603 z M 44.655954,96.949584 C 43.566281,93.50515 42.138191,30.611809 43.127197,29.622803 44.091175,28.658825 87.91977,28.54477 88.878745,29.503746 c 1.268842,1.268841 -1.857842,1.532628 -20.281982,1.711121 -12.603,0.122097 -20.119752,0.556695 -20.762957,1.200456 -0.677468,0.678053 -0.965935,9.596723 -0.879356,27.1875 0.153549,31.197369 0.03044,35.992289 -0.969976,37.779943 -0.622672,1.112653 -0.864421,1.033828 -1.32852,-0.433182 z M 68.125,96.874959 C 67.046281,95.796281 67.442274,94.6875 68.90625,94.6875 c 0.773437,0 1.40625,0.632812 1.40625,1.40625 0,1.463972 -1.108781,1.859972 -2.1875,0.781247 z M 97.5,85.989849 c 0,-4.727811 -0.459113,-7.478127 -1.495284,-8.957462 -1.40161,-2.001084 -1.98676,-2.107015 -9.341215,-1.691056 -9.094517,0.514374 -10.488467,1.044847 -8.585822,3.267366 3.634872,4.245971 2.131554,6.52652 -1.841685,2.793856 -2.616465,-2.458041 -3.11585,-2.071559 -3.786788,2.930658 -0.475424,3.544553 -3.258951,6.732044 -4.657531,5.333464 -0.803714,-0.803713 -2.175099,-15.010874 -1.619354,-16.77605 0.442123,-1.40429 1.891682,-1.667414 10.06273,-1.826593 5.250409,-0.102282 11.655574,-0.256522 14.233699,-0.342754 2.578125,-0.08623 8.580984,0.0591 13.33968,0.322959 7.52755,0.417385 8.72777,0.71792 9.23375,2.312125 0.66553,2.096894 -0.89476,4.285998 -1.89795,2.662824 -1.25527,-2.031084 -3.33345,-0.941133 -5.20673,2.730814 l -1.91311,3.75 1.89406,3.712652 c 2.22713,4.36556 2.36514,5.662348 0.60259,5.662348 -1.80735,0 -3.50836,-2.289722 -4.35716,-5.865153 -0.67728,-2.85294 -0.72789,-2.885008 -0.81792,-0.5183 -0.0528,1.387538 -0.51783,2.783529 -1.03346,3.102203 -0.515625,0.318674 -0.9375,1.398259 -0.9375,2.399078 0,1.00082 -0.421875,1.819672 -0.9375,1.819672 -0.539119,0 -0.9375,-2.899217 -0.9375,-6.822651 z M 79.156781,90.628536 C 78.43584,88.768 81.537577,81.653323 83.938249,79.660943 c 1.146468,-0.951484 1.755955,-0.856107 3.266837,0.511221 1.021577,0.924516 1.857414,2.365433 1.857414,3.202037 0,2.462834 -2.762415,5.688299 -4.871682,5.688299 -1.074075,0 -2.496585,0.738281 -3.161134,1.640625 -1.146041,1.556127 -1.242502,1.552285 -1.872903,-0.07459 z M 129.375,81.5625 c 0,-5.625 0.375,-9.375 0.9375,-9.375 0.5625,0 0.9375,3.75 0.9375,9.375 0,5.625 -0.375,9.375 -0.9375,9.375 -0.5625,0 -0.9375,-3.75 -0.9375,-9.375 z M 63.046875,59.321816 C 61.371094,59.113854 60,58.548557 60,58.065602 c 0,-1.300595 5.674102,-0.985686 8.90625,0.49429 l 2.8125,1.287822 -2.8125,-0.07389 C 67.359375,59.73318 64.722656,59.529777 63.046875,59.321814 Z M 129.27959,48.984375 c -0.29658,-10.928172 -0.85579,-15.321241 -2.21417,-17.394398 -1.38628,-2.115735 -1.38557,-2.347922 0.008,-2.883015 4.03324,-1.547537 4.17614,-1.150379 4.17614,11.605538 0,7.5 -0.36058,12.1875 -0.9375,12.1875 -0.51563,0 -0.98044,-1.582031 -1.03291,-3.515625 z m -68.107715,1.002369 c -3.336179,-0.457735 -4.134704,-2.640128 -1.295702,-3.541193 0.963145,-0.305691 2.889047,-0.123182 4.279781,0.405574 1.390735,0.528756 5.3488,0.967835 8.795702,0.975731 3.446902,0.0079 6.899906,0.42331 7.673344,0.923144 0.995141,0.643109 -0.238186,0.916001 -4.21875,0.933462 -3.09375,0.01357 -7.101563,0.18142 -8.90625,0.372999 -1.804688,0.191579 -4.652344,0.160206 -6.328125,-0.06971 z M 101.01563,29.379112 c 0.64453,-0.260074 1.69921,-0.260074 2.34375,0 0.64453,0.260074 0.11718,0.472861 -1.17188,0.472861 -1.28906,0 -1.81641,-0.212787 -1.17187,-0.472861 z m 12.1875,0 c 0.64453,-0.260074 1.69921,-0.260074 2.34375,0 0.64453,0.260074 0.11718,0.472861 -1.17188,0.472861 -1.28906,0 -1.81641,-0.212787 -1.17187,-0.472861 z"
       id="path4802"
       inkscape:connector-curvature="0" />
  </g>
</svg>
