<?xml version="1.0" encoding="UTF-8" standalone="no"?>
<!-- Created with Inkscape (http://www.inkscape.org/) -->

<svg
   xmlns:dc="http://purl.org/dc/elements/1.1/"
   xmlns:cc="http://creativecommons.org/ns#"
   xmlns:rdf="http://www.w3.org/1999/02/22-rdf-syntax-ns#"
   xmlns:svg="http://www.w3.org/2000/svg"
   xmlns="http://www.w3.org/2000/svg"
   xmlns:sodipodi="http://sodipodi.sourceforge.net/DTD/sodipodi-0.dtd"
   xmlns:inkscape="http://www.inkscape.org/namespaces/inkscape"
   id="svg4202"
   version="1.1"
   inkscape:version="0.91 r13725"
   width="739.6875"
   height="174.375"
   viewBox="0 0 739.6875 174.375"
   sodipodi:docname="cancel1.svg">
  <metadata
     id="metadata4208">
    <rdf:RDF>
      <cc:Work
         rdf:about="">
        <dc:format>image/svg+xml</dc:format>
        <dc:type
           rdf:resource="http://purl.org/dc/dcmitype/StillImage" />
        <dc:title />
      </cc:Work>
    </rdf:RDF>
  </metadata>
  <defs
     id="defs4206" />
  <sodipodi:namedview
     pagecolor="#ffffff"
     bordercolor="#666666"
     borderopacity="1"
     objecttolerance="10"
     gridtolerance="10"
     guidetolerance="10"
     inkscape:pageopacity="0"
     inkscape:pageshadow="2"
     inkscape:window-width="1366"
     inkscape:window-height="705"
     id="namedview4204"
     showgrid="false"
     inkscape:zoom="1.4530492"
     inkscape:cx="312.7965"
     inkscape:cy="93.004515"
     inkscape:window-x="-8"
     inkscape:window-y="-8"
     inkscape:window-maximized="1"
     inkscape:current-layer="svg4202"
     showguides="false" />
  <g
     id="g4752"
     style="stroke:none;fill:#000000;fill-opacity:1" />
  <path
     style="opacity:1;fill:#2f3db3;fill-opacity:1;fill-rule:evenodd;stroke:#63616a;stroke-width:8.37014866;stroke-linecap:round;stroke-linejoin:bevel;stroke-miterlimit:4;stroke-dasharray:none;stroke-opacity:1"
     d=""
     id="path4780"
     inkscape:connector-curvature="0" />
  <path
     style="opacity:1;fill:#2f3db3;fill-opacity:1;fill-rule:evenodd;stroke:#63616a;stroke-width:8.37014866;stroke-linecap:round;stroke-linejoin:bevel;stroke-miterlimit:4;stroke-dasharray:none;stroke-opacity:1"
     d=""
     id="path4784"
     inkscape:connector-curvature="0" />
  <g
     id="g5278"
     style="fill:#483d8b;fill-opacity:1">
    <path
       id="path4754-1"
       style="fill:#483d8b;fill-opacity:1;stroke:none;stroke-width:6;stroke-linecap:round;stroke-linejoin:miter;stroke-miterlimit:4;stroke-dasharray:none;stroke-dashoffset:0;stroke-opacity:1"
       d="m 416.74538,149.01646 c -22.45771,-6.19774 -27.71014,-36.84644 -27.01373,-50.437142 1.22791,-23.96302 -0.87978,-35.90715 11.54813,-58.2847 6.41943,-11.55875 20.57831,-20.00621 32.57232,-18.15274 16.69137,2.57937 23.57029,2.29413 31.71077,18.46248 10.87402,21.59761 -7.94634,42.05418 -23.59349,16.54372 -10.54844,-17.19772 -27.42216,-4.06038 -27.00171,40.47291 0.26015,27.554502 22.26167,38.959942 31.11325,13.929402 7.29681,-20.633992 38.87512,-1.43932 13.57329,26.29112 -11.7119,12.83608 -27.72589,15.36505 -42.90883,11.17495 z M 68.149121,150.6268 C 45.691418,144.42906 40.438987,113.78037 41.135399,100.18967 42.363308,76.226646 40.255621,64.282516 52.683523,41.904969 59.102954,30.346212 73.26184,21.898758 85.255847,23.752229 101.94722,26.331599 108.82614,26.046351 116.96662,42.214707 127.84064,63.812314 109.02028,84.268884 93.373127,58.758429 82.824689,41.560707 65.950964,54.698045 66.371414,99.231337 66.631563,126.78583 88.633088,138.19127 97.484661,113.16074 104.78148,92.526749 136.35979,111.72142 111.05796,139.45185 99.34606,152.28793 83.33207,154.8169 68.149121,150.6268 Z M 149.8713,132.75332 c 0.0963,15.93222 34.82266,37.1608 27.80605,2.52051 -7.01662,-34.64029 24.79807,-45.175559 41.49161,15.5479 9.81346,15.96931 25.21144,-13.27627 6.69715,-71.566651 C 207.35181,20.964694 196.01303,3.5673364 174.0476,39.923352 160.3831,59.592101 149.67651,100.52876 149.8713,132.75332 Z m 477.22252,14.72037 c -24.26564,-2.68824 -16.40837,-47.22917 -17.50077,-65.684111 -1.09239,-18.454942 -8.14682,-55.69117 16.5269,-59.971818 20.20317,10.620557 11.48086,39.674704 11.58836,59.597789 0.10751,19.92309 -4.65946,43.15352 18.5399,38.43047 29.77425,-6.0616 37.08603,-0.90958 36.95496,13.42161 -0.13107,14.33119 -28.04386,13.90852 -40.00102,14.73199 -8.70383,0.12096 -16.28677,0.56214 -26.10833,-0.52593 z M 541.7518,49.704294 c -11.40592,-1.773436 -24.22927,15.254468 -3.18633,17.816409 22.76131,-7.116217 27.73765,30.578317 -8.35696,27.120671 -14.41748,35.717506 52.29445,4.203665 44.66953,33.613496 -5.40972,22.40901 -21.39239,19.1853 -51.26602,18.99306 -29.87363,-0.19225 -23.59476,-32.6 -21.42992,-71.076055 2.16484,-38.476052 4.02281,-48.611809 34.78887,-50.919242 20.48655,-1.536476 28.91789,-5.883472 32.78117,9.249673 3.53609,13.851469 -16.59441,16.975424 -28.00034,15.201988 z M 288.23645,155.08149 c -33.80973,1.42621 -23.98867,-75.593071 -23.49386,-96.314651 0.48571,-20.340183 5.5335,-50.764161 37.44926,-26.914741 11.27252,12.792774 27.99244,48.331737 35.42163,62.029819 3.1835,-18.658676 -6.96021,-78.86689 16.27576,-71.349268 14.92877,4.829962 11.64938,47.499719 10.19028,68.004529 0,0 -1.56802,25.379782 -2.84146,38.988062 -1.6969,18.13353 -15.31417,29.24487 -23.75558,17.23866 -9.86953,-14.03743 -14.3228,-23.9348 -31.12221,-54.394154 -9.17857,-16.641857 -13.97598,-35.755635 -12.9491,-6.934753 1.37182,38.502067 9.68728,69.019577 -5.17472,69.646497 z M 187.13424,89.130671 c -19.40639,5.287403 4.39515,-65.472464 13.40639,-18.522516 1.99875,11.982371 -2.30227,15.497123 -13.40639,18.522516 z"
       inkscape:connector-curvature="0"
       sodipodi:nodetypes="ssssssssssssssssssssszczcsszcssscszccczzsszssccsssssssscs" />
  </g>
</svg>
