<?xml version="1.0" encoding="UTF-8" standalone="no"?>
<!-- Created with Inkscape (http://www.inkscape.org/) -->

<svg
   xmlns:dc="http://purl.org/dc/elements/1.1/"
   xmlns:cc="http://creativecommons.org/ns#"
   xmlns:rdf="http://www.w3.org/1999/02/22-rdf-syntax-ns#"
   xmlns:svg="http://www.w3.org/2000/svg"
   xmlns="http://www.w3.org/2000/svg"
   xmlns:sodipodi="http://sodipodi.sourceforge.net/DTD/sodipodi-0.dtd"
   xmlns:inkscape="http://www.inkscape.org/namespaces/inkscape"
   id="svg4202"
   version="1.1"
   inkscape:version="0.91 r13725"
   width="739.6875"
   height="174.375"
   viewBox="0 0 739.6875 174.375"
   sodipodi:docname="cancel1.svg">
  <metadata
     id="metadata4208">
    <rdf:RDF>
      <cc:Work
         rdf:about="">
        <dc:format>image/svg+xml</dc:format>
        <dc:type
           rdf:resource="http://purl.org/dc/dcmitype/StillImage" />
        <dc:title></dc:title>
      </cc:Work>
    </rdf:RDF>
  </metadata>
  <defs
     id="defs4206" />
  <sodipodi:namedview
     pagecolor="#ffffff"
     bordercolor="#666666"
     borderopacity="1"
     objecttolerance="10"
     gridtolerance="10"
     guidetolerance="10"
     inkscape:pageopacity="0"
     inkscape:pageshadow="2"
     inkscape:window-width="1366"
     inkscape:window-height="705"
     id="namedview4204"
     showgrid="false"
     inkscape:zoom="1.4530492"
     inkscape:cx="309.88621"
     inkscape:cy="111.67736"
     inkscape:window-x="-8"
     inkscape:window-y="-8"
     inkscape:window-maximized="1"
     inkscape:current-layer="svg4202" />
  <g
     id="g4752">
    <path
       style="fill:#7c8284;stroke:#676b6a;stroke-width:3.9000001;stroke-miterlimit:4;stroke-dasharray:none;stroke-opacity:1"
       d="m 67.534963,148.04581 c -6.890425,-2.44494 -11.422091,-5.73566 -15.849611,-11.50939 -7.851513,-10.2388 -9.586496,-17.34859 -8.954006,-36.69267 0.134874,-4.125 0.314444,-13.40625 0.399044,-20.625 0.167745,-14.313462 1.539377,-26.236319 3.217056,-27.964145 0.586564,-0.604095 2.085473,-2.763159 3.330909,-4.797918 3.234282,-5.284081 7.381637,-9.792689 11.219486,-12.196747 4.756486,-2.979501 14.732777,-6.13494 19.396333,-6.13494 2.195931,0 5.065426,-0.488812 6.376656,-1.086248 1.914867,-0.872472 2.70768,-0.811488 4.028487,0.309873 0.904438,0.767867 3.557467,2.100616 5.895621,2.961666 2.582906,0.951181 6.139122,3.496865 9.062112,6.487002 5.35136,5.474322 11.53045,15.991249 11.53045,19.625041 0,1.298205 0.45937,3.678131 1.02083,5.288726 0.80441,2.307516 0.691,3.921377 -0.5349,7.612222 -2.05471,6.186153 -5.8844,9.426718 -11.14047,9.426718 -6.575876,0 -11.523532,-3.266302 -17.04104,-11.25 -3.950577,-5.716391 -5.371559,-7.083371 -7.598749,-7.30997 -2.308884,-0.234909 -3.351034,0.473074 -6.630254,4.50426 -4.428092,5.443507 -5.006077,8.134457 -5.234012,24.36821 -0.281092,20.01974 0.734892,26.77451 4.683401,31.13756 1.996405,2.20601 6.573893,2.12219 10.365819,-0.18978 2.364338,-1.44157 3.046875,-2.49759 3.046875,-4.71411 0,-6.77021 6.719063,-14.98367 12.25747,-14.98367 3.2733,0 9.02476,2.72224 11.4744,5.43098 2.47418,2.73587 4.30321,10.55896 3.49807,14.9619 -1.06855,5.84351 -4.50141,12.00463 -8.76909,15.73838 -15.137499,13.24362 -15.764297,13.5717 -25.768108,13.48774 -5.538599,-0.0465 -9.807342,-0.65249 -13.282779,-1.88569 z M 87.1875,142.5438 c 1.289062,-0.42934 4.664062,-1.30997 7.5,-1.95696 4.884656,-1.11437 5.3722,-1.49971 9.25623,-7.3155 6.76526,-10.13004 7.63409,-21.19288 1.91643,-24.40212 -4.77368,-2.67939 -7.005623,-0.9868 -11.709566,8.87992 -3.624762,7.60309 -4.754497,9.16136 -7.462155,10.2927 -1.754894,0.73324 -4.224292,1.33316 -5.487552,1.33316 -2.546267,0 -11.060011,-3.9879 -12.478682,-5.84511 -0.498336,-0.65237 -1.653515,-4.56114 -2.567065,-8.68614 -1.38671,-6.2615 -1.60633,-10.9833 -1.329945,-28.59375 l 0.331055,-21.09375 3.115763,-4.327751 c 5.57063,-7.737526 11.04946,-10.360928 17.984885,-8.611614 2.581989,0.651252 4.11685,2.075007 7.258727,6.733278 C 95.707031,62.199229 97.5,65.87398 97.5,67.116277 c 0,3.421684 3.15196,6.008723 7.32082,6.008723 5.85509,0 7.00307,-1.487813 6.98852,-9.057281 -0.0197,-10.239245 -5.56955,-20.36388 -13.809615,-25.192881 -4.975701,-2.915954 -8.72093,-3.643556 -18.1225,-3.520737 -9.606583,0.125496 -16.133829,2.898385 -20.841261,8.853735 -3.998426,5.058388 -7.58963,13.650645 -7.312207,17.495074 0.09985,1.383712 -0.387584,3.568355 -1.08319,4.854763 -0.930277,1.720396 -1.371863,8.538239 -1.669828,25.78125 l -0.405091,23.442327 2.901461,7.03125 c 1.595804,3.86719 2.902908,7.54391 2.904676,8.1705 0.0018,0.6266 1.360025,2.68458 3.018347,4.5733 6.279741,7.15223 19.790291,10.32046 29.797368,6.9875 z m 72.2721,2.47898 c -6.317,-3.13858 -8.06745,-6.12304 -7.98137,-13.60793 0.0723,-6.28448 4.07483,-22.09292 6.56931,-25.9461 1.17484,-1.81477 11.89866,-29.364114 15.50951,-39.84375 2.13105,-6.184863 12.6149,-27.637256 15.11925,-30.9375 2.38306,-3.140416 8.11778,-6.552994 11.0112,-6.552469 4.36925,7.93e-4 9.28668,1.920875 12.08429,4.71849 3.35568,3.355675 7.17333,11.146524 8.53163,17.410843 0.54612,2.518663 1.77297,6.688761 2.72633,9.266886 0.95336,2.578125 2.85381,9.328125 4.22322,15 1.36941,5.671875 3.77462,14.953125 5.34491,20.625 1.5703,5.67188 3.62782,13.47656 4.57226,17.34375 0.94444,3.86719 2.44225,9.84743 3.32847,13.28945 2.22536,8.64318 1.45195,11.90946 -3.94483,16.65991 -4.13912,3.64339 -4.58047,3.80064 -10.66717,3.80064 l -6.3494,0 -2.8362,-3.85663 c -1.64465,-2.23637 -4.30104,-8.43974 -6.32289,-14.76563 -4.99482,-15.62752 -6.94658,-19.21475 -11.15769,-20.50718 -2.86822,-0.88028 -4.10389,-0.76452 -7.53394,0.70577 -4.83621,2.07304 -6.62379,5.18014 -12.12774,21.07992 -2.83367,8.18587 -4.35649,11.13415 -7.38449,14.29687 -4.40175,4.59761 -6.51486,4.90002 -12.71466,1.81966 z m 9.77755,-8.44743 c 2.08022,-2.08022 3.62163,-4.95566 4.64865,-8.67188 0.84507,-3.05784 2.77742,-8.60869 4.2941,-12.3352 1.51668,-3.72652 2.7576,-7.40016 2.7576,-8.16366 0,-0.76349 1.58203,-3.04269 3.51562,-5.0649 4.1364,-4.32596 9.04065,-5.570004 15.30654,-3.882776 C 204.32188,99.685406 210,104.77786 210,107.64102 c 0,1.98935 2.04419,7.21303 6.48738,16.57773 1.46786,3.09375 3.33421,7.18638 4.14743,9.09473 3.49209,8.19473 12.95665,8.10629 14.97505,-0.13992 0.5308,-2.1686 -1.61571,-13.6069 -4.49536,-23.95481 -0.71745,-2.57813 -2.44843,-9.960938 -3.8466,-16.40625 -1.39817,-6.445313 -3.56098,-14.460938 -4.80623,-17.8125 -1.24525,-3.351563 -2.8934,-8.835938 -3.66255,-12.1875 -1.93156,-8.416713 -6.70146,-20.669933 -9.02187,-23.175918 -4.80959,-5.194259 -13.78232,-4.651004 -17.99954,1.089786 -2.34543,3.192761 -7.46154,13.683182 -9.52378,19.528224 -0.73784,2.091254 -1.70277,4.260579 -2.1443,4.82072 -0.44152,0.560141 -1.32611,2.705938 -1.96574,4.768438 -0.63963,2.0625 -2.1403,6.070312 -3.33484,8.90625 -1.19453,2.835937 -4.13178,10.21875 -6.52722,16.40625 -2.39544,6.1875 -5.13132,12.9375 -6.07973,15 -4.88788,10.62956 -7.04954,23.64512 -4.46773,26.90047 2.8521,3.59613 7.62502,3.39639 11.50278,-0.48137 z m 6.63599,-42.658544 c -3.78635,-1.382799 -10.08279,11.456454 -4.19162,2.037239 1.47578,-2.359577 13.77408,-24.74168 18.10884,-36.003332 1.18132,-3.069063 9.94228,-6.355063 12.17229,-5.286206 2.21671,1.062485 7.01569,0.356412 8.8981,7.608955 3.56432,13.732697 0.25278,33.490074 -9.00794,33.347813 -2.64991,-0.04071 -24.56066,-1.186232 -25.97967,-1.704469 z m 40.8968,-7.911069 c 1.75297,-3.286456 -6.85117,-44.943666 -15.87286,-31.581688 -0.58063,0.859968 -22.52387,30.199012 -23.35157,32.477281 -3.04878,8.391891 37.45977,2.412752 39.22443,-0.895593 z m 65.41756,55.363983 c -4.26673,-2.23603 -5.64428,-6.88447 -6.66343,-22.48548 -1.54209,-23.605749 0.60746,-77.113143 3.37229,-83.944363 2.25091,-5.561468 6.60318,-8.123096 12.79113,-7.528512 3.98094,0.382517 5.33603,1.075057 8.93557,4.566641 2.33366,2.263659 7.04582,8.334494 10.47148,13.490744 3.42567,5.15625 7.52955,10.851562 9.11974,12.65625 1.59019,1.804687 4.41348,6.023437 6.27397,9.375 6.24985,11.258726 6.11746,11.349031 5.60935,-3.825996 -0.49496,-14.78243 0.73156,-25.830328 3.369,-30.346248 1.98454,-3.398012 5.92066,-5.754268 10.96772,-6.565553 3.25891,-0.523849 4.32656,-0.209981 7.76948,2.28406 2.19528,1.590251 4.47072,4.037429 5.05653,5.438175 0.74417,1.779405 1.06359,15.82374 1.06004,46.609312 -0.005,42.95323 -0.0562,44.19352 -2.03544,49.26701 -1.11671,2.86249 -3.50947,6.6381 -5.31723,8.39026 -3.20273,3.1042 -3.37675,3.15419 -6.79915,1.95321 -6.99519,-2.45474 -9.4879,-4.02924 -11.73749,-7.41386 -9.5665,-14.39324 -24.51534,-38.667136 -28.58858,-46.42206 l -2.54064,-4.83706 -0.49681,6.5625 c -0.27326,3.609375 -0.19375,9.09375 0.17669,12.1875 0.96293,8.04229 -0.066,27.26717 -1.76644,33.00611 -0.79547,2.68462 -2.17707,5.54245 -3.07023,6.35074 -2.2336,2.02139 -12.88226,2.84326 -15.95755,1.23162 z m 11.33928,-4.22784 c 4.45886,-2.63392 5.8888,-7.90755 5.21866,-19.24655 -0.31252,-5.28774 -0.80225,-17.20783 -1.0883,-26.48908 -0.55642,-18.053551 -0.0244,-21.106602 3.67315,-21.079394 2.95639,0.02175 4.11256,1.108654 5.5683,5.234646 0.73084,2.071417 4.27691,9.226071 7.88015,15.899231 3.60324,6.673158 8.13528,15.086147 10.07118,18.695517 10.8998,20.32202 14.18491,24.21172 20.03375,23.72072 2.85816,-0.23994 3.6962,-0.86957 5.48396,-4.1202 3.72095,-6.76568 4.48131,-15.94391 4.3517,-52.527831 -0.0833,-23.517302 -0.46367,-34.90614 -1.24474,-37.272822 -2.66421,-8.072627 -11.51499,-6.624075 -14.14874,2.315638 -0.52639,1.786702 -0.87522,12.142658 -0.79076,23.475922 0.0832,11.15341 -0.14067,20.751066 -0.4973,21.328125 -1.75622,2.841607 -4.37796,0.750993 -10.73493,-8.560177 -3.60831,-5.285156 -7.68009,-11.085938 -9.04843,-12.890625 -1.36833,-1.804688 -3.72522,-5.390625 -5.23754,-7.96875 -1.51232,-2.578125 -4.11057,-6.449186 -5.77391,-8.602358 -1.66333,-2.153173 -4.07892,-5.41676 -5.36798,-7.252416 -2.66377,-3.793285 -8.52064,-8.066093 -10.99552,-8.021661 -2.11491,0.03797 -4.32701,1.734389 -5.75335,4.412136 -1.88613,3.540922 -3.79039,28.821401 -4.46462,59.271018 -0.58075,26.228431 -0.4867,29.405991 0.98438,33.257981 1.64059,4.29584 5.2622,8.02905 7.78902,8.02905 0.75324,0 2.59459,-0.72366 4.09187,-1.60812 z m 124.72889,4.4099 c -11.64495,-2.4623 -23.10104,-15.45537 -25.45598,-28.87121 -0.7287,-4.15138 -0.98592,-14.997514 -0.7602,-32.05557 0.34094,-25.765282 0.34278,-25.785111 2.96278,-32.015063 1.44188,-3.428598 4.095,-7.707203 5.8958,-9.508013 6.01434,-6.014329 17.96279,-11.162964 28.73064,-12.380142 5.01616,-0.567017 5.84436,-0.368601 11.37773,2.725837 6.03939,3.37742 14.42224,11.57793 17.0706,16.699285 C 465.703,60.893895 461.99032,75 450.48298,75 c -4.67066,0 -10.97964,-4.056141 -13.45401,-8.649792 -2.43069,-4.51256 -6.01196,-8.10325 -8.7102,-8.733103 -1.99402,-0.465467 -3.08601,0.06721 -5.74012,2.80006 -4.18496,4.309117 -4.43542,5.984428 -4.42249,29.582835 0.009,17.16203 0.19376,19.45703 1.72273,21.44531 1.92412,2.50213 5.8017,2.95369 8.20883,0.95595 0.84204,-0.69883 3.17872,-3.87962 5.19262,-7.0684 3.84156,-6.08266 6.65301,-7.853016 12.40643,-7.812272 3.90434,0.02766 10.27183,3.019022 12.15776,5.711562 2.25023,3.21264 1.94308,11.43796 -0.66372,17.77448 -2.91111,7.07624 -6.49717,11.33407 -13.77576,16.35632 -5.76378,3.97703 -6.56796,4.25153 -13.59375,4.64017 -4.10715,0.2272 -9.30719,0.0241 -11.55563,-0.45134 z m 18.07801,-6.10227 c 2.9468,-0.85666 6.78832,-2.81355 8.5367,-4.34866 5.02262,-4.40991 10.40648,-17.55089 9.15355,-22.34208 -0.52886,-2.02241 -6.035,-5.63377 -8.58962,-5.63377 -2.13863,0 -5.9572,4.11719 -8.47223,9.13476 -3.41202,6.80709 -13.13609,9.1122 -18.6978,4.43233 -5.15469,-4.33738 -5.75866,-7.82713 -5.51197,-31.84834 0.20545,-20.006182 0.3663,-21.833164 2.22855,-25.3125 3.79503,-7.090433 8.42889,-9.142409 16.02609,-7.096697 4.15882,1.119853 9.6806,6.78925 11.02083,11.315447 0.99713,3.367474 3.0825,5.431607 6.17336,6.110474 4.37374,0.960635 6.21047,-0.193079 7.81793,-4.910704 2.50229,-7.343817 2.009,-9.344342 -4.8796,-19.789197 -3.35999,-5.09457 -6.88626,-7.287734 -17.45164,-10.854036 -4.86625,-1.642589 -12.92445,-0.519495 -20.25033,2.822346 -6.7514,3.07978 -9.60887,5.936291 -12.5954,12.59116 -2.75753,6.1446 -3.22105,10.710954 -3.72496,36.696403 -0.41041,21.164884 0.48622,29.453464 3.85596,35.644794 2.70656,4.97285 11.88656,13.84693 15.53148,15.01389 3.14176,1.00587 13.77603,0.13406 19.8291,-1.62562 z m 82.57257,6.20018 c -3.93511,-1.00332 -10.00915,-4.23972 -11.91737,-6.34987 -4.33314,-4.79166 -5.64859,-14.11327 -5.92958,-42.01857 C 500.9658,84 500.43204,69.900034 499.87308,61.947991 c -0.55898,-7.952042 -0.67399,-15.123917 -0.25559,-15.9375 0.41839,-0.813582 1.03341,-2.992623 1.36672,-4.842311 0.33331,-1.849689 2.07323,-5.077186 3.8665,-7.172215 4.46358,-5.214693 11.68683,-7.310611 30.19287,-8.760838 14.29425,-1.120171 20.29058,-0.696439 29.02245,2.050876 4.48386,1.41076 7.80897,6.351923 7.80897,11.604251 0,9.591988 -3.50197,12.24702 -17.96807,13.622591 -24.77238,2.355583 -26.79203,2.975003 -25.57041,7.842324 0.79975,3.186493 4.06402,4.839664 11.12949,5.636468 5.89464,0.664765 11.0534,3.229081 13.14936,6.536288 2.09967,3.313056 2.71833,12.735283 1.09056,16.609206 -0.77556,1.845735 -2.00458,3.849256 -2.73117,4.45227 -0.72658,0.603015 -5.0571,1.475068 -9.62336,1.937902 -11.5928,1.175044 -12.75516,2.969419 -10.19495,15.738337 0.5629,2.80744 2.08138,3.12598 17.02954,3.57235 7.17182,0.21416 14.83315,0.79235 17.02519,1.28487 6.78265,1.52396 10.41382,6.30468 10.41382,13.71063 0,3.70982 -0.50644,4.84477 -3.68114,8.24968 l -3.68114,3.94808 -23.27199,0.16777 c -12.79959,0.0923 -24.53761,-0.15493 -26.08448,-0.54933 z m 47.77412,-7.96311 c 3.07209,-2.3432 3.43541,-3.02954 2.93315,-5.54089 -1.21709,-6.08543 -1.83221,-6.27069 -20.82076,-6.27069 -14.18702,0 -17.74381,-0.27523 -20.49189,-1.5857 -4.21895,-2.01187 -5.62466,-6.25662 -5.63622,-17.01926 -0.008,-7.55789 0.0862,-7.899177 2.77811,-10.04513 3.44344,-2.745121 10.82049,-4.415897 16.04105,-3.633024 2.20869,0.331213 4.74579,0.15051 5.79875,-0.413013 3.76292,-2.013859 3.04886,-11.432682 -1.18795,-15.669491 -1.92429,-1.924289 -3.04084,-2.178712 -9.2444,-2.106482 -10.93078,0.12727 -15.55619,-3.452226 -15.58639,-12.061913 -0.0189,-5.369719 1.56429,-8.417854 5.03728,-9.698691 1.60471,-0.591818 9.03484,-1.279073 16.5114,-1.527233 15.01685,-0.498435 19.12719,-1.352543 21.03326,-4.370602 1.62464,-2.572455 0.88751,-7.504623 -1.43583,-9.607218 -2.54553,-2.303681 -17.95378,-3.444371 -30.14431,-2.231619 -5.28515,0.525785 -10.875,1.072295 -12.42187,1.214468 -6.03188,0.554388 -12.20069,5.902973 -14.07064,12.19976 -1.16262,3.914986 -1.23319,9.035832 -0.46567,33.787862 1.5919,51.337546 1.44972,50.405166 8.14356,53.402256 8.28565,3.7098 12.43662,4.24567 31.3391,4.04563 l 18.38385,-0.19454 z m 69.77533,7.87492 c -12.2572,-0.54973 -15.02399,-0.94611 -17.01093,-2.43713 -3.11749,-2.33937 -6.14944,-6.82411 -7.28105,-10.76981 -0.5006,-1.74547 -1.34514,-16.84478 -1.87677,-33.554035 -0.53162,-16.709258 -1.1792,-30.724493 -1.43907,-31.144965 -0.91601,-1.482143 -0.51709,-27.954445 0.44845,-29.758569 1.13711,-2.124703 8.93208,-7.48036 12.01279,-8.253567 1.17061,-0.293804 3.28842,-0.243037 4.70625,0.112815 3.87714,0.973098 10.03051,7.915935 11.30842,12.75924 0.84599,3.206364 2.61363,41.684161 2.7743,60.390771 0.0133,1.54687 0.17244,5.13281 0.35366,7.96875 l 0.3295,5.15625 L 661.875,112.5 c 22.15245,0.49228 22.39188,0.53684 28.7457,5.3508 2.73775,2.07425 5.9418,7.97648 5.9418,10.94551 0,2.076 -5.55107,8.43381 -8.86293,10.15099 -2.95684,1.5331 -6.29034,1.86217 -30.04332,2.96579 -3.60938,0.1677 -13.14962,0.009 -21.20055,-0.35159 z m 38.80219,-6.0636 c 8.60806,-0.75372 12.91011,-3.80607 12.8373,-9.10814 -0.0164,-1.19406 -0.57813,-2.89271 -1.24828,-3.77478 -2.58951,-3.40837 -6.17899,-3.96295 -26.84691,-4.14794 -11.08594,-0.0992 -20.66377,-0.21677 -21.28406,-0.26122 -2.08991,-0.14976 -3.20348,-7.02922 -3.65512,-22.58082 -0.78601,-27.06559 -2.1796,-50.028632 -3.28669,-54.156668 -1.16949,-4.360784 -5.38837,-8.655832 -8.50231,-8.655832 -1.04325,0 -3.32282,1.426004 -5.06572,3.168897 l -3.16889,3.168897 0.0466,17.690478 c 0.0256,9.729763 0.56623,29.085445 1.20136,43.012625 1.08493,23.789883 1.28964,25.562053 3.383,29.286673 1.2255,2.18049 2.89136,4.13494 3.70191,4.34323 5.40853,1.38987 10.24288,2.44891 12.25498,2.68463 3.37444,0.39531 33.23042,-0.10943 39.63288,-0.67003 z"
       id="path4756"
       inkscape:connector-curvature="0"
       sodipodi:nodetypes="ssssssssssssssssssssssssssssssssssssssscsssssssssssscscssssssssssssssssscssssssssssssssssssssssssssssssssssssssssssssssssssssssssssssscsssssssssssssssssscssssssssssssssssssssssscssssssssssssssssssssssssssssssssssssssssssssssssssscsssssscssssscsssssssssscscsssssssssscsssssccsssssssscssssscc" />
    <path
       style="fill:#676b6a"
       d="M 67.662484,146.73371 C 59.32881,144.13299 53.961956,138.93404 47.8125,127.50474 l -3.28125,-6.09849 0.04282,-26.71875 c 0.05456,-34.04742 1.120498,-39.487635 10.055999,-51.322621 2.046114,-2.710058 4.126846,-4.927379 4.623849,-4.927379 0.497003,0 -0.414282,1.664014 -2.025078,3.697808 -3.582751,4.523593 -7.004312,14.094379 -8.397575,23.489692 -0.573479,3.867187 -1.086274,16.750817 -1.139544,28.630284 -0.101169,22.561126 0.101418,24.090576 4.712841,35.579936 3.63088,9.04633 12.28793,14.4335 24.476109,15.23118 3.870305,0.25329 8.698146,0.002 10.728535,-0.55877 4.518242,-1.24755 5.464716,-0.56319 2.521313,1.82307 -1.815414,1.47178 -3.669048,1.78303 -10.3125,1.73158 -4.454596,-0.0345 -9.924585,-0.63234 -12.155531,-1.32857 z m 92.567696,-2.77798 c -6.5836,-2.64594 -7.64833,-4.66773 -7.07111,-13.42709 0.44655,-6.77631 4.30468,-20.30077 6.95662,-24.38602 2.29902,-3.54159 2.09629,-1.97148 -0.80352,6.22304 -3.86987,10.9358 -5.24295,19.81585 -3.65632,23.64633 1.46902,3.54651 6.36546,5.9419 10.35482,5.06569 3.49771,-0.76822 8.33032,-6.89178 9.44957,-11.97385 0.94809,-4.30489 7.80757,-22.41966 9.54011,-25.19391 2.93907,-4.706182 13.97054,-5.898429 19.10524,-2.06482 1.61058,1.20247 3.90375,5.498 6.95154,13.02153 7.36093,18.17059 10.14678,23.14004 14.17724,25.28962 3.51563,1.875 3.51563,1.875 7.00233,0 4.61382,-2.48111 5.69642,-6.15523 4.10561,-13.93343 -1.6859,-8.2431 -5.60629,-25.4882 -7.18303,-31.59682 -1.40827,-5.45599 -1.7535,-9.095227 -0.76946,-8.111182 0.31752,0.317525 1.59235,4.290181 2.83293,8.828126 7.44986,27.250836 9.76897,37.081096 9.19659,38.982786 -0.7958,2.64412 -5.74786,7.93335 -9.04466,9.66051 -1.39236,0.72944 -4.2638,1.32626 -6.38097,1.32626 -3.13208,0 -4.35833,-0.5572 -6.58048,-2.99015 -3.10932,-3.40427 -6.75224,-11.92301 -8.34311,-19.50985 -0.59467,-2.83594 -2.43575,-7.6875 -4.09129,-10.78125 -2.52344,-4.71561 -3.62103,-5.83624 -6.78909,-6.93158 -3.44607,-1.19148 -4.16395,-1.13632 -8.14833,0.62616 -4.7916,2.11956 -7.20103,5.80154 -10.88777,16.63815 -3.05596,8.98254 -6.52295,16.79037 -7.61763,17.15527 -0.55713,0.18571 -1.62,1.51154 -2.36194,2.94629 -1.84157,3.5612 -3.98979,3.88313 -9.94389,1.49019 z m 359.89037,-3.79948 c -5.38968,-1.2548 -11.38401,-4.55203 -13.13564,-7.22537 -0.78459,-1.19742 -1.70462,-3.6475 -2.04453,-5.44463 l -0.61801,-3.2675 1.96404,3.59423 c 1.52224,2.78574 3.3207,4.22909 7.99513,6.41653 5.42145,2.53699 7.46307,2.91515 20.19699,3.74096 13.33279,0.86465 24.6831,0.2924 33.0657,-1.66708 3.56899,-0.83427 2.96622,1.42027 -0.8947,3.34646 -2.13766,1.06645 -7.13197,1.37691 -22.62273,1.40625 -10.9337,0.0207 -21.69151,-0.38423 -23.90625,-0.89985 z m -237.72374,-0.16049 c -0.65832,-0.26468 -2.10088,-2.23527 -3.20569,-4.37912 -1.87188,-3.63229 -2.03681,-5.62271 -2.42047,-29.21039 -0.43572,-26.788573 0.95557,-62.213059 2.68497,-68.363622 1.48136,-5.268395 5.49936,-8.980128 9.72113,-8.980128 1.86091,0 4.76396,0.576805 6.45123,1.281788 3.06629,1.281181 10.2152,9.427026 16.55952,18.868781 1.80469,2.685778 4.60067,6.527972 6.21329,8.538207 1.61263,2.010235 5.06527,7.271624 7.67253,11.691974 7.71044,13.072271 7.55717,13.233623 7.58745,-7.98729 0.0144,-10.100925 0.47336,-20.025906 1.01988,-22.055512 2.35424,-8.742995 10.70842,-13.028172 18.0737,-9.270688 6.38897,3.259408 6.36938,3.105017 6.44458,50.782793 0.0641,40.671817 -0.0116,42.590647 -1.892,47.910557 -1.88345,5.32859 -6.49169,10.73484 -9.22825,10.82629 -3.43462,0.11479 -13.43117,-6.47596 -13.36137,-8.80917 0.0164,-0.54806 0.54375,-0.32303 1.17188,0.50007 1.53269,2.00843 6.67164,4.5972 9.12588,4.5972 9.38147,0 11.4486,-11.45231 10.91457,-60.46875 -0.39366,-36.131493 -0.79463,-39.305065 -5.26859,-41.699457 -3.90072,-2.087599 -7.69287,-0.828055 -10.78039,3.580651 l -2.84941,4.068694 0.27586,22.415681 C 337.6684,93.191224 338.57096,92.987233 321.08827,67.5 319.85036,65.695313 317.67866,62.320313 316.26226,60 308.62333,47.486077 300.42563,37.230174 295.58887,34.136136 292.83872,32.376886 290.37178,30.9375 290.1068,30.9375 c -1.63048,0 -6.93975,6.852474 -7.37499,9.518618 -2.24297,13.73986 -4.00468,48.393076 -3.87708,76.262632 0.0485,10.5757 0.22009,11.58645 2.86402,16.86339 1.54687,3.08737 2.95312,5.93503 3.125,6.32813 0.34529,0.78971 -0.61211,0.82316 -2.44694,0.0855 z m 142.52506,-0.017 c 0.90235,-0.2358 2.37891,-0.2358 3.28125,0 0.90235,0.23581 0.16407,0.42875 -1.64062,0.42875 -1.80469,0 -2.54297,-0.19294 -1.64063,-0.42875 z m 202.17195,-0.29125 c -6.76391,-0.51242 -8.21319,-1.33166 -11.35827,-6.42052 -1.59675,-2.58358 -2.25958,-5.5334 -2.76756,-12.31648 -1.13202,-15.11575 -3.03322,-65.606765 -2.82456,-75.013 0.21832,-9.841439 1.09062,-11.870638 6.76208,-15.730111 4.63493,-3.154108 7.12907,-3.497555 10.86058,-1.495519 4.21802,2.263059 6.38533,4.706577 7.79473,8.78813 1.01208,2.930905 2.27779,29.638577 3.0157,63.63392 0.16906,7.78896 0.59579,11.02946 1.58232,12.01599 1.10848,1.10847 5.00013,1.30823 21.69092,1.11339 l 20.34009,-0.23744 4.60819,2.83139 c 3.51767,2.16133 5.03345,3.85678 6.40513,7.16428 l 1.7969,4.3329 -2.67274,3.85677 c -1.47001,2.12122 -3.85121,4.46617 -5.29155,5.21101 -4.48809,2.32087 -40.99636,3.70057 -59.94196,2.26529 z m 31.1254,-1.94296 c 20.23864,0.0465 25.42998,-0.9659 29.44973,-5.74311 4.48281,-5.32751 1.19582,-11.90985 -6.90714,-13.83186 -2.39556,-0.56822 -12.75063,-1.12711 -23.01128,-1.24197 l -18.65571,-0.20885 -1.17884,-3.40515 c -0.64836,-1.87283 -1.20953,-7.14627 -1.24704,-11.71875 -0.20777,-25.325779 -2.39346,-58.209932 -4.14813,-62.409443 -1.67008,-3.997046 -6.63724,-8.247907 -9.63776,-8.247907 -1.29552,0 -3.80252,1.390391 -5.78745,3.209735 l -3.50185,3.209734 0.23953,19.524641 c 0.41538,33.858548 2.05386,66.00058 3.5807,70.24276 1.81394,5.03988 4.99394,7.90803 9.95828,8.98172 2.2187,0.47986 5.51055,1.22137 7.31524,1.64778 1.80469,0.42641 3.90648,0.58973 4.67064,0.36292 0.76417,-0.22681 9.25165,-0.39432 18.86108,-0.37225 z m -250.02473,-2.64449 c -2.98102,-1.81781 -8.63383,-8.25851 -10.64238,-12.12574 -3.91008,-7.5284 -5.69355,-31.688181 -4.04502,-54.795735 1.54824,-21.70163 2.58666,-15.086737 2.58666,16.477353 l 0,30.187822 2.75134,5.625 c 1.51323,3.09375 5.05792,8.05078 7.87708,11.01562 2.81915,2.96485 4.95605,5.38905 4.74866,5.38712 -0.20739,-0.002 -1.68174,-0.79907 -3.27634,-1.77144 z m 162.9911,-2.32592 c 0.63345,-3.60154 -0.76546,-8.35332 -3.07433,-10.44281 -1.65156,-1.49465 -4.03684,-1.73146 -19.76565,-1.96238 -20.5636,-0.3019 -21.53738,-0.60743 -23.21884,-7.28513 -1.20664,-4.79198 -1.40182,-15.476241 -0.31399,-17.187985 1.6358,-2.574004 9.65041,-5.123036 15.50564,-4.93154 7.56705,0.247483 7.738,0.220372 9.45836,-1.5 3.06333,-3.063322 0.74168,-14.556519 -3.67931,-18.214285 -1.22716,-1.015307 -3.99912,-1.40625 -9.97093,-1.40625 -7.58345,0 -8.46711,-0.195857 -10.62662,-2.35528 -3.0808,-3.080684 -3.6958,-11.037522 -1.0768,-13.931487 2.39368,-2.644991 9.34324,-3.887734 21.01365,-3.757733 l 10.03198,0.11175 -6.09375,1.250738 c -3.35156,0.687907 -8.32214,1.270432 -11.04574,1.2945 -2.72358,0.02407 -6.4398,0.665411 -8.25824,1.425204 -3.12105,1.304058 -3.29003,1.600772 -3.01676,5.296902 0.37836,5.11741 2.99676,7.015007 11.51121,8.342349 11.15764,1.739393 14.55068,5.342329 14.54812,15.448057 -0.002,7.543565 -5.6256,11.669897 -15.95186,11.704519 -6.4093,0.02147 -8.41286,1.880915 -8.4065,7.801761 0.003,2.6778 0.44029,6.43521 0.97203,8.34982 1.22099,4.39632 4.32153,5.40015 16.83524,5.45059 4.89844,0.0198 11.81836,0.41107 15.3776,0.86961 5.38857,0.69421 6.95715,1.3195 9.37479,3.73716 2.48691,2.48689 2.87938,3.52543 2.73566,7.23887 -0.10342,2.67255 -0.77594,4.91312 -1.75334,5.84156 -1.47357,1.39973 -1.55208,1.31579 -1.11162,-1.18851 z M 75,125.78038 c -4.232329,-2.08346 -5.360438,-3.16027 -6.295784,-6.00948 -4.230856,-12.88784 -3.985037,-47.87327 0.396173,-56.384083 1.84229,-3.57878 5.646444,-7.078763 9.450154,-8.694543 6.676644,-2.836174 14.68344,2.904973 17.179738,12.31846 0.549928,2.073784 1.879444,4.719735 2.954466,5.879891 C 100.61476,74.97347 100.61575,75 98.764341,75 96.609366,75 94.053038,72.396509 90.939945,67.03125 87.091411,60.39849 84.420233,58.125 80.475779,58.125 c -3.312887,0 -3.795452,0.380166 -7.269919,5.727252 -4.650909,7.157592 -5.187834,10.959811 -4.545242,32.187001 0.361884,11.954337 0.879529,16.935577 2.050242,19.729197 3.223431,7.69198 7.177845,9.54172 14.160904,6.62401 3.404447,-1.42247 4.238517,-2.80602 6.112819,-10.1399 1.445124,-5.65458 6.101464,-10.06506 10.626127,-10.06506 6.80972,0 12.80651,7.33028 12.7437,15.57752 -0.0189,2.4842 -3.11441,10.67248 -4.03462,10.67248 -0.21829,0 -0.1818,-3.77222 0.0811,-8.3827 l 0.47797,-8.38271 -2.92477,-2.92476 c -2.4136,-2.41361 -3.54175,-2.87376 -6.45503,-2.63292 -3.409737,0.28187 -3.661691,0.55629 -7.378522,8.03634 -4.239617,8.53215 -6.140938,11.01651 -9.931115,12.97648 -3.20109,1.65534 -3.043971,1.67838 -9.189394,-1.34685 z m 245.95937,-15.89172 c -4.71454,-7.5872 -10.12172,-16.957001 -12.01597,-20.821779 -5.9542,-12.148201 -7.96489,-12.750789 -7.99155,-2.395006 -0.0189,7.377459 -1.59019,5.76298 -2.4356,-2.502686 -0.51824,-5.066867 -0.34017,-6.763774 0.91008,-8.671875 0.85491,-1.304772 2.14098,-2.372314 2.85792,-2.372314 1.18051,0 12.61449,20.310938 21.63827,38.4375 1.92517,3.86719 4.31984,8.19141 5.32148,9.60938 1.00164,1.41796 1.47605,2.56318 1.05421,2.5449 -0.42183,-0.0183 -4.6243,-6.24091 -9.33884,-13.82812 z M 452.84349,123.75 c -0.006,-0.25781 0.61755,-2.53971 1.3854,-5.07087 2.85681,-9.41719 1.48071,-13.7383 -5.26487,-16.53242 -3.27712,-1.35743 -3.5368,-2.77171 -0.50891,-2.77171 3.34632,0 8.405,3.86672 9.34455,7.14273 1.06023,3.69682 -0.66926,12.20048 -3.1234,15.35727 -1.00213,1.28906 -1.82688,2.13281 -1.83277,1.875 z m 50.88372,-4.92187 c -1.04237,-1.61056 -1.21004,-30.603079 -0.18068,-31.239267 0.45566,-0.281611 0.87587,2.571472 0.9338,6.340181 0.0579,3.768712 0.24744,11.176426 0.42113,16.461586 0.17369,5.28515 0.15118,9.60937 -0.05,9.60937 -0.20118,0 -0.7071,-0.52734 -1.12425,-1.17187 z m -85.67432,-4.38102 c -1.50722,-1.50721 -2.72324,-3.51111 -2.70229,-4.45312 0.0307,-1.37662 0.53658,-1.14069 2.57812,1.20221 6.31511,7.24726 10.40694,6.14031 16.5091,-4.46617 2.13219,-3.70607 6.78365,-7.35503 9.37574,-7.35503 1.57081,0 0.2638,1.74644 -1.67029,2.23186 -1.22745,0.30807 -2.47442,1.30303 -2.77104,2.21101 -1.40996,4.31592 -6.2848,11.09843 -8.72653,12.14151 -4.88993,2.0889 -9.55145,1.5291 -12.59281,-1.51227 z m -118.42134,-3.43004 c -0.871,-2.26978 -0.67631,-10.52762 0.26187,-11.107451 1.12332,-0.694247 1.95325,2.736011 1.96878,8.137261 0.0126,4.3804 -1.11391,5.88038 -2.23065,2.97019 z m 115.2368,-6.91476 c -1.26423,-2.04557 -1.67285,-24.870468 -0.57134,-31.91481 1.46022,-9.338451 4.78984,-16.573346 8.23118,-17.885474 3.43396,-1.309313 9.85925,-0.308293 12.78297,1.991507 1.27497,1.002889 3.65648,4.486832 5.29225,7.742095 2.23674,4.451216 3.7122,6.216006 5.95099,7.117945 1.85614,0.747786 2.49952,1.386092 1.70896,1.695488 -1.88792,0.738852 -8.63323,-4.406657 -10.69909,-8.161561 -4.35011,-7.906756 -9.78939,-10.580227 -15.12316,-7.433224 -5.17072,3.050798 -5.57262,4.904423 -5.85467,27.002257 -0.14066,11.020776 -0.4426,20.224627 -0.67097,20.452997 -0.22837,0.22837 -0.69957,-0.0449 -1.04712,-0.60722 z M 163.71189,97.5 c 0.6407,-3.791495 3.82503,-11.796314 5.78056,-14.53125 2.50179,-3.498908 0.53637,3.60714 -3.04606,11.01315 -2.55489,5.281763 -3.16522,6.06698 -2.7345,3.5181 z m 28.80994,-11.289148 c -1.6208,-0.495088 -3.19668,-1.55101 -3.50193,-2.346494 -0.69944,-1.822704 3.77943,-19.28051 5.31094,-20.701092 1.5725,-1.458597 5.60461,-2.293838 6.97747,-1.445365 1.80569,1.115979 4.07545,8.52683 4.64224,15.157099 0.45581,5.331979 0.28179,6.308774 -1.39204,7.813824 -2.28354,2.053267 -7.95128,2.769948 -12.03668,1.522028 z m 9.20123,-3.387403 c 1.16436,-1.053739 1.71444,-2.870491 1.71444,-5.662348 0,-4.4857 -3.05759,-11.536101 -5.00293,-11.536101 -0.66815,0 -2.40377,2.487577 -3.85693,5.527949 -3.07855,6.441048 -2.76952,9.634693 1.1374,11.754566 3.30936,1.795645 3.94072,1.786811 6.00802,-0.08407 z M 502.1821,76.171875 c -1.29663,-8.176073 -1.82699,-29.019421 -0.75524,-29.681798 0.59022,-0.364779 1.08116,-1.798492 1.09095,-3.18603 0.01,-1.387539 1.26419,-4.507419 2.78756,-6.933068 2.2733,-3.619812 3.48833,-4.591719 6.77906,-5.422636 2.20512,-0.5568 4.89849,-1.383431 5.98526,-1.83696 3.54701,-1.480228 23.87274,-3.114155 32.61122,-2.621522 14.56486,0.821098 20.74202,5.123269 19.5984,13.649584 -0.38161,2.845146 -1.31349,4.626579 -3.29029,6.289947 -1.51684,1.276334 -3.20428,2.320608 -3.74988,2.320608 -0.5456,0 0.16313,-0.908623 1.57495,-2.019161 2.24408,-1.765197 2.49503,-2.46886 1.99522,-5.5945 -0.96539,-6.037234 -2.37294,-8.045669 -6.83204,-9.748615 -3.57636,-1.365825 -6.54649,-1.518697 -20.74745,-1.067872 -20.34429,0.645851 -21.28722,0.763773 -25.94857,3.245144 -9.70739,5.167517 -11.06635,9.353813 -10.16153,31.302613 0.58906,14.289059 0.22735,18.650067 -0.93762,11.304266 z M 103.125,75.9375 c -1.04908,-0.677966 -0.53279,-0.912435 2.0327,-0.923144 1.89142,-0.0079 4.21173,-0.259734 5.15625,-0.559639 1.57145,-0.498974 1.56275,-0.419357 -0.10251,0.9375 -2.052,1.67197 -4.99285,1.89826 -7.08644,0.545283 z M 223.70988,72.947584 C 222.89109,70.72485 221.3971,65.953125 220.3899,62.34375 213.66113,38.230841 207.17431,31.062984 195.54573,34.891267 c -3.43889,1.132127 -4.03422,1.14312 -3.62123,0.06687 C 192.55424,33.317059 199.00219,30 201.5625,30 c 2.46164,0 8.41242,3.004312 10.47986,5.290866 2.10894,2.332441 5.29995,9.754564 7.39877,17.209134 5.43386,19.299963 6.5601,23.686268 6.17946,24.06691 -0.23211,0.232105 -1.09193,-1.396593 -1.91071,-3.619326 z m -49.76324,-1.812067 c 2.08241,-5.902175 6.27811,-14.973274 6.72086,-14.530515 0.21668,0.216679 -0.83138,3.284038 -2.32904,6.816355 -1.49765,3.532316 -3.01014,7.582549 -3.36109,9.000518 C 174.62642,73.839844 173.94415,75 173.46123,75 c -0.48294,0 -0.2645,-1.739018 0.48541,-3.864483 z m -59.86852,-1.432392 c -0.35234,-0.352343 -0.64062,-3.358915 -0.64062,-6.681271 0,-5.002464 -0.52218,-7.029947 -3.03826,-11.796876 -1.67105,-3.165925 -5.06174,-7.74803 -7.53487,-10.182456 C 97.320675,35.585606 89.414776,32.8125 79.401248,32.8125 c -5.22884,0 -6.406981,-0.244267 -5.509047,-1.142201 1.988323,-1.988323 13.810313,-2.092645 20.210852,-0.178346 11.343877,3.392773 21.998517,17.931921 22.411427,30.582273 0.18896,5.789166 -0.89184,9.173421 -2.43636,7.628899 z M 458.4375,64.742828 c 0,-1.06168 0.42187,-1.930328 0.9375,-1.930328 0.51562,0 0.9375,0.607914 0.9375,1.350922 0,0.743007 -0.42188,1.611654 -0.9375,1.930328 -0.51563,0.318674 -0.9375,-0.289241 -0.9375,-1.350922 z m -2.30131,-13.518811 c -4.78116,-9.730302 -8.62584,-13.415303 -18.1179,-17.365373 -6.88137,-2.863646 -8.19841,-3.113493 -13.52417,-2.565587 -7.7295,0.795198 -5.2437,-0.837798 3.36997,-2.213838 5.95991,-0.9521 6.62597,-0.867488 11.93842,1.516604 7.29643,3.274444 15.86981,12.385008 18.65176,19.820454 3.163,8.453848 1.691,8.966766 -2.31808,0.807741 z M 397.5,48.028183 c 0,-1.133606 1.26559,-3.438851 2.81242,-5.122767 l 2.81241,-3.061666 -1.48818,3.75 c -0.81849,2.0625 -2.08408,4.367746 -2.81241,5.122768 C 397.66887,49.914226 397.5,49.826448 397.5,48.028183 Z M 184.6875,46.048157 c 0,-0.515625 0.42187,-1.198233 0.9375,-1.516907 0.51562,-0.318674 0.9375,-0.157532 0.9375,0.358093 0,0.515625 -0.42188,1.198233 -0.9375,1.516907 -0.51563,0.318674 -0.9375,0.157532 -0.9375,-0.358093 z M 65.15625,34.6875 c 0.318674,-0.515625 1.001282,-0.9375 1.516907,-0.9375 0.515625,0 0.676767,0.421875 0.358093,0.9375 -0.318674,0.515625 -1.001282,0.9375 -1.516907,0.9375 -0.515625,0 -0.676767,-0.421875 -0.358093,-0.9375 z"
       id="path4754"
       inkscape:connector-curvature="0" />
  </g>
  <path
     style="opacity:1;fill:#2f3db3;fill-opacity:1;fill-rule:evenodd;stroke:#63616a;stroke-width:8.37014866;stroke-linecap:round;stroke-linejoin:bevel;stroke-miterlimit:4;stroke-dasharray:none;stroke-opacity:1"
     d="m 71.668611,142.50305 c -10.842874,-2.44717 -14.08291,-5.43783 -18.937673,-17.48006 l -3.447607,-8.55178 0.05248,-17.707665 c 0.09699,-32.728744 2.901783,-46.087059 11.675166,-55.605055 5.414448,-5.873982 11.480243,-7.744708 23.282444,-7.180437 7.017931,0.335531 9.20916,0.856226 13.032555,3.096885 7.714824,4.521188 12.880134,13.112874 13.931634,23.173099 0.76473,7.316509 -1.07855,10.535022 -6.03352,10.535022 -3.71284,0 -7.277105,-2.755947 -7.277105,-5.626771 0,-2.84834 -6.776749,-12.796729 -9.772172,-14.345722 -6.375532,-3.296915 -13.815205,-0.550587 -19.812635,7.313761 l -3.528068,4.626308 -0.10385,23.238354 c -0.08438,18.882851 0.198103,24.322411 1.507188,29.022231 0.886071,3.18113 2.142087,6.42761 2.791147,7.2144 1.885024,2.28503 9.623576,5.31626 13.226319,5.18082 5.063226,-0.19035 7.429865,-2.3678 11.888774,-10.93838 2.253334,-4.3312 5.150896,-8.56546 6.439022,-9.40948 2.1688,-1.42104 2.53207,-1.39271 4.91045,0.38302 4.89632,3.65562 4.71242,11.48058 -0.49466,21.04768 -3.50645,6.44252 -6.721913,8.89271 -14.013735,10.67851 -9.665204,2.36705 -13.553593,2.63584 -19.316152,1.33526 z"
     id="path4762"
     inkscape:connector-curvature="0" />
  <path
     style="opacity:1;fill:#2f3db3;fill-opacity:1;fill-rule:evenodd;stroke:#63616a;stroke-width:8.37014866;stroke-linecap:round;stroke-linejoin:bevel;stroke-miterlimit:4;stroke-dasharray:none;stroke-opacity:1"
     d="m 69.343404,137.0581 c -6.580822,-2.27145 -8.604094,-4.55505 -12.665697,-14.29535 l -3.186764,-7.64231 0.598242,-21.898647 c 0.360147,-13.183185 1.178255,-24.755051 2.055596,-29.075712 1.732083,-8.530033 5.715337,-16.012315 10.650881,-20.006982 3.290101,-2.662901 4.329829,-2.933288 12.684553,-3.298695 11.031698,-0.482488 14.717537,0.586821 19.905585,5.774869 4.1214,4.1214 6.77008,10.371905 7.17745,16.937736 0.20504,3.304827 -0.065,3.920248 -1.83075,4.172311 -1.57226,0.224442 -2.23367,-0.361702 -2.7454,-2.432977 -0.88513,-3.582683 -5.540023,-10.809672 -9.254855,-14.368707 -4.033034,-3.863891 -12.409632,-4.623102 -18.232498,-1.652498 -4.451573,2.271024 -12.69749,10.961675 -13.523539,14.252917 -0.301681,1.201992 -0.380672,13.740874 -0.175535,27.864183 0.31523,21.703072 0.64348,26.398732 2.120159,30.329152 2.093075,5.57105 5.815678,8.61581 13.429632,10.98424 9.652283,3.00247 14.146125,0.50642 21.711159,-12.05922 2.150727,-3.57239 4.340587,-6.49525 4.866367,-6.49525 2.28668,0 1.51272,6.72662 -1.4714,12.78824 -3.49064,7.09049 -5.594004,8.53947 -15.418796,10.62181 -8.388276,1.77787 -10.259651,1.72192 -16.69439,-0.49911 z"
     id="path4764"
     inkscape:connector-curvature="0" />
  <path
     style="opacity:1;fill:#2f3db3;fill-opacity:1;fill-rule:evenodd;stroke:#63616a;stroke-width:8.37014866;stroke-linecap:round;stroke-linejoin:bevel;stroke-miterlimit:4;stroke-dasharray:none;stroke-opacity:1"
     d="m 415.33132,135.96537 c -3.68397,-2.155 -12.32346,-11.11813 -14.18758,-14.71905 -1.02695,-1.98376 -2.29744,-6.58248 -2.8233,-10.21936 -2.04339,-14.132133 -0.49662,-51.512004 2.48435,-60.038001 3.41057,-9.754721 14.14059,-16.416384 26.69244,-16.571835 5.04295,-0.06246 7.57274,0.497165 12.47082,2.758703 9.97785,4.606967 17.41337,15.221421 16.47771,23.522514 -1.30834,11.607604 -9.27944,12.344196 -14.83982,1.371315 -6.50258,-12.832215 -20.94073,-14.321605 -26.83484,-2.768191 -1.9586,3.839168 -2.10593,5.611552 -2.20787,26.559871 -0.12269,25.210784 0.45045,28.064804 6.35929,31.667334 7.00402,4.27023 13.6512,1.80023 19.92463,-7.4037 4.45257,-6.5325 6.78486,-7.35829 11.88924,-4.20962 3.15723,1.94757 3.26279,2.20471 2.67258,6.51071 -0.81913,5.97626 -4.4435,13.68104 -8.20508,17.44263 -1.68143,1.68142 -5.14885,3.7795 -7.7054,4.66238 -6.03902,2.08554 -19.55849,2.96031 -22.16717,1.4343 z"
     id="path4766"
     inkscape:connector-curvature="0" />
  <path
     style="opacity:1;fill:#2f3db3;fill-opacity:1;fill-rule:evenodd;stroke:#63616a;stroke-width:8.37014866;stroke-linecap:round;stroke-linejoin:bevel;stroke-miterlimit:4;stroke-dasharray:none;stroke-opacity:1"
     d="m 411.72458,126.64813 c -8.41921,-8.62353 -8.90628,-10.28783 -9.34635,-31.935763 -0.56154,-27.6236 1.48012,-43.052451 6.42061,-48.520574 2.74163,-3.034426 10.43412,-6.426823 16.07719,-7.090055 9.74228,-1.145013 20.61436,4.633328 25.04005,13.308389 2.02142,3.962318 2.47586,9.216901 0.99898,11.550892 -1.14149,1.803934 -3.40647,0.08267 -5.58756,-4.246259 -6.45362,-12.808792 -22.60451,-16.558209 -31.09893,-7.219591 -5.25776,5.780301 -5.6377,7.681908 -6.02295,30.145535 -0.4391,25.603406 0.36773,30.817136 5.57483,36.024236 9.01098,9.01098 20.29317,6.22336 29.83084,-7.37065 1.39134,-1.98308 2.5041,-2.66005 3.64977,-2.22041 2.47767,0.95077 2.00171,4.56114 -1.51496,11.49186 -4.10537,8.09094 -8.66319,10.60962 -20.44933,11.30044 l -8.01891,0.47001 -5.55328,-5.68806 z"
     id="path4768"
     inkscape:connector-curvature="0" />
  <path
     style="opacity:1;fill:#2f3db3;fill-opacity:1;fill-rule:evenodd;stroke:#63616a;stroke-width:8.37014866;stroke-linecap:round;stroke-linejoin:bevel;stroke-miterlimit:4;stroke-dasharray:none;stroke-opacity:1"
     d="m 158.44243,136.80252 c -3.37837,-4.82329 -1.60203,-11.99284 10.55652,-42.607454 21.44286,-53.992079 23.36245,-57.423109 32.127,-57.423109 2.21755,0 5.01338,0.687448 6.21295,1.527662 2.95645,2.070772 6.26795,8.879711 9.43403,19.397708 1.4502,4.817702 3.68153,12.044254 4.95851,16.059005 3.88739,12.221666 13.05773,52.173168 13.05773,56.887288 0,6.87308 -4.48535,10.15704 -9.90859,7.25462 -2.21842,-1.18727 -11.80366,-20.69112 -13.70989,-27.89661 -2.19893,-8.31186 -10.79228,-13.951366 -18.93194,-12.424356 -1.82025,0.341482 -4.99917,2.147343 -7.06426,4.013026 -3.25512,2.94081 -4.3805,5.21843 -8.45806,17.11801 -5.31723,15.5173 -8.53831,20.25732 -13.76588,20.25732 -1.98959,0 -3.50098,-0.7252 -4.50812,-2.16311 z m 47.20294,-50.241971 c 2.78984,-2.259073 2.93171,-7.471295 0.47611,-17.491577 -1.9422,-7.925348 -4.43218,-10.609152 -8.82099,-9.507632 -4.31298,1.082489 -6.04025,3.907252 -8.25817,13.505361 -2.94585,12.748241 1.25194,14.404567 12.13744,14.538827 3.48168,0.04294 2.9227,0.204396 4.46561,-1.044979 z"
     id="path4770"
     inkscape:connector-curvature="0"
     sodipodi:nodetypes="ssssssssssssssssssss" />
  <path
     style="opacity:1;fill:#2f3db3;fill-opacity:1;fill-rule:evenodd;stroke:#63616a;stroke-width:8.37014866;stroke-linecap:round;stroke-linejoin:bevel;stroke-miterlimit:4;stroke-dasharray:none;stroke-opacity:1"
     d="m 222.77973,125.58312 c -2.33354,-4.68388 -5.45668,-11.72978 -6.94033,-15.65757 -2.94772,-7.80379 -6.74687,-12.341423 -12.77562,-15.258968 l -3.79908,-1.838521 3.59878,-0.614906 c 7.04765,-1.204201 10.07392,-6.128056 9.21713,-14.996641 -1.34918,-13.965379 -6.00238,-21.952369 -12.78937,-21.952369 -4.56395,0 -8.84758,2.251873 -10.6689,5.608555 -2.57951,4.754044 -1.60496,0.593987 1.46244,-6.242666 4.41859,-9.848212 7.10672,-12.991712 11.10973,-12.991712 4.62737,0 6.5507,3.13197 11.79231,19.2027 7.07435,21.689884 16.93599,62.270888 16.93599,69.692198 0,6.07884 -2.51761,4.33416 -7.14308,-4.9501 z"
     id="path4772"
     inkscape:connector-curvature="0" />
  <path
     style="opacity:1;fill:#2f3db3;fill-opacity:1;fill-rule:evenodd;stroke:#63616a;stroke-width:8.37014866;stroke-linecap:round;stroke-linejoin:bevel;stroke-miterlimit:4;stroke-dasharray:none;stroke-opacity:1"
     d="m 161.79369,130.86945 c 0,-1.77639 0.69566,-5.60865 1.54592,-8.51613 1.39914,-4.78445 20.63187,-54.362608 21.46356,-55.328793 1.08335,-1.258551 0.99567,1.052277 -0.21736,5.728628 -3.27691,12.632844 -0.0296,19.255669 9.61501,19.60984 2.45304,0.09008 2.10356,0.284384 -1.64005,0.911808 -5.17785,0.867799 -10.43817,4.471937 -13.86106,9.496977 -1.14004,1.67366 -3.89063,7.99903 -6.11241,14.05637 -2.22179,6.05735 -4.89586,12.42135 -5.94239,14.14224 -2.54242,4.18066 -4.85122,4.13262 -4.85122,-0.10094 z"
     id="path4774"
     inkscape:connector-curvature="0" />
  <path
     style="opacity:1;fill:#2f3db3;fill-opacity:1;fill-rule:evenodd;stroke:#63616a;stroke-width:8.37014866;stroke-linecap:round;stroke-linejoin:bevel;stroke-miterlimit:4;stroke-dasharray:none;stroke-opacity:1"
     d="m 199.45416,50.689778 c -2.05371,-0.532364 -1.76189,-2.148104 0.65543,-3.628921 1.33691,-0.81897 2.00344,-0.637282 3.10521,0.846443 2.45182,3.301791 1.35977,4.109792 -3.76064,2.782478 z"
     id="path4776"
     inkscape:connector-curvature="0" />
  <path
     style="opacity:1;fill:#2f3db3;fill-opacity:1;fill-rule:evenodd;stroke:#63616a;stroke-width:8.37014866;stroke-linecap:round;stroke-linejoin:bevel;stroke-miterlimit:4;stroke-dasharray:none;stroke-opacity:1"
     d="m 219.31218,106.66951 c -0.58955,-1.77559 -2.80515,-5.51293 -4.92357,-8.305193 -2.3079,-3.042018 -3.44591,-5.327614 -2.83931,-5.702513 0.5568,-0.34412 1.76824,-1.868608 2.69208,-3.387752 l 1.67972,-2.76208 2.73022,11.194208 c 2.58598,10.60277 2.9801,15.94843 0.66086,8.96333 z"
     id="path4778"
     inkscape:connector-curvature="0" />
  <path
     style="opacity:1;fill:#2f3db3;fill-opacity:1;fill-rule:evenodd;stroke:#63616a;stroke-width:8.37014866;stroke-linecap:round;stroke-linejoin:bevel;stroke-miterlimit:4;stroke-dasharray:none;stroke-opacity:1"
     d=""
     id="path4780"
     inkscape:connector-curvature="0" />
  <path
     style="opacity:1;fill:#2f3db3;fill-opacity:1;fill-rule:evenodd;stroke:#63616a;stroke-width:8.37014866;stroke-linecap:round;stroke-linejoin:bevel;stroke-miterlimit:4;stroke-dasharray:none;stroke-opacity:1"
     d="m 178.33933,96.016493 c 0,-0.306726 0.49972,-1.991172 1.11049,-3.743212 0.9565,-2.743837 1.24146,-2.951471 2.05516,-1.497478 0.70972,1.268198 0.43352,2.199212 -1.11048,3.743213 -1.13034,1.130339 -2.05517,1.804204 -2.05517,1.497477 z"
     id="path4782"
     inkscape:connector-curvature="0" />
  <path
     style="opacity:1;fill:#2f3db3;fill-opacity:1;fill-rule:evenodd;stroke:#63616a;stroke-width:8.37014866;stroke-linecap:round;stroke-linejoin:bevel;stroke-miterlimit:4;stroke-dasharray:none;stroke-opacity:1"
     d=""
     id="path4784"
     inkscape:connector-curvature="0" />
  <path
     style="opacity:1;fill:#2f3db3;fill-opacity:1;fill-rule:evenodd;stroke:#63616a;stroke-width:5.91858864;stroke-linecap:round;stroke-linejoin:bevel;stroke-miterlimit:4;stroke-dasharray:none;stroke-opacity:1"
     d="m 200.64444,49.858424 c 0,-0.545433 0.3097,-1.183097 0.68821,-1.417032 0.37851,-0.233935 0.68821,0.212328 0.68821,0.991696 0,0.779368 -0.3097,1.417032 -0.68821,1.417032 -0.37851,0 -0.68821,-0.446263 -0.68821,-0.991696 z"
     id="path4786"
     inkscape:connector-curvature="0" />
  <path
     style="opacity:1;fill:#2f3db3;fill-opacity:1;fill-rule:evenodd;stroke:#63616a;stroke-width:5.91858864;stroke-linecap:round;stroke-linejoin:bevel;stroke-miterlimit:4;stroke-dasharray:none;stroke-opacity:1"
     d="m 202.07519,49.072249 c 0.033,-0.801723 0.1961,-0.964798 0.41579,-0.415792 0.19881,0.4968 0.17436,1.090379 -0.0543,1.319065 -0.22869,0.228686 -0.39134,-0.177787 -0.36146,-0.903273 z"
     id="path4788"
     inkscape:connector-curvature="0" />
  <path
     style="opacity:1;fill:#2f3db3;fill-opacity:1;fill-rule:evenodd;stroke:#63616a;stroke-width:5.91858864;stroke-linecap:round;stroke-linejoin:bevel;stroke-miterlimit:4;stroke-dasharray:none;stroke-opacity:1"
     d="m 200.64444,49.51432 c 0,-0.356176 0.3097,-0.838993 0.68821,-1.072928 0.37851,-0.233935 0.68821,0.05748 0.68821,0.647592 0,0.59011 -0.3097,1.072928 -0.68821,1.072928 -0.37851,0 -0.68821,-0.291417 -0.68821,-0.647592 z"
     id="path4790"
     inkscape:connector-curvature="0" />
</svg>
