<?xml version="1.0" encoding="UTF-8" standalone="no"?>
<!-- Created with Inkscape (http://www.inkscape.org/) -->

<svg
   xmlns:dc="http://purl.org/dc/elements/1.1/"
   xmlns:cc="http://creativecommons.org/ns#"
   xmlns:rdf="http://www.w3.org/1999/02/22-rdf-syntax-ns#"
   xmlns:svg="http://www.w3.org/2000/svg"
   xmlns="http://www.w3.org/2000/svg"
   xmlns:sodipodi="http://sodipodi.sourceforge.net/DTD/sodipodi-0.dtd"
   xmlns:inkscape="http://www.inkscape.org/namespaces/inkscape"
   id="svg4169"
   version="1.1"
   inkscape:version="0.91 r13725"
   width="174.375"
   height="173.4375"
   viewBox="0 0 174.375 173.4375"
   sodipodi:docname="check1.svg">
  <metadata
     id="metadata4175">
    <rdf:RDF>
      <cc:Work
         rdf:about="">
        <dc:format>image/svg+xml</dc:format>
        <dc:type
           rdf:resource="http://purl.org/dc/dcmitype/StillImage" />
        <dc:title />
      </cc:Work>
    </rdf:RDF>
  </metadata>
  <defs
     id="defs4173" />
  <sodipodi:namedview
     pagecolor="#ffffff"
     bordercolor="#666666"
     borderopacity="1"
     objecttolerance="10"
     gridtolerance="10"
     guidetolerance="10"
     inkscape:pageopacity="0"
     inkscape:pageshadow="2"
     inkscape:window-width="1366"
     inkscape:window-height="705"
     id="namedview4171"
     showgrid="false"
     inkscape:zoom="2.1852785"
     inkscape:cx="86.11207"
     inkscape:cy="86.71875"
     inkscape:window-x="-8"
     inkscape:window-y="-8"
     inkscape:window-maximized="1"
     inkscape:current-layer="svg4169" />
  <g
     id="g4179">
    <path
       style="fill:#3c446b;stroke:#3c446b;stroke-width:3.20000005;stroke-miterlimit:4;stroke-dasharray:none;stroke-opacity:1"
       d="m 125.29783,156.59904 c -0.48863,-0.14116 -11.22436,-0.37989 -23.85717,-0.53052 -21.151022,-0.25218 -23.265536,-0.42853 -26.718762,-2.22821 -4.300431,-2.24121 -6.465706,-5.88561 -6.49765,-10.93627 -0.03154,-4.9865 3.117187,-7.78712 11.207402,-9.96837 7.830254,-2.11115 4.359077,-1.92798 37.00901,-1.95303 27.30662,-0.0209 35.38139,0.73596 38.76786,3.63397 2.35405,2.01451 4.35714,6.06753 4.35714,8.81616 0,2.43475 -3.65363,6.63023 -7.48052,8.58991 -4.73833,2.42641 -23.27016,5.59241 -26.78731,4.57636 z m -97.015609,-4.21332 c -6.898965,-4.15825 -8.90625,-6.41313 -8.90625,-10.00484 0,-3.78314 1.515013,-6.30654 4.458185,-7.42553 1.984037,-0.75433 3.519186,-0.46757 7.813258,1.4595 5.881277,2.63935 7.484427,2.476 9.317668,-0.94945 2.812366,-5.25495 21.31304,-14.02695 14.906534,2.51105 -0.838297,2.16402 -3.90329,6.89184 -8.182994,11.31977 -4.73301,4.89695 -5.977781,5.68101 -9.609375,6.05278 -3.551932,0.36363 -5.008077,-0.0768 -9.797026,-2.96328 z M 82.430642,118.3838 c -4.823557,-3.92042 -11.743119,-5.65513 -11.972064,-12.04143 0,-1.83588 0.632812,-3.97077 1.40625,-4.74421 0.773437,-0.77344 1.40625,-1.685161 1.40625,-2.026071 0,-0.7839 3.971667,-4.12872 4.951987,-4.17042 0.403279,-0.0172 2.301717,-0.72916 4.21875,-1.58223 1.917031,-0.85308 3.907388,-1.44095 4.423013,-1.3064 0.515625,0.13455 7.6875,0.1067 15.937512,-0.0619 8.25,-0.16859 22.17188,-0.17566 30.9375,-0.0157 19.06966,0.34798 23.68711,1.68003 26.7698,7.722591 1.97732,3.87589 2.38067,7.88272 0.88645,8.80619 -0.51563,0.31868 -0.9375,1.53151 -0.9375,2.6952 0,1.49215 -1.10533,2.73702 -3.75,4.2234 -2.0625,1.15919 -3.75,2.45737 -3.75,2.88484 -18.58114,-0.88082 -49.10573,1.46006 -70.527948,-0.38386 z m -54.378526,-1.6067 c -9.981703,-6.6962 -12.461589,-12.17126 -7.679082,-16.953768 1.952205,-1.9522 5.187888,1.407388 7.664912,1.951428 1.653844,0.36324 3.909878,3.99769 5.013409,4.72075 3.497559,2.29168 6.318722,-2.80075 8.757979,-5.24001 5.342249,-5.342235 15.959567,-10.93617 15.959567,-3.001052 0,3.237582 -3.609385,10.306672 -8.825626,13.901182 -2.883095,1.98674 -6.6703,7.41945 -11.377085,8.18232 -2.926223,0.46135 -4.265696,-0.04 -9.514074,-3.56085 z M 78.024745,81.858208 c -5.001885,-1.733754 -6.342533,-2.66096 -7.73939,-5.35264 -2.176732,-4.19446 -1.398626,-11.045707 1.625008,-14.308262 4.101799,-4.425914 10.202369,-5.07718 51.070507,-5.452034 31.91882,-0.292768 33.85578,0.09242 37.20884,7.399349 3.10512,6.766609 2.64498,11.338425 -1.41668,14.075579 -1.69362,1.141326 -5.6936,2.934625 -8.88885,3.985108 -5.38011,1.768782 -8.02721,1.904054 -35.80956,1.829944 -28.518367,-0.07603 -30.298798,-0.1836 -36.049875,-2.177044 z m -49.759927,0.868084 c -5.921222,-3.803351 -9.209553,-7.132039 -10.795682,-10.928181 -1.210718,-2.897656 -1.210316,-3.615462 0.0034,-5.962402 2.071208,-4.005276 6.260646,-4.297857 10.454286,-0.32835 9.584652,12.46889 6.126828,7.211326 9.659337,2.306005 6.125417,-8.505894 13.122758,-14.256922 17.180503,-10.572354 1.601113,1.453865 3.48217,3.91705 3.48217,3.91705 -1.90399,3.450966 -5.328948,11.870965 -10.223399,16.196653 -4.894451,4.325687 -7.173213,8.048739 -11.58257,8.048739 -2.812618,0 -5.254754,-0.799456 -8.178045,-2.67716 z M 85.012113,47.606797 c -8.217972,-0.754165 -13.582448,-3.179741 -16.699347,-7.550702 -5.722488,-8.024888 -2.18622,-17.158391 8.261847,-21.338771 3.827661,-1.531486 62.678157,-2.251639 69.843757,-0.854676 5.31371,1.035929 9.0828,3.162224 12.83348,7.239901 3.12502,3.397465 3.49064,5.858616 1.48101,9.96949 -3.46205,7.081945 -4.28417,7.844676 -10.56449,9.801258 -5.29072,1.648278 -9.49122,1.961559 -31.875,2.377289 -14.17969,0.263358 -26.203132,0.567388 -26.718757,0.675625 -0.515625,0.108236 -3.46875,-0.0355 -6.5625,-0.319414 z M 30.190648,48.160635 C 27.560752,47.165174 19.978717,40.31874 18.049793,37.197675 c -2.547282,-4.121588 -2.424106,-6.010919 0.597503,-9.164799 3.333871,-3.479811 6.826187,-3.421323 10.93137,0.183076 4.103636,3.60304 5.873622,3.548541 7.611803,-0.234375 0.769991,-1.675781 1.896868,-3.890625 2.504171,-4.921875 1.77933,-3.021445 2.603294,-4.510508 4.203078,-7.595768 2.984211,-5.7551954 9.351654,-7.5719034 13.926434,-3.97338 2.331463,1.833929 2.535607,2.474048 2.167633,6.796875 -0.511647,6.010652 -6.691127,16.508759 -14.586408,24.780347 -5.17598,5.422678 -5.762422,5.768683 -9.659505,5.699163 -2.281936,-0.04071 -4.781787,-0.313544 -5.555224,-0.606304 z"
       id="path4181"
       inkscape:connector-curvature="0"
       sodipodi:nodetypes="sssssssssssssssssssccsscssssssssccssssssscssssssssssssscssszssssssssssssssssssssssss" />
  </g>
</svg>
