<?xml version="1.0" encoding="UTF-8" standalone="no"?>
<!-- Created with Inkscape (http://www.inkscape.org/) -->

<svg
   xmlns:dc="http://purl.org/dc/elements/1.1/"
   xmlns:cc="http://creativecommons.org/ns#"
   xmlns:rdf="http://www.w3.org/1999/02/22-rdf-syntax-ns#"
   xmlns:svg="http://www.w3.org/2000/svg"
   xmlns="http://www.w3.org/2000/svg"
   xmlns:sodipodi="http://sodipodi.sourceforge.net/DTD/sodipodi-0.dtd"
   xmlns:inkscape="http://www.inkscape.org/namespaces/inkscape"
   id="svg4169"
   version="1.1"
   inkscape:version="0.91 r13725"
   width="174.375"
   height="173.4375"
   viewBox="0 0 174.375 173.4375"
   sodipodi:docname="check.svg">
  <metadata
     id="metadata4175">
    <rdf:RDF>
      <cc:Work
         rdf:about="">
        <dc:format>image/svg+xml</dc:format>
        <dc:type
           rdf:resource="http://purl.org/dc/dcmitype/StillImage" />
        <dc:title></dc:title>
      </cc:Work>
    </rdf:RDF>
  </metadata>
  <defs
     id="defs4173" />
  <sodipodi:namedview
     pagecolor="#ffffff"
     bordercolor="#666666"
     borderopacity="1"
     objecttolerance="10"
     gridtolerance="10"
     guidetolerance="10"
     inkscape:pageopacity="0"
     inkscape:pageshadow="2"
     inkscape:window-width="1366"
     inkscape:window-height="705"
     id="namedview4171"
     showgrid="false"
     inkscape:zoom="3.0904505"
     inkscape:cx="87.1875"
     inkscape:cy="86.71875"
     inkscape:window-x="-8"
     inkscape:window-y="-8"
     inkscape:window-maximized="1"
     inkscape:current-layer="svg4169" />
  <g
     id="g4179">
    <path
       style="fill:#3c446b;stroke:#3c446b;stroke-opacity:1;stroke-width:3.2;stroke-miterlimit:4;stroke-dasharray:none"
       d="M 128.85717,165.33563 C 128.36854,165.19447 117.63281,164.95574 105,164.80511 83.84899,164.55293 81.734476,164.37658 78.28125,162.5769 c -4.300431,-2.24121 -6.465706,-5.88561 -6.49765,-10.93627 -0.03154,-4.9865 3.117187,-7.78712 11.207402,-9.96837 7.830254,-2.11115 4.359077,-1.92798 37.008998,-1.95303 27.30662,-0.0209 35.38139,0.73596 38.76786,3.63397 2.35405,2.01451 4.35714,6.06753 4.35714,8.81616 0,2.43475 -3.65363,6.63023 -7.48052,8.58991 -4.73833,2.42641 -23.27016,5.59241 -26.78731,4.57636 z m 6.55176,-4.14522 c 6.1546,0.0301 12.69366,-0.42452 14.53125,-1.01025 4.75886,-1.51689 7.92032,-2.99834 8.71734,-4.08492 1.53882,-2.09787 0.62863,-5.82956 -2.04715,-8.39313 -2.67092,-2.5589 -3.23493,-2.67845 -16.64063,-3.52714 -17.28643,-1.09439 -53.14265,-0.40329 -57.00099,1.09864 -3.183265,1.23914 -6.946961,5.36421 -6.997535,7.66941 -0.05899,2.6887 3.106089,5.51028 7.734584,6.89516 3.015019,0.90211 4.271688,0.99409 3.830583,0.28037 -0.454533,-0.73545 -0.104492,-0.83108 1.137951,-0.31088 3.135814,1.31295 13.631697,2.02018 24.763167,1.66858 5.92969,-0.18731 15.81683,-0.31592 21.97143,-0.28584 z M 30.46875,157.02684 c -6.898965,-4.15825 -8.90625,-6.41313 -8.90625,-10.00484 0,-3.78314 1.515013,-6.30654 4.458185,-7.42553 1.984037,-0.75433 3.519186,-0.46757 7.813258,1.4595 5.881277,2.63935 7.484427,2.476 9.317668,-0.94945 2.812366,-5.25495 12.160889,-1.21394 12.160889,5.2567 0,2.32071 -1.157645,4.14619 -5.437349,8.57412 -4.73301,4.89695 -5.977781,5.68101 -9.609375,6.05278 -3.551932,0.36363 -5.008077,-0.0768 -9.797026,-2.96328 z m 13.087638,-1.16747 c 1.662466,-1.41796 3.917481,-3.18741 5.011145,-3.9321 2.537648,-1.7279 3.644311,-6.37622 1.920344,-8.06602 -1.056358,-1.03542 -2.054986,-0.86993 -5.956627,0.9871 -5.786265,2.75404 -9.470643,2.88433 -13.125,0.46415 -5.372698,-3.5582 -8.414365,-1.64404 -5.706978,3.59147 1.985178,3.83891 8.986845,8.41383 14.489464,9.46747 0.189742,0.0363 1.705186,-1.0941 3.367652,-2.51207 z M 100.04135,132.1875 C 92.931282,131.92969 86.814095,131.29687 86.447602,130.78125 86.081108,130.26562 84.120435,129 82.090551,127.96875 75.815122,124.78062 72.1875,120.72942 72.1875,116.90939 c 0,-1.83588 0.632812,-3.97077 1.40625,-4.74421 C 74.367187,111.39174 75,110.48002 75,110.13911 c 0,-0.7839 3.971667,-4.12872 4.951987,-4.17042 0.403279,-0.0172 2.301717,-0.72916 4.21875,-1.58223 1.917031,-0.85308 3.907388,-1.44095 4.423013,-1.3064 0.515625,0.13455 7.6875,0.1067 15.9375,-0.0619 8.25,-0.16859 22.17188,-0.17566 30.9375,-0.0157 19.06966,0.34798 23.68711,1.68003 26.7698,7.72259 1.97732,3.87589 2.38067,7.88272 0.88645,8.80619 -0.51563,0.31868 -0.9375,1.53151 -0.9375,2.6952 0,1.49215 -1.10533,2.73702 -3.75,4.2234 -2.0625,1.15919 -3.75,2.45737 -3.75,2.88484 0,1.62522 -3.74353,2.13988 -18.28125,2.51331 -8.25,0.21191 -16.89844,0.48046 -19.21875,0.59677 -2.32031,0.11632 -10.03608,5.4e-4 -17.14615,-0.25727 z m 46.1326,-6.98644 c 5.32649,-0.69452 12.28593,-4.17158 13.20065,-6.59527 1.39859,-3.7058 -2.69491,-8.82938 -8.55639,-10.70949 -3.42888,-1.09983 -46.92096,-1.56978 -54.72446,-0.59132 -2.0625,0.25862 -5.716928,0.65559 -8.120952,0.88216 -2.404024,0.22658 -5.462618,1.12723 -6.796875,2.00148 -2.036666,1.33448 -2.42362,2.28676 -2.411567,5.93483 0.0079,2.38991 0.378768,4.92048 0.824162,5.6235 0.445393,0.703 3.919401,2.01121 7.720019,2.90711 5.808898,1.36931 10.720269,1.58575 30.816463,1.35804 13.14844,-0.14898 25.77047,-0.51395 28.04895,-0.81104 z M 31.611468,123.24865 c -9.981703,-6.6962 -12.461589,-12.17126 -7.679082,-16.95377 1.952205,-1.9522 2.89985,-2.25347 5.376874,-1.70943 1.653844,0.36324 3.909878,1.25204 5.013409,1.9751 3.497559,2.29168 5.861115,2.23294 8.300372,-0.20632 5.342249,-5.34224 15.501959,-0.4112 15.501959,7.52392 0,3.23758 -1.570948,6.12185 -3.334335,6.12185 -1.252253,0 -8.626182,4.29725 -9.790665,5.70563 -0.257813,0.31181 -2.001319,0.80855 -3.874458,1.10387 -2.926223,0.46135 -4.265696,-0.04 -9.514074,-3.56085 z m 13.864742,-2.89069 c 8.984543,-4.71213 11.034524,-8.29034 6.464934,-11.28446 -2.362784,-1.54816 -2.595704,-1.50574 -7.976236,1.45222 l -5.54238,3.04693 -5.383139,-3.37743 -5.383139,-3.37744 -1.69831,2.07871 c -3.107064,3.803 -0.759505,8.20685 6.371927,11.95328 4.897459,2.57283 7.487802,2.47593 13.146343,-0.49181 z M 80.668882,94.255659 c -5.001885,-1.733754 -6.342533,-2.66096 -7.73939,-5.35264 -2.176732,-4.19446 -1.398626,-11.045707 1.625008,-14.308262 4.101799,-4.425914 10.202369,-5.07718 51.0705,-5.452034 31.91882,-0.292768 33.85578,0.09242 37.20884,7.399349 3.10512,6.766609 2.64498,11.338425 -1.41668,14.075579 -1.69362,1.141326 -5.6936,2.934625 -8.88885,3.985108 -5.38011,1.768782 -8.02721,1.904054 -35.80956,1.829944 -28.51836,-0.07603 -30.298791,-0.1836 -36.049867,-2.177044 z m 61.104208,-5.301163 c 13.73503,-1.377328 16.91673,-2.934682 16.48544,-8.069189 -0.23591,-2.808549 -0.89975,-3.806941 -3.57103,-5.37071 -3.11512,-1.82359 -4.56289,-1.910031 -28.59375,-1.707229 -26.120297,0.220435 -40.245158,1.727969 -43.119269,4.602079 -0.702929,0.70293 -1.926156,1.278053 -2.718282,1.278053 -0.792126,0 -1.933637,0.92194 -2.536691,2.048756 -0.960513,1.794736 -0.730291,2.375929 1.856806,4.6875 1.854718,1.65719 4.081135,2.673506 5.985352,2.732194 1.667646,0.05139 4.086771,0.407167 5.375834,0.790597 3.330787,0.990739 37.76363,0.318786 50.83559,-0.992051 z M 31.82417,89.19784 c -5.921222,-3.803351 -9.209553,-7.132039 -10.795682,-10.928181 -1.210718,-2.897656 -1.210316,-3.615462 0.0034,-5.962402 2.071208,-4.005276 5.803038,-5.213072 10.911894,-3.531603 7.296614,2.401523 10.251401,2.745488 11.947374,1.39079 5.05378,-4.036827 9.00429,-4.189556 13.062035,-0.504988 1.601113,1.453865 2.109369,2.949003 2.109348,6.205088 -2.4e-5,3.778811 -0.390816,4.601516 -3.28125,6.907799 C 53.97655,84.214293 52.5,85.923197 52.5,86.571906 c 0,1.87099 -8.088428,5.303094 -12.497785,5.303094 -2.812618,0 -5.254754,-0.799456 -8.178045,-2.67716 z m 13.804683,-2.752761 c 3.167757,-1.706457 8.289357,-7.59146 9.255288,-10.634839 0.710563,-2.238787 -1.081433,-4.641537 -2.932067,-3.931382 -0.741586,0.284573 -2.777928,1.946996 -4.525206,3.694274 -4.643898,4.643898 -8.847515,4.595311 -15.793295,-0.182544 -2.552899,-1.756085 -5.019507,-2.959343 -5.481353,-2.673907 -1.361087,0.841198 -0.960644,4.921169 0.611537,6.230731 0.79819,0.664861 2.23498,1.983977 3.192864,2.931369 3.452294,3.414478 8.057809,6.154405 10.355879,6.160951 1.289062,0.0037 3.681422,-0.713922 5.316353,-1.594653 z M 87.65625,60.004248 C 79.438278,59.250083 74.073802,56.824507 70.956903,52.453546 65.234415,44.428658 68.770683,35.295155 79.21875,31.114775 c 3.827661,-1.531486 62.67815,-2.251639 69.84375,-0.854676 5.31371,1.035929 9.0828,3.162224 12.83348,7.239901 3.12502,3.397465 3.49064,5.858616 1.48101,9.96949 -3.46205,7.081945 -4.28417,7.844676 -10.56449,9.801258 -5.29072,1.648278 -9.49122,1.961559 -31.875,2.377289 -14.17969,0.263358 -26.203125,0.567388 -26.71875,0.675625 -0.515625,0.108236 -3.46875,-0.0355 -6.5625,-0.319414 z m 42.1875,-5.002436 c 19.68684,-1.227718 23.03433,-1.714865 26.24648,-3.819551 5.04247,-3.303949 2.3738,-11.92883 -4.21523,-13.623227 -8.45238,-2.173563 -18.84492,-2.800312 -40.78125,-2.459418 -28.691372,0.445868 -25.882222,0.182596 -31.372508,2.940211 -3.554837,1.785492 -4.830966,3.045736 -5.675576,5.60493 -0.909214,2.754945 -0.83469,3.690573 0.450146,5.65148 2.175983,3.320971 5.21952,4.335485 16.441688,5.480575 11.32672,1.155757 22.90734,1.222729 38.90625,0.225001 z M 33.75,54.632183 c -2.629896,-0.995461 -10.211931,-7.841895 -12.140855,-10.96296 -2.547282,-4.121588 -2.424106,-6.010919 0.597503,-9.164799 3.333871,-3.479811 6.826187,-3.421323 10.93137,0.183076 4.103636,3.60304 5.873622,3.548541 7.611803,-0.234375 0.769991,-1.675781 1.896868,-3.890625 2.504171,-4.921875 1.77933,-3.021445 2.603294,-4.510508 4.203078,-7.595768 2.984211,-5.755195 9.351654,-7.571903 13.926434,-3.97338 2.331463,1.833929 2.535607,2.474048 2.167633,6.796875 -0.511647,6.010652 -6.691127,16.508759 -14.586408,24.780347 -5.17598,5.422678 -5.762422,5.768683 -9.659505,5.699163 C 37.023288,55.19778 34.523437,54.924943 33.75,54.632183 Z m 11.893658,-5.647808 c 3.178964,-2.955839 6.831189,-7.869004 8.885414,-11.953125 0.778045,-1.546875 2.327295,-4.407363 3.442778,-6.35664 2.49688,-4.363236 2.548068,-6.388157 0.23364,-9.242625 l -1.79451,-2.213235 -3.658144,3.842677 c -2.011979,2.113471 -4.819901,6.121284 -6.239828,8.90625 -1.419926,2.784965 -3.643824,6.024353 -4.941993,7.19864 l -2.36031,2.135067 -2.988825,-1.847195 c -7.04971,-4.356961 -8.388795,-4.801403 -10.416818,-3.457342 -4.225502,2.800429 -2.361286,7.063517 5.363771,12.265875 6.22752,4.193857 10.51085,4.407405 14.474825,0.721653 z"
       id="path4181"
       inkscape:connector-curvature="0" />
  </g>
</svg>
