<?xml version="1.0" encoding="UTF-8" standalone="no"?>
<!-- Created with Inkscape (http://www.inkscape.org/) -->

<svg
   xmlns:dc="http://purl.org/dc/elements/1.1/"
   xmlns:cc="http://creativecommons.org/ns#"
   xmlns:rdf="http://www.w3.org/1999/02/22-rdf-syntax-ns#"
   xmlns:svg="http://www.w3.org/2000/svg"
   xmlns="http://www.w3.org/2000/svg"
   xmlns:xlink="http://www.w3.org/1999/xlink"
   xmlns:sodipodi="http://sodipodi.sourceforge.net/DTD/sodipodi-0.dtd"
   xmlns:inkscape="http://www.inkscape.org/namespaces/inkscape"
   id="svg4180"
   version="1.1"
   inkscape:version="0.91 r13725"
   width="174.375"
   height="174.375"
   viewBox="0 0 174.375 174.375"
   sodipodi:docname="cut.svg">
  <metadata
     id="metadata4186">
    <rdf:RDF>
      <cc:Work
         rdf:about="">
        <dc:format>image/svg+xml</dc:format>
        <dc:type
           rdf:resource="http://purl.org/dc/dcmitype/StillImage" />
        <dc:title></dc:title>
      </cc:Work>
    </rdf:RDF>
  </metadata>
  <defs
     id="defs4184">
    <linearGradient
       id="linearGradient4748-5"
       inkscape:collect="always">
      <stop
         id="stop4758"
         offset="0"
         style="stop-color:#000000;stop-opacity:1" />
      <stop
         style="stop-color:#001c00;stop-opacity:1"
         offset="0.43068746"
         id="stop4762" />
      <stop
         id="stop4764"
         offset="0.44075963"
         style="stop-color:#394739;stop-opacity:1;" />
      <stop
         id="stop4760"
         offset="1"
         style="stop-color:#737373;stop-opacity:1" />
    </linearGradient>
    <linearGradient
       inkscape:collect="always"
       xlink:href="#linearGradient4748-5"
       id="linearGradient4754"
       x1="83.376724"
       y1="173.24762"
       x2="91.54245"
       y2="2.5670037"
       gradientUnits="userSpaceOnUse" />
  </defs>
  <sodipodi:namedview
     pagecolor="#ffffff"
     bordercolor="#666666"
     borderopacity="1"
     objecttolerance="10"
     gridtolerance="10"
     guidetolerance="10"
     inkscape:pageopacity="0"
     inkscape:pageshadow="2"
     inkscape:window-width="1366"
     inkscape:window-height="705"
     id="namedview4182"
     showgrid="false"
     inkscape:zoom="1.353405"
     inkscape:cx="86.448623"
     inkscape:cy="87.1875"
     inkscape:window-x="-8"
     inkscape:window-y="-8"
     inkscape:window-maximized="1"
     inkscape:current-layer="svg4180" />
  <path
     style="fill:url(#linearGradient4754);fill-opacity:1;stroke-width:0.1;stroke-miterlimit:4;stroke-dasharray:none;fill-rule:evenodd"
     d="m 39.104874,168.77843 c -1.54688,-0.64002 -4.13121,-1.68563 -5.74297,-2.32356 -2.22018,-0.87875 -3.79444,-2.79489 -6.49508,-7.90563 -3.13444,-5.93165 -3.6128,-7.70742 -3.96382,-14.71449 -0.32133,-6.41447 -0.0151,-9.06589 1.56986,-13.59375 3.36738,-9.61957 12.74365,-16.4615 20.57086,-15.0107 4.44465,0.82383 12.038434,4.95353 14.228614,7.73789 1.29685,1.64867 1.90366,1.88637 2.49191,0.9761 1.86274,-2.88246 3.1106,-5.10847 4.07334,-7.26632 0.56759,-1.27217 1.50441,-2.88227 2.08183,-3.578 0.57741,-0.69574 1.83434,-3.58878 2.793186,-6.42897 l 1.743348,-5.16397 -2.481472,-5.320525 C 65.924188,87.502289 65.329448,86.114617 56.644748,65.084746 46.935564,41.574139 47.748284,43.632635 43.691374,32.275635 39.803114,21.390759 39.640704,16.574594 42.938724,9.9563179 c 1.33519,-2.6793644 2.78162,-4.8715724 3.21429,-4.8715724 1.69065,0 4.206,3.582235 7.241184,10.3125005 3.87703,8.597032 8.28952,17.427596 12.32977,24.675164 1.67297,3.001028 3.59265,7.00884 4.265977,8.90625 1.850851,5.21565 14.105059,31.252465 15.245874,32.39328 1.000047,1.000048 9.288439,-12.080127 10.263224,-16.196715 0.317025,-1.338826 1.092825,-3.067042 1.723987,-3.840479 0.631172,-0.773438 1.580625,-2.671875 2.109894,-4.21875 0.52926,-1.546875 2.487796,-5.554688 4.352296,-8.90625 1.8645,-3.351563 3.9084,-7.148438 4.54199,-8.4375 0.6336,-1.289063 1.38007,-2.554688 1.65883,-2.8125 0.27875,-0.257813 2.16524,-4.043461 4.19218,-8.412553 2.02694,-4.369091 4.63148,-9.642529 5.78788,-11.71875 1.15639,-2.07622 3.04468,-5.567916 4.1962,-7.7593225 6.25824,-11.909789 13.14416,5.3465875 7.2221,18.0988495 -0.49219,1.059835 -0.80054,2.32546 -0.68525,2.8125 0.28423,1.200593 -0.44714,2.968878 -6.18254,14.948026 -13.53483,28.269292 -18.28049,38.991089 -18.28049,41.300816 0,0.659551 -0.3436,1.339809 -0.76356,1.511684 -1.03135,0.422101 -8.613545,16.044764 -8.603308,17.726604 0.0047,0.73475 1.411913,2.81649 3.127632,4.62611 1.715716,1.80962 3.623006,4.23103 4.238406,5.38092 1.95202,3.64739 9.34797,6.20146 11.37583,3.92845 0.25781,-0.28898 3.42188,-1.44191 7.03125,-2.56207 l 6.5625,-2.03665 4.72373,2.2693 c 5.98403,2.87476 7.34985,4.42114 10.45392,11.83579 3.57655,8.54329 3.56678,18.91027 -0.0244,25.92406 -1.38131,2.69776 -3.66836,5.62136 -5.08235,6.4969 -1.41398,0.87554 -3.0252,2.12952 -3.58048,2.78664 -1.6122,1.90783 -12.78497,2.66763 -17.9524,1.22085 -5.90777,-1.65408 -12.16619,-8.13826 -15.01664,-15.55835 -1.157,-3.01182 -3.435062,-9.02537 -5.062355,-13.36343 -3.642066,-9.70904 -7.58704,-14.0904 -12.203024,-13.55295 -3.951525,0.46008 -4.72472,1.33249 -4.72472,5.33098 0,2.64903 -0.419616,3.40221 -2.135383,3.83284 -1.694122,0.4252 -3.272998,3.15924 -7.640625,13.23078 -4.971075,11.46297 -8.385025,17.32698 -10.087595,17.32698 -0.33778,0 -2.19315,1.04494 -4.12305,2.32208 -3.24337,2.14636 -11.613634,5.23876 -13.794644,5.09645 -0.51563,-0.0337 -2.20313,-0.58483 -3.75,-1.22485 z M 37.133304,155.241 c 0.26556,-0.42969 -0.11286,-0.78125 -0.84093,-0.78125 -0.72808,0 -1.1065,0.35156 -0.84094,0.78125 0.26556,0.42969 0.64398,0.78125 0.84094,0.78125 0.19695,0 0.57537,-0.35156 0.84093,-0.78125 z m 90.617246,-3.93404 c 0.99201,-0.53091 2.44084,-2.19746 3.21962,-3.70344 3.7751,-7.30026 -0.18986,-14.5709 -8.10648,-14.86509 -3.85782,-0.14336 -4.66062,0.18767 -6.89502,2.8431 -2.09969,2.49535 -2.44453,3.63402 -2.03197,6.70983 0.59613,4.44445 3.8414,8.00007 8.2523,9.0415 1.74123,0.4111 3.29907,0.79065 3.46188,0.84343 0.1628,0.0528 1.10765,-0.33842 2.09967,-0.86933 z m -77.699096,-1.13317 c 1.39227,-0.61628 2.930214,-1.99581 3.417664,-3.06564 1.15021,-2.52442 -0.16181,-10.84789 -2.200354,-13.95911 -1.94789,-2.97285 -6.78406,-4.04096 -10.38806,-2.29429 -5.21313,2.52655 -6.17549,15.47426 -1.39774,18.80546 2.33938,1.63109 7.47956,1.88087 10.56849,0.51358 z m 94.705776,-13.60467 c -0.27163,-1.41796 -0.6748,-2.03685 -0.89593,-1.37532 -0.39876,1.19297 0.31459,3.95345 1.02164,3.95345 0.2025,0 0.14592,-1.16016 -0.12571,-2.57813 z m -33.93361,-9.60937 c 0,-0.51563 -0.42187,-0.9375 -0.9375,-0.9375 -0.51562,0 -0.9375,0.42187 -0.9375,0.9375 0,0.51562 0.42188,0.9375 0.9375,0.9375 0.51563,0 0.9375,-0.42188 0.9375,-0.9375 z m -14.062496,-13.125 c -1.159012,-2.16563 -1.513378,-2.28107 -2.433272,-0.79265 -0.390619,0.63204 -0.259491,0.82931 0.315188,0.47413 0.541256,-0.33451 1.226015,0.0221 1.521675,0.79265 0.295659,0.77048 0.776587,1.40087 1.068722,1.40087 0.292134,0 0.07959,-0.84375 -0.472313,-1.875 z m -13.648322,-0.66459 c 0.407859,-1.06287 -0.110587,-2.15321 -1.540323,-3.23946 -1.747812,-1.32791 -2.210603,-1.38877 -2.448759,-0.32203 -0.351544,1.57461 1.434807,5.16358 2.570087,5.16358 0.442317,0 1.080865,-0.72095 1.418995,-1.60209 z m 2.158216,-7.4773 c -1.462998,-1.463 -1.608081,-1.45634 -2.205806,0.10131 -0.745109,1.94172 1.466467,3.77002 2.866647,2.36985 0.581877,-0.58188 0.345856,-1.46446 -0.660841,-2.47116 z M 108.3749,72.344042 c 15.1182,-30.850872 14.52772,-29.57504 18.85542,-40.740581 3.80101,-9.806674 4.36939,-15.811437 1.85924,-19.642402 l -1.65869,-2.5314861 -1.74112,2.1501961 c -0.95762,1.182608 -1.74113,2.736272 -1.74113,3.452587 0,0.716315 -0.42187,1.30239 -0.9375,1.30239 -0.51563,0 -0.9375,0.516244 -0.9375,1.147207 0,0.630965 -2.32031,5.864876 -5.15625,11.630912 -2.83594,5.766038 -5.15885,10.839638 -5.16202,11.274668 -0.003,0.43503 -0.5598,1.84565 -1.23694,3.134713 -8.82361,16.797474 -12.342805,23.072709 -13.841474,24.681341 -0.984946,1.057217 -1.790812,2.475475 -1.790812,3.151685 0,0.676211 -0.421875,1.229474 -0.9375,1.229474 -0.515625,0 -0.9375,0.589973 -0.9375,1.311051 0,1.406754 -5.175054,11.69627 -6.625449,13.173324 -0.481003,0.489844 -0.874551,1.65 -0.874551,2.578125 0,0.928125 -0.370693,1.6875 -0.823763,1.6875 -1.12548,0 -3.239971,5.296416 -2.556192,6.402797 0.302855,0.490022 3.412141,0.934523 6.909526,0.987753 l 6.358879,0.0968 L 108.3749,72.344052 Z M 78.681926,95.250618 c 1.435746,-1.455647 3.370341,-4.058741 4.299099,-5.784656 L 84.669676,86.327934 76.524515,69.846966 C 72.044676,60.782432 64.640248,45.850282 60.070238,36.664408 55.500228,27.478535 51.761124,19.381555 51.761124,18.671121 c 0,-2.074228 -3.82041,-7.961375 -5.16645,-7.961375 -1.64388,0 -2.68683,6.56389 -1.88866,11.886462 0.62214,4.148749 3.48229,12.570926 8.360694,24.619426 1.34443,3.320425 2.44442,6.412535 2.44442,6.871354 0,1.134868 4.0064,11.371793 8.89052,22.716508 2.21986,5.15625 4.7811,11.484375 5.691635,14.0625 1.54151,4.364681 3.533383,7.03125 5.252201,7.03125 0.399297,0 1.900695,-1.190981 3.336442,-2.646628 z"
     id="path4736"
     inkscape:connector-curvature="0" />
</svg>
