<?xml version="1.0" encoding="UTF-8" standalone="no"?>
<!-- Created with Inkscape (http://www.inkscape.org/) -->

<svg
   xmlns:dc="http://purl.org/dc/elements/1.1/"
   xmlns:cc="http://creativecommons.org/ns#"
   xmlns:rdf="http://www.w3.org/1999/02/22-rdf-syntax-ns#"
   xmlns:svg="http://www.w3.org/2000/svg"
   xmlns="http://www.w3.org/2000/svg"
   xmlns:sodipodi="http://sodipodi.sourceforge.net/DTD/sodipodi-0.dtd"
   xmlns:inkscape="http://www.inkscape.org/namespaces/inkscape"
   id="svg4136"
   version="1.1"
   inkscape:version="0.91 r13725"
   width="174.375"
   height="173.4375"
   viewBox="0 0 174.375 173.4375"
   sodipodi:docname="delete.svg">
  <metadata
     id="metadata4142">
    <rdf:RDF>
      <cc:Work
         rdf:about="">
        <dc:format>image/svg+xml</dc:format>
        <dc:type
           rdf:resource="http://purl.org/dc/dcmitype/StillImage" />
        <dc:title></dc:title>
      </cc:Work>
    </rdf:RDF>
  </metadata>
  <defs
     id="defs4140" />
  <sodipodi:namedview
     pagecolor="#ffffff"
     bordercolor="#666666"
     borderopacity="1"
     objecttolerance="10"
     gridtolerance="10"
     guidetolerance="10"
     inkscape:pageopacity="0"
     inkscape:pageshadow="2"
     inkscape:window-width="1366"
     inkscape:window-height="705"
     id="namedview4138"
     showgrid="false"
     inkscape:zoom="3.0904505"
     inkscape:cx="87.1875"
     inkscape:cy="88.863814"
     inkscape:window-x="-8"
     inkscape:window-y="-8"
     inkscape:window-maximized="1"
     inkscape:current-layer="svg4136" />
  <g
     id="g4146">
    <path
       style="fill:#676c91;stroke:#676c91;stroke-width:1.5;stroke-miterlimit:4;stroke-dasharray:none;stroke-opacity:1"
       d="M 76.875,158.22317 C 69.214098,156.309 59.282411,156.0196 54.168911,149.30934 50.933531,138.71302 48.505154,127.88793 46.343398,117.0271 43.738614,108.12005 42.495551,98.860198 39.75993,89.970703 38.297218,80.68233 36.4603,71.385918 33.585214,62.418784 29.379024,56.993581 24.510882,51.261788 25.149937,43.846427 25.043006,36.032302 29.302733,28.428009 36.491735,25.100247 44.471677,20.225223 53.537134,17.7213 62.676148,16.045798 c 13.723899,-2.560531 27.853009,-2.640704 41.751422,-1.82322 6.5727,2.311945 13.71747,2.754601 20.28824,5.31286 6.30253,0.434841 11.10995,3.997744 16.43825,7.075062 8.35463,5.22405 13.58108,16.061687 9.66366,25.624766 -1.39818,7.25429 -8.42406,11.941573 -8.78613,19.493072 -3.13996,13.949388 -7.0165,27.753907 -9.97043,41.762102 -2.13273,7.70617 -2.02658,15.97441 -5.49991,23.26301 -2.66153,6.23834 -1.87793,15.53433 -9.50091,18.15621 -12.81354,4.12244 -26.870542,4.48913 -40.18534,3.31351 z m 28.00199,-6.32188 c 6.7845,-1.28388 15.4443,-3.45677 16.83904,-11.47392 2.00876,-10.14652 4.97173,-20.08232 7.64209,-30.04846 0.70662,-7.15514 1.98151,-14.060876 4.5536,-20.625342 1.38124,-6.700884 4.46434,-13.325029 3.52298,-20.297999 -7.7633,5.155691 -17.41343,5.849874 -26.20627,8.240192 -7.70495,1.492109 -15.604819,1.569953 -23.34426,2.6458 C 81.417182,77.127265 73.746727,78.608781 66.910635,76.490412 57.185199,74.582931 48.362807,69.976013 39.44575,65.895309 c -0.55861,5.552675 2.784966,13.658704 3.91426,20.201056 2.927605,12.179897 4.45443,24.646575 7.856929,36.716135 2.016708,7.4657 1.606101,16.22074 6.29441,22.61961 5.908463,6.14672 14.880794,6.16032 22.632592,7.9688 8.246281,0.63994 16.618944,0.0791 24.733049,-1.49962 z M 85.3125,142.7724 c -7.226033,-3.04921 -6.127309,-12.03257 -6.504,-18.48285 -0.157522,-12.36459 -0.449836,-24.790491 0.805902,-37.106381 2.844291,-6.772175 13.045452,-5.469632 15.352194,1.194215 1.933014,5.87664 3.931506,12.118766 2.767028,18.366436 -0.584431,8.62649 0.146311,17.36675 -1.187043,25.92226 -1.72137,4.4884 -5.344239,11.8538 -11.234081,10.10632 z m 4.192857,-5.8974 c 3.895916,-5.52314 1.805195,-13.91 2.745217,-20.52381 -0.003,-8.91917 0.831664,-18.002256 -0.964835,-26.79655 -2.860672,-3.190349 -1.4948,7.088931 -1.937378,9.623682 -0.148535,7.671868 -0.72818,15.352278 -1.471024,22.972488 -2.702281,5.33592 -4.468798,-13.50859 -5.188991,-3.51204 0.676182,6.15675 -1.160765,13.53383 2.393331,18.84386 1.503766,0.44305 2.900664,-0.76458 4.42368,-0.60763 z M 86.890419,89.824219 c -1.555407,-0.925466 0.568315,4.421311 0,0 z M 62.861017,137.10937 c -6.476001,-7.31959 -7.495802,-17.59191 -10.349587,-26.59274 -1.851874,-8.78599 -4.978139,-17.618611 -4.509692,-26.683585 0.266411,-8.951809 10.991865,-9.128178 13.760583,-1.639193 4.579665,8.290267 4.469551,18.134198 7.042852,27.101538 1.462192,8.10179 4.528338,15.98187 4.870585,24.23952 -0.73914,6.17942 -6.826357,9.52123 -10.814741,3.57446 z m 5.243924,-5.69736 c -1.840672,-3.97806 1.462879,-10.01233 -3.53991,-9.98595 -1.145811,3.91648 -1.753613,15.77458 3.438709,13.97435 0.309532,-1.30711 0.200529,-2.66392 0.101201,-3.9884 z M 55.975447,81.82366 c -4.424635,-3.275184 1.199271,7.27023 0.652766,0.76856 l -0.652766,-0.76856 0,0 z m 49.099953,57.48595 c -4.71505,-6.12091 -0.88554,-14.16516 0.2764,-20.87743 1.21148,-9.23255 3.60135,-18.22187 5.26729,-27.374254 0.74466,-6.293528 8.46005,-15.053221 14.65783,-11.234441 3.4005,6.584786 1.20804,14.48647 -0.0708,21.404665 -3.34716,11.43129 -4.63504,23.66704 -10.32187,34.28012 -1.69768,3.40971 -6.23479,7.19684 -9.80889,3.80134 z m 5.88327,-2.90221 c 1.62636,-2.67597 0.45494,-7.14339 3.02314,-7.7839 -1.85901,-4.74789 -4.82213,2.363 -4.52183,-2.84789 -4.44493,1.26899 -4.33089,15.2131 1.49869,10.63179 z M 122.8125,91.21875 c -2.64003,-6.895492 -0.49186,7.719848 0,0 z m -1.51729,-3.611192 c -0.35536,-3.674175 -2.21527,4.241668 0,0 z M 111.5625,72.171082 c 7.07546,-1.986318 14.35118,-4.079096 20.49554,-8.157435 3.0037,-0.798959 11.66289,-6.690053 9.77633,-8.701147 -7.40963,1.366744 -12.74281,7.541267 -20.3891,8.493933 -6.26591,1.736142 -12.6861,3.49985 -19.23866,4.461503 C 91.141939,68.6412 79.764657,68.482108 69.080869,65.337236 62.611942,62.483522 55.342141,61.558004 49.178963,57.786525 42.804371,54.1564 35.233707,51.313098 30.780013,45.281391 c -3.934819,4.622321 5.343252,10.214044 8.761138,13.236165 18.350597,12.147578 41.064481,17.715906 62.956859,15.458875 3.05791,-0.39582 6.08484,-1.01476 9.06449,-1.805349 z m -2.91371,-11.368348 c 7.76684,-1.777177 16.80042,-1.93895 22.54011,-8.247147 5.50313,-1.643283 10.17211,-6.808104 12.60819,-11.970123 0.20611,-7.389931 -6.45163,-13.502308 -13.32373,-14.877293 -6.66743,-3.520347 -14.18066,-4.65789 -21.42507,-6.416608 -14.445039,-1.247367 -29.045393,-1.237974 -43.50359,-0.173148 -7.989848,0.424802 -15.097725,4.239292 -22.476675,6.812303 -6.156318,0.772767 -10.766293,8.193952 -7.060801,13.850549 2.91906,6.206235 9.692572,7.05039 14.121018,11.308819 11.887206,6.115217 24.889057,10.73992 38.425966,10.519238 6.691032,0.148641 13.473502,0.330002 20.094582,-0.80659 z m -5.07307,-22.346652 c -4.906137,-4.68179 -12.520535,-2.70108 -18.721131,-3.179161 -5.065132,-0.349016 -10.064146,1.753769 -13.662208,4.531218 -1.971148,-2.557672 4.084174,-3.953422 4.044231,-7.310887 7.913139,-2.385691 16.641765,-2.07618 24.660226,-0.260932 3.124192,-0.06345 11.465702,9.033485 6.902342,1.537663 -3.91288,-6.639282 -12.336016,-4.014507 -18.657677,-4.981727 -5.346512,0.400268 -13.238975,-2.83404 -15.615052,3.762023 -7.054226,3.724534 0.655309,-8.570328 4.871436,-7.152049 8.52614,-0.398761 17.261111,-0.876576 25.675413,0.730329 4.4265,1.276433 10.0033,10.503965 7.08295,12.903417 -2.67761,1.645274 -2.63227,3.798451 -6.58053,-0.579894 z"
       id="path4150"
       inkscape:connector-curvature="0" />
    <path
       style="fill:#464a6f;stroke:#464a6f;stroke-width:3.29999995;stroke-linecap:round;stroke-linejoin:round;stroke-miterlimit:4;stroke-dasharray:none;stroke-opacity:1"
       d="m 72.1875,156.12063 c -5.828084,-1.89532 -12.122762,-3.96657 -17.134319,-6.78356 -2.061958,-3.01803 -1.087103,-7.30999 1.984971,-2.66933 5.02685,2.96132 9.489706,7.92079 15.535048,6.94788 6.875253,2.93173 14.771302,1.81176 21.985197,3.44278 -5.38912,1.0809 -11.473435,0.10847 -17.104274,-0.16378 -1.763365,-0.18334 -3.545471,-0.32846 -5.266623,-0.77399 z m 23.4375,0.44187 c 3.245637,-3.8285 3.950503,3.68894 0,0 z m 4.81385,0.0781 c 3.21196,-4.40609 12.7846,-3.04362 17.69083,-7.04064 7.65538,-3.78846 0.006,5.48354 -3.80024,5.11585 -4.40896,1.22981 -9.47634,1.84197 -13.89059,1.92479 z m 21.72365,-14.60934 c 2.27673,-7.44596 3.50909,-15.3612 6.69697,-22.44126 -0.39388,7.51274 -3.53371,14.75504 -5.80831,21.91666 -0.21812,1.0819 -1.7166,3.31623 -0.88866,0.5246 z m -69.54843,-2.57813 c -2.29644,-2.66418 -1.035961,-11.30339 -0.04193,-3.90681 0.312622,1.81731 2.420038,8.66699 0.04193,3.90681 z m 29.673369,-0.46875 c -2.928672,-1.71194 -2.436223,-9.40226 0.287579,-3.41528 1.585626,2.35435 6.473866,7.85574 -0.287579,3.41528 z m -19.226494,-2.81479 c -4.570404,-4.9225 -5.583698,-11.93531 -7.820363,-18.0502 -2.955144,-11.18386 -6.295045,-22.570717 -6.184835,-34.217144 1.636251,-5.869032 7.869473,-8.315528 11.467004,-2.021938 4.540936,5.435062 3.783844,13.192771 5.84249,19.676652 1.804404,10.0245 4.983834,19.80532 6.274765,29.90531 0.416022,4.10089 -3.902316,7.60752 -2.981364,1.07716 -0.484071,-9.53899 -2.056497,-19.18288 -5.329754,-28.16815 -2.84442,-5.61534 -7.359047,-9.730661 -7.740959,-16.570071 3.484156,-2.545835 5.373086,10.619978 4.718481,1.92202 0.206624,-4.790054 -8.311621,-14.921878 -8.343752,-5.327656 1.936396,10.902353 9.092568,20.972417 7.766278,32.358647 -1.112955,5.82871 1.437536,11.84557 3.015435,17.41644 1.56906,2.29831 3.99714,6.51331 -0.05918,2.57561 l -0.624249,-0.57639 0,-2.9e-4 z m 41.570605,1.09749 c -0.68412,-1.8617 -0.51499,-9.05913 -0.19525,-8.53606 -0.16378,2.68774 4.22098,12.34334 0.19525,8.53606 l 0,0 z M 92.305849,134.3485 c 1.765173,-13.87268 1.083439,-27.98102 0.08265,-41.900641 0.05815,-2.96255 -3.040227,-10.230157 1.335387,-4.522858 3.2847,6.763545 1.746679,14.713689 2.130773,21.992819 -0.264774,8.46505 0.1006,17.11482 -1.990407,25.38296 -1.10487,3.11204 -2.339489,0.9561 -1.558404,-0.95228 z M 79.659972,130.625 c -0.865941,-13.83785 -1.710186,-27.9837 1.247215,-41.623418 2.418816,-4.313245 1.514183,5.432343 2.811581,7.274568 -0.33159,2.63784 3.393142,6.69584 -1.038571,3.41776 -2.519523,5.61312 -1.009234,12.54827 -1.388075,18.68972 -0.377249,1.90892 1.907556,17.0561 -1.63215,12.24137 z M 50.17907,130.21231 C 44.608365,108.52418 40.9602,86.368857 35.033258,64.772875 33.559149,58.447301 26.707879,54.865422 26.535824,47.993676 c -0.640238,-4.039189 -1.172286,-12.650447 4.708181,-9.395392 3.308737,-4.321869 5.263069,3.28247 1.568495,3.237657 1.932181,2.275659 6.124651,6.299955 6.041849,8.670657 -3.802098,-1.399573 -7.08334,-7.099226 -10.540908,-6.46041 0.302766,8.000151 7.689427,13.218127 13.556343,17.518808 19.780206,11.952956 43.656713,16.722098 66.530026,13.839178 6.09426,-1.656462 12.10181,-3.47656 17.85479,-6.143001 5.84392,-2.339085 11.58343,-5.555631 16.55937,-9.980753 7.19134,-3.652316 0.75555,-14.971443 7.71281,-17.834437 1.58108,5.740046 -1.81443,11.807081 -4.20724,16.989709 -3.77578,3.423051 -4.39879,8.426678 -6.3888,12.38527 -2.60352,-7.31402 -10.1258,2.523203 -15.53237,2.154666 C 111.18414,77.27839 97.210057,79.489117 83.325794,77.874817 68.096782,76.503991 52.959077,72.49456 39.689113,64.757103 c -4.708225,0.06752 1.460991,11.045916 1.394238,15.427582 3.601655,16.311119 6.831389,32.712055 9.967971,49.114345 0.136311,0.76445 0.356336,3.27832 -0.872252,0.91328 z m 67.38032,-9.02419 c 1.52005,-11.80002 6.23949,-23.238028 5.93403,-35.216819 -3.96595,-5.994552 -7.70317,1.20461 -4.88473,5.110273 -0.40396,6.478734 -4.48657,12.319966 -5.35386,18.432056 -2.54734,0.97482 -5.74251,9.43455 -5.13146,1.75026 1.22308,-8.48245 2.81112,-17.091987 6.14013,-25.01389 3.00563,-5.466251 13.672,-7.305068 11.5704,1.700398 -1.4714,12.558532 -4.68269,24.893972 -8.17773,37.024442 -0.9676,2.01332 -0.0668,-3.62752 -0.0968,-3.78672 z m -11.52844,0.0391 c -0.30083,-5.1312 3.07279,-3.38511 0.84405,0.64778 -0.41546,3.06411 -0.9887,0.56159 -0.84405,-0.64778 z M 132.1875,100.3125 c 2.54265,-3.462487 0.89577,2.99475 0,0 z m 2.91116,-9.375 c -0.014,-2.79128 3.4527,-13.795596 1.90949,-5.21095 -0.38888,1.136818 -1.00076,6.087036 -1.90949,5.21095 z m 3.72536,-16.484375 c 1.0038,-3.553122 0.48212,4.18869 0,0 z M 84.140625,66.828512 c -8.783016,-2.801719 13.120316,-1.774705 3.928711,0.281118 -1.283505,0.484913 -2.626902,-0.253914 -3.928711,-0.281118 z m 8.900408,0.04866 c -2.809797,-4.534597 9.784877,-0.255925 1.696008,0.473275 l -0.824336,-0.176528 -0.871672,-0.296755 0,8e-6 z M 103.87912,37.579233 c -3.87676,-8.053403 8.12463,6.139119 0,0 z M 32.254226,33.894851 c -1.362899,-1.419585 -0.666806,-4.082579 1.456728,-1.476356 0.719028,0.721216 -2.408097,3.315468 -1.456728,1.476356 z M 140.61037,29.057586 c -2.4005,-2.151411 -10.23801,-3.930834 -9.60621,-6.124193 4.66547,1.911425 9.8849,4.530231 13.24227,7.894353 -1.30219,-0.389458 -2.45348,-1.127002 -3.63606,-1.77016 z M 97.96875,27.1875 c 0.682933,-3.386147 2.39867,3.038081 0,0 z M 126.5625,22.5 c -2.54141,-3.241025 6.3332,3.170515 0,0 z m -8.4375,-2.8125 c -2.5414,-3.241026 6.33321,3.170519 0,0 z M 101.25,17.136696 c -10.353037,-3.335881 14.55041,0.154136 3.87927,0.447949 -1.29786,-0.10054 -2.59543,-0.228263 -3.87927,-0.447949 z"
       id="path4148"
       inkscape:connector-curvature="0" />
  </g>
</svg>
