<?xml version="1.0" encoding="UTF-8" standalone="no"?>
<!-- Created with Inkscape (http://www.inkscape.org/) -->

<svg
   xmlns:dc="http://purl.org/dc/elements/1.1/"
   xmlns:cc="http://creativecommons.org/ns#"
   xmlns:rdf="http://www.w3.org/1999/02/22-rdf-syntax-ns#"
   xmlns:svg="http://www.w3.org/2000/svg"
   xmlns="http://www.w3.org/2000/svg"
   xmlns:sodipodi="http://sodipodi.sourceforge.net/DTD/sodipodi-0.dtd"
   xmlns:inkscape="http://www.inkscape.org/namespaces/inkscape"
   id="svg4136"
   version="1.1"
   inkscape:version="0.91 r13725"
   width="174.375"
   height="173.4375"
   viewBox="0 0 174.375 173.4375"
   sodipodi:docname="delete1.svg">
  <metadata
     id="metadata4142">
    <rdf:RDF>
      <cc:Work
         rdf:about="">
        <dc:format>image/svg+xml</dc:format>
        <dc:type
           rdf:resource="http://purl.org/dc/dcmitype/StillImage" />
        <dc:title />
      </cc:Work>
    </rdf:RDF>
  </metadata>
  <defs
     id="defs4140" />
  <sodipodi:namedview
     pagecolor="#ffffff"
     bordercolor="#666666"
     borderopacity="1"
     objecttolerance="10"
     gridtolerance="10"
     guidetolerance="10"
     inkscape:pageopacity="0"
     inkscape:pageshadow="2"
     inkscape:window-width="1366"
     inkscape:window-height="705"
     id="namedview4138"
     showgrid="false"
     inkscape:zoom="3.0904505"
     inkscape:cx="34.929747"
     inkscape:cy="88.863814"
     inkscape:window-x="-8"
     inkscape:window-y="-8"
     inkscape:window-maximized="1"
     inkscape:current-layer="svg4136" />
  <g
     id="g4146">
    <path
       style="fill:#676c91;stroke:#676c91;stroke-width:3.70000005;stroke-miterlimit:4;stroke-dasharray:none;stroke-opacity:1"
       d="M 73.962803,158.87032 C 66.659039,154.93237 57.393962,145.36469 50.285982,149.95649 47.050602,139.36017 45.592957,128.53508 43.431201,117.67425 40.826417,108.7672 39.583354,99.507353 36.847733,90.617858 35.385021,81.329485 33.548103,72.033073 30.673017,63.065939 26.466827,57.640736 21.598685,51.908943 22.23774,44.493582 22.130809,36.679457 26.390536,29.075164 33.579538,25.747402 41.55948,20.872378 50.624937,18.368455 59.763951,16.692953 73.48785,14.132422 87.61696,14.052249 101.51537,14.869733 c 6.5727,2.311945 13.71747,2.754601 20.28824,5.31286 6.30253,0.434841 11.10995,3.997744 16.43825,7.075062 8.35463,5.22405 13.58108,16.061687 9.66366,25.624766 -1.39818,7.25429 -7.77691,6.764334 -8.13898,14.315833 -3.13996,13.949388 -6.69292,32.607569 -9.64685,46.615756 -2.13273,7.70617 -4.29162,19.85734 -7.76495,27.14594 -2.66153,6.23834 -0.58362,11.97498 -8.2066,14.59686 -12.81354,4.12244 -26.870539,4.48913 -40.185337,3.31351 z m 28.001987,-6.32188 c 6.7845,-1.28388 14.14999,-0.54457 15.54473,-8.56172 5.48697,-24.05938 6.26604,-22.99452 8.9364,-32.96066 2.32451,-7.47872 2.95224,-13.737294 4.87718,-21.919647 1.38124,-6.700884 2.52287,-12.030719 3.1994,-19.003689 -7.7633,5.155691 -17.41343,5.849874 -26.20627,8.240192 -7.70495,1.492109 -15.604816,1.569953 -23.344257,2.6458 C 78.504985,77.77442 70.83453,79.255936 63.998438,77.137567 54.273002,75.230086 45.45061,70.623168 36.533553,66.542464 c -0.55861,5.552675 0.196347,13.658704 1.325641,20.201056 2.927605,12.179897 6.072317,24.64657 9.474816,36.71613 2.016708,7.4657 1.606101,16.22074 6.29441,22.61961 5.908463,6.14672 15.851526,6.16032 23.603324,7.9688 8.246281,0.63994 16.618944,0.0791 24.733046,-1.49962 z M 85.636077,142.7724 c -7.226033,-3.04921 -6.127309,-11.06184 -6.504,-17.51212 -0.157522,-12.36459 -3.68561,-18.9661 -2.429872,-31.281985 2.844291,-6.772175 9.809678,-9.999716 12.11642,-3.335869 1.933014,5.87664 4.902238,10.177294 3.73776,16.424964 -0.584431,8.62649 1.117043,16.07244 -0.216311,24.62795 -1.72137,4.4884 -0.814155,12.82454 -6.703997,11.07706 z m 0.957083,-5.25025 c 3.895916,-5.52314 1.805195,-13.91 2.745217,-20.52381 -0.003,-8.91917 0.831664,-18.002251 -0.964835,-26.796545 -2.860672,-3.190349 -1.4948,7.088931 -1.937378,9.623682 -0.148535,7.671863 -0.72818,15.352273 -1.471024,22.972483 -2.702281,5.33592 -4.468798,-13.50859 -5.188991,-3.51204 0.676182,6.15675 -1.160765,13.53383 2.393331,18.84386 1.503766,0.44305 2.900664,-0.76458 4.42368,-0.60763 z M 83.978222,90.471374 c -1.555407,-0.925466 0.568315,4.421311 0,0 z M 60.272397,134.84432 c -6.476001,-7.31959 -4.260027,-14.35613 -7.113812,-23.35696 -1.851874,-8.78599 -5.301717,-16.971454 -4.83327,-26.036428 0.266411,-8.951809 8.403246,-3.627362 10.524809,-0.02131 4.579665,8.290267 4.469551,15.545578 7.042852,24.512918 1.462192,8.10179 2.263296,14.68756 2.605543,22.94521 -0.73914,6.17942 -4.237738,7.90334 -8.226122,1.95657 z m 4.920347,-2.78516 c -1.840672,-3.97806 1.462879,-10.01233 -3.53991,-9.98595 -1.145811,3.91648 -1.753613,15.77458 3.438709,13.97435 0.309532,-1.30711 0.200529,-2.66392 0.101201,-3.9884 z M 53.06325,82.470815 c -4.424635,-3.275184 1.199271,7.27023 0.652766,0.76856 z m 49.42353,57.809525 c -4.715047,-6.12091 -0.88554,-14.16516 0.2764,-20.87743 1.21148,-9.23255 3.27777,-18.54545 4.94371,-27.697829 0.74466,-6.293528 2.95923,-10.19956 9.15701,-6.38078 3.4005,6.584786 1.20804,12.545006 -0.0708,19.463199 -3.34716,11.43129 1.18936,21.07842 -4.49747,31.6915 -1.20366,3.22445 -0.60158,5.08438 -9.80889,3.80134 z m 5.88327,-2.90221 c 1.62636,-2.67597 0.45494,-7.14339 3.02314,-7.7839 -1.85901,-4.74789 -4.82213,2.363 -4.52183,-2.84789 -4.44493,1.26899 -4.33089,15.2131 1.49869,10.63179 z M 119.9003,91.865905 c -2.64003,-6.895492 -0.49186,7.719848 0,0 z m -1.51729,-3.611192 c -0.35536,-3.674175 -2.21527,4.241668 0,0 z M 66.168672,65.984391 C 59.699745,63.130677 52.429944,62.205159 46.266766,58.43368 39.892174,54.803555 32.32151,51.960253 27.867816,45.928546 23.932997,50.550867 33.211068,56.14259 36.628954,59.164711 54.979551,71.312289 77.693435,76.880617 99.585813,74.623586 75.189665,68.960948 77.349967,69.152239 66.168672,65.984391 Z m 39.567918,-4.534502 c 7.76684,-1.777177 16.80042,-1.93895 22.54011,-8.247147 5.50313,-1.643283 10.17211,-6.808104 12.60819,-11.970123 C 141.091,33.842688 134.43326,27.730311 127.56116,26.355326 120.89373,22.834979 113.3805,21.697436 106.13609,19.938718 91.691054,18.691351 77.0907,18.700744 62.632503,19.76557 c -7.989848,0.424802 -15.097725,4.239292 -22.476675,6.812303 -6.156318,0.772767 -10.766293,8.193952 -7.060801,13.850549 2.91906,6.206235 9.692572,7.05039 14.121018,11.308819 11.887206,6.115217 24.889057,10.73992 38.425966,10.519238 6.691032,0.148641 13.473502,0.330002 20.094579,-0.80659 z m -5.07307,-22.346652 c -4.906134,-4.68179 -12.520532,-2.70108 -18.721128,-3.179161 -5.065132,-0.349016 -10.064146,1.753769 -13.662208,4.531218 -1.971148,-2.557672 4.084174,-3.953422 4.044231,-7.310887 7.913139,-2.385691 16.641765,-2.07618 24.660226,-0.260932 3.124189,-0.06345 11.465699,9.033485 6.902339,1.537663 -3.912877,-6.639282 -12.336013,-4.014507 -18.657674,-4.981727 -5.346512,0.400268 -13.238975,-2.83404 -15.615052,3.762023 -7.054226,3.724534 0.655309,-8.570328 4.871436,-7.152049 8.52614,-0.398761 17.261111,-0.876576 25.67541,0.730329 4.4265,1.276433 10.0033,10.503965 7.08295,12.903417 -2.67761,1.645274 -2.63227,3.798451 -6.58053,-0.579894 z"
       id="path4150"
       inkscape:connector-curvature="0"
       sodipodi:nodetypes="ccccccccccccccccccccccccccccccccccccccccccccccccccccccccccccccccccccccccccccccccccccccccccccccccccccccccccc" />
    <path
       style="fill:#464a6f;stroke:#464a6f;stroke-width:5.0999999;stroke-linecap:round;stroke-linejoin:round;stroke-miterlimit:4;stroke-dasharray:none;stroke-opacity:1"
       d="m 68.951726,156.12063 c -5.828084,-1.89532 -14.711381,-2.67226 -19.722938,-5.48925 -2.061958,-3.01803 -1.087103,-7.30999 1.984971,-2.66933 5.02685,2.96132 12.078325,6.62648 18.123667,5.65357 6.875253,2.93173 14.771302,1.81176 21.985197,3.44278 -5.38912,1.0809 -11.473435,0.10847 -17.104274,-0.16378 -1.763365,-0.18334 -3.545471,-0.32846 -5.266623,-0.77399 z m 23.4375,0.44187 c 3.245637,-3.8285 3.950503,3.68894 0,0 z m 4.81385,0.0781 c 3.211964,-4.40609 12.784594,-3.04362 17.690824,-7.04064 7.65538,-3.78846 0.006,5.48354 -3.80024,5.11585 -4.40896,1.22981 -9.47634,1.84197 -13.890584,1.92479 z m 21.723644,-14.60934 c 2.27673,-7.44596 3.50909,-15.3612 6.69697,-22.44126 -0.39388,7.51274 -3.53371,14.75504 -5.80831,21.91666 -0.21812,1.0819 -1.7166,3.31623 -0.88866,0.5246 z m -72.137043,-1.28382 c -2.29644,-2.66418 -1.035961,-11.30339 -0.04193,-3.90681 0.312622,1.81731 2.420038,8.66699 0.04193,3.90681 z m 32.261988,-1.76306 c -2.928672,-1.71194 -2.436223,-9.40226 0.287579,-3.41528 1.585626,2.35435 6.473866,7.85574 -0.287579,3.41528 z M 55.240582,124.26736 C 52.285438,113.0835 49.269114,99.75518 49.379324,88.108753 c 1.636251,-5.869032 5.280854,-7.344796 8.878385,-1.051206 4.540936,5.435062 3.783844,13.192773 5.84249,19.676653 1.804404,10.0245 3.689524,20.45247 4.980455,30.55246 0.416022,4.10089 -5.520203,3.40101 -4.599251,-3.12935 -0.484071,-9.53899 -0.115032,-18.53572 -3.388289,-27.52099 -2.84442,-5.61534 -6.388315,-6.818462 -6.770227,-13.657872 3.484156,-2.545835 5.373086,10.619982 4.718481,1.92202 0.206624,-4.790054 -8.311621,-14.921878 -8.343752,-5.327656 1.936396,10.902348 8.445413,19.030948 7.119123,30.417178 -1.112955,5.82871 -3.416125,-3.03899 -1.838226,2.53188 2.587148,12.02611 2.581112,11.38937 -0.737931,1.74549 z m 47.449498,13.32329 c -0.68412,-1.8617 -0.51499,-9.05913 -0.19525,-8.53606 -0.16378,2.68774 4.22098,12.34334 0.19525,8.53606 z M 89.070075,134.3485 c 1.765173,-13.87268 1.083439,-27.98102 0.08265,-41.900641 0.05815,-2.96255 -3.040227,-10.230157 1.335387,-4.522858 3.2847,6.763545 1.746679,14.713689 2.130773,21.992819 -0.264774,8.46505 0.1006,17.11482 -1.990407,25.38296 -1.10487,3.11204 -2.339489,0.9561 -1.558403,-0.95228 z M 76.424198,130.625 c -0.865941,-13.83785 -1.710186,-27.9837 1.247215,-41.623418 2.418816,-4.313245 1.514183,5.432343 2.811581,7.274568 -0.33159,2.63784 3.393142,6.69584 -1.038571,3.41776 -2.519523,5.61312 -1.009234,12.54827 -1.388075,18.68972 -0.377249,1.90892 1.907556,17.0561 -1.63215,12.24137 z m -32.069521,0.88162 C 38.783972,109.81849 37.724426,86.368857 31.797484,64.772875 30.323375,58.447301 23.472105,54.865422 23.30005,47.993676 c -0.640238,-4.039189 -1.172286,-12.650447 4.708181,-9.395392 3.308737,-4.321869 5.263069,3.28247 1.568495,3.237657 1.932181,2.275659 6.124651,6.299955 6.041849,8.670657 -3.802098,-1.399573 -7.08334,-7.099226 -10.540908,-6.46041 0.302766,8.000151 7.689427,13.218127 13.556343,17.518808 19.780206,11.952956 43.656713,16.722098 66.53002,13.839178 6.09426,-1.656462 12.10181,-3.47656 17.85479,-6.143001 5.84392,-2.339085 11.58343,-5.555631 16.55937,-9.980753 7.19134,-3.652316 0.75555,-14.971443 7.71281,-17.834437 1.58108,5.740046 -1.81443,11.807081 -4.20724,16.989709 -3.77578,3.423051 -4.39879,8.426678 -6.3888,12.38527 -2.60352,-7.31402 -10.1258,2.523203 -15.53237,2.154666 -13.21423,4.302762 -27.188307,6.513489 -41.07257,4.899189 -15.229012,-1.370826 -29.395985,-5.05668 -42.665949,-12.794137 -4.708225,0.798899 -1.055103,-3.480416 0.09993,14.780428 3.601655,16.311119 5.860656,34.653522 8.997238,51.055812 0,0 -0.937973,2.95474 -2.166561,0.58975 z m 69.968933,-10.3185 c 1.52005,-11.80002 6.23949,-23.238028 5.93403,-35.216819 -3.96595,-5.994552 -7.70317,1.20461 -4.88473,5.110273 -0.40396,6.478734 -4.81015,16.850046 -5.67744,22.962136 -2.54734,0.97482 -5.74251,9.43455 -5.13146,1.75026 1.22308,-8.48245 3.1347,-21.622067 6.46371,-29.54397 3.00563,-5.466251 13.672,-7.305068 11.5704,1.700398 -1.4714,12.558532 -4.68269,24.893972 -8.17773,37.024442 -0.9676,2.01332 -0.0668,-3.62752 -0.0968,-3.78672 z m -10.23413,0.36267 c -0.30083,-5.1312 3.07279,-3.38511 0.84405,0.64778 -0.41546,3.06411 -0.9887,0.56159 -0.84405,-0.64778 z m 24.86224,-21.23829 c 2.54265,-3.462487 0.89577,2.99475 0,0 z m 2.91116,-9.375 c -0.014,-2.79128 3.4527,-13.795596 1.90949,-5.21095 -0.38888,1.136818 -1.00076,6.087036 -1.90949,5.21095 z m 3.72536,-16.484375 c 1.0038,-3.553122 0.48212,4.18869 0,0 z M 80.904851,66.828512 c -8.783016,-2.801719 13.120316,-1.774705 3.928711,0.281118 -1.283505,0.484913 -2.626902,-0.253914 -3.928711,-0.281118 z m 8.900408,0.04866 c -2.809797,-4.534597 9.784877,-0.255925 1.696008,0.473275 L 90.676931,67.173919 Z M 100.64335,37.579233 c -3.876764,-8.053403 8.12462,6.139119 0,0 z M 29.018452,33.894851 c -1.362899,-1.419585 -0.666806,-4.082579 1.456728,-1.476356 0.719028,0.721216 -2.408097,3.315468 -1.456728,1.476356 z M 137.37459,29.057586 c -2.4005,-2.151411 -10.23801,-3.930834 -9.60621,-6.124193 4.66547,1.911425 9.8849,4.530231 13.24227,7.894353 -1.30219,-0.389458 -2.45348,-1.127002 -3.63606,-1.77016 z M 94.732976,27.1875 c 0.682933,-3.386147 2.39867,3.038081 0,0 z M 123.32672,22.5 c -2.54141,-3.241025 6.3332,3.170515 0,0 z m -8.4375,-2.8125 c -2.5414,-3.241026 6.33321,3.170519 0,0 z M 98.014226,17.136696 c -10.353037,-3.335881 14.550404,0.154136 3.879264,0.447949 -1.29785,-0.10054 -2.595424,-0.228263 -3.879264,-0.447949 z"
       id="path4148"
       inkscape:connector-curvature="0"
       sodipodi:nodetypes="ccccccccccccccccccccccccccccccccccccccccccccccccccccccccccccccccccccccccccccccccccccccccccccccccccccccccccccccccccccc" />
  </g>
</svg>
