<?xml version="1.0" encoding="UTF-8" standalone="no"?>
<!-- Created with Inkscape (http://www.inkscape.org/) -->

<svg
   xmlns:dc="http://purl.org/dc/elements/1.1/"
   xmlns:cc="http://creativecommons.org/ns#"
   xmlns:rdf="http://www.w3.org/1999/02/22-rdf-syntax-ns#"
   xmlns:svg="http://www.w3.org/2000/svg"
   xmlns="http://www.w3.org/2000/svg"
   xmlns:xlink="http://www.w3.org/1999/xlink"
   xmlns:sodipodi="http://sodipodi.sourceforge.net/DTD/sodipodi-0.dtd"
   xmlns:inkscape="http://www.inkscape.org/namespaces/inkscape"
   id="svg4766"
   version="1.1"
   inkscape:version="0.91 r13725"
   width="174.375"
   height="174.375"
   viewBox="0 0 174.375 174.375"
   sodipodi:docname="enhance1.svg">
  <metadata
     id="metadata4772">
    <rdf:RDF>
      <cc:Work
         rdf:about="">
        <dc:format>image/svg+xml</dc:format>
        <dc:type
           rdf:resource="http://purl.org/dc/dcmitype/StillImage" />
        <dc:title />
      </cc:Work>
    </rdf:RDF>
  </metadata>
  <defs
     id="defs4770">
    <linearGradient
       inkscape:collect="always"
       id="linearGradient4681">
      <stop
         style="stop-color:#1a1313;stop-opacity:1"
         offset="0"
         id="stop4683" />
      <stop
         id="stop4693"
         offset="0.17308086"
         style="stop-color:#582e2e;stop-opacity:1" />
      <stop
         id="stop4699"
         offset="0.22040033"
         style="stop-color:#46406b;stop-opacity:1" />
      <stop
         id="stop4689"
         offset="0.41727343"
         style="stop-color:#5e4ea9;stop-opacity:1" />
      <stop
         style="stop-color:#726a99;stop-opacity:1;"
         offset="0.65191025"
         id="stop4705" />
      <stop
         style="stop-color:#676b83;stop-opacity:1"
         offset="0.84315914"
         id="stop4703" />
      <stop
         style="stop-color:#2f3db3;stop-opacity:1"
         offset="0.91398919"
         id="stop4691" />
      <stop
         style="stop-color:#2f3037;stop-opacity:1"
         offset="1"
         id="stop4685" />
    </linearGradient>
    <linearGradient
       inkscape:collect="always"
       xlink:href="#linearGradient4681"
       id="linearGradient4687"
       x1="97.272621"
       y1="152.57812"
       x2="97.597946"
       y2="28.303406"
       gradientUnits="userSpaceOnUse" />
  </defs>
  <sodipodi:namedview
     pagecolor="#ffffff"
     bordercolor="#666666"
     borderopacity="1"
     objecttolerance="10"
     gridtolerance="10"
     guidetolerance="10"
     inkscape:pageopacity="0"
     inkscape:pageshadow="2"
     inkscape:window-width="1366"
     inkscape:window-height="705"
     id="namedview4768"
     showgrid="false"
     inkscape:zoom="0.38422939"
     inkscape:cx="88.154118"
     inkscape:cy="73.362646"
     inkscape:window-x="-8"
     inkscape:window-y="-8"
     inkscape:window-maximized="1"
     inkscape:current-layer="svg4766" />
  <g
     id="g4776">
    <path
       style="fill:url(#linearGradient4687);fill-opacity:1"
       d="m 47.874902,152.88113 c -3.601129,-0.4656 -5.879075,-1.22454 -6.502332,-3.57134 -0.849065,-3.19706 -2.940501,-113.348137 -2.137494,-116.685728 0.347813,-1.445638 3.198184,-5.218349 6.31671,-6.860077 0,0 20.118407,-0.81863 42.032562,-0.99743 35.080542,-0.286225 39.367852,-0.150791 40.653602,1.132858 0.87454,0.873116 2.34721,6.265028 2.6999,10.041859 0.32391,3.468645 0.95716,6.53421 1.40722,6.812366 0.45008,0.278158 -1.16487,6.91954 0.38747,5.613338 2.8693,-2.414364 12.96834,-3.981947 16.78201,-3.991412 3.10529,-0.0077 12.33826,0.835735 10.80185,8.872608 -1.52444,7.974267 -4.03211,12.724709 -4.03211,12.724709 -1.79103,0.577329 -3.17667,4.54217 -5.55913,7.162632 -2.38245,2.620464 -7.34134,7.899126 -11.20994,12.005597 l -5.90223,6.26514 0.28557,29.70009 c 0.27183,28.27143 0.20076,29.74548 -1.47747,30.64364 -1.92796,1.03182 -77.494795,2.04283 -84.546188,1.13114 z M 98.407776,83.4273 c 0,0 10.046644,-14.711971 1.599234,-7.072418 -0.981182,0.887348 -2.508313,-0.404274 -7.183432,0.124655 -5.324705,0.602422 -5.636078,0.527373 -5.636078,-1.358444 0,-1.159908 0.596219,-1.996093 1.42326,-1.996093 1.087224,0 1.363907,-0.932444 1.171875,-3.949321 -0.28261,-4.439882 1.258081,-5.53502 4.454246,-3.166123 1.539657,1.14114 1.66815,1.685763 0.752185,3.188037 -1.20286,1.9728 -0.08681,3.927407 2.242406,3.927407 0.677306,0 2.065153,0.520645 3.084108,1.15699 1.62336,1.013808 2.22556,0.752763 4.86613,-2.109375 14.08036,-15.261918 14.35791,-15.797975 8.02142,-15.492429 -2.19141,0.105669 -4.74957,0.52944 -5.68479,0.941713 -2.15458,0.949801 -6.26834,-0.86024 -6.26834,-2.75805 0,-1.608434 1.46319,-1.91362 2.34375,-0.488849 0.90495,1.464239 4.35804,1.102046 6.30675,-0.661511 1.51059,-1.367068 2.05527,-1.418914 3.75499,-0.357421 1.7227,1.075843 2.15684,1.010833 3.25206,-0.486977 1.10803,-1.51533 1.51605,-1.571134 3.3075,-0.452358 1.87142,1.168723 2.26771,1.008834 4.70516,-1.898387 1.92117,-2.716727 0.12242,-14.967778 -0.54708,-18.679514 -11.92948,-0.39515 -38.86167,-0.258802 -56.40438,0.285557 l -22.5,0.698186 0.145983,2.573088 c 0.08029,1.415198 0.359071,27.126713 0.619513,57.136699 0.260442,30.009988 1.075074,51.757288 1.412673,52.303528 0.420633,0.6806 13.355689,1.90223 41.099237,1.72485 l 38.533464,-1.22026 -0.23223,-20.78586 c -0.14372,-12.86351 -0.26624,-22.77183 -0.70543,-23.21102 -0.43969,-0.43969 -2.45639,2.16194 -6.08239,6.18816 -9.48937,10.53669 -13.64613,16.19361 -12.22528,16.63731 0.65145,0.20343 1.81727,0.55723 2.59071,0.78622 0.77344,0.22899 2.03906,0.0948 2.8125,-0.2981 2.16982,-1.10238 7.91651,2.01723 8.26833,4.48849 0.34058,2.39234 -1.21036,2.71703 -4.9152,1.02899 -1.67235,-0.76197 -2.70981,-0.7851 -3.56017,-0.0794 -0.66004,0.54778 -5.49617,1.03067 -10.74695,1.07309 l -9.5469,0.0772 -0.29643,-2.49113 c -0.222683,-1.87139 -1.405705,-3.0953 -4.755256,-4.91964 -2.452355,-1.33567 -7.202881,-4.6161 -10.556726,-7.28983 -5.079717,-4.04963 -6.605001,-4.79951 -9.134924,-4.49104 -10.023289,1.22212 -11.905093,1.26635 -12.506067,0.29396 -0.91656,-1.48303 3.36069,-4.48974 6.422168,-4.51449 1.469007,-0.0119 2.578125,-0.54099 2.578125,-1.22991 0,-0.66497 -2.890002,-4.00825 -6.422228,-7.429496 -7.528437,-7.291898 -9.868241,-11.588369 -9.896525,-18.172515 -0.0261,-6.076493 1.821216,-8.926559 8.130308,-12.543532 5.134544,-2.943611 7.196262,-3.348268 14.750945,-0.75646 4.667687,1.601357 13.32343,11.296523 22.097715,15.728492 m 4.327522,57.467811 c -5.472879,-0.33781 -5.896418,-0.52066 -5.625002,-2.42842 0.245185,-1.72341 0.910984,-2.07083 4.043515,-2.10998 2.0625,-0.0258 6.27793,0.47058 9.36763,1.10303 3.0897,0.63246 6.78111,0.91722 8.20313,0.63281 1.43951,-0.28789 2.58549,-0.10273 2.58549,0.41777 0,0.8646 -2.76435,1.54029 -9.84375,2.40613 -1.54688,0.18919 -5.47583,0.17958 -8.731013,-0.0214 z M 55.746,137.34426 c -1.537554,-2.44744 -2.624081,-15.51562 -1.439948,-17.31896 0.734636,-1.11878 3.185397,-1.33606 12.909737,-1.14453 14.005945,0.27585 14.745748,0.70186 15.794437,9.09528 1.310803,10.49132 -0.580009,11.85978 -15.876226,11.49031 -9.041473,-0.21838 -10.344575,-0.46121 -11.388,-2.1221 z M 80.15625,67.614248 c -3.531424,-0.755143 -3.256914,-2.223649 0.602619,-3.223755 3.180523,-0.824156 6.305189,1.033879 5.077981,3.019544 -0.683747,1.106325 -1.349881,1.130272 -5.6806,0.204211 z m 21.98971,-0.633053 c -0.84663,-1.020127 -0.90102,-1.726133 -0.18791,-2.439241 C 103.15958,63.340415 105,64.279268 105,66.09375 c 0,2.003445 -1.53239,2.479932 -2.85404,0.887445 z M 81.796875,56.525875 c -2.204999,-0.424701 -2.972319,-3.024006 -0.9375,-3.175788 0.644531,-0.04807 3.070312,-0.238511 5.390625,-0.423186 5.072727,-0.403743 7.5,0.204605 7.5,1.879723 0,2.186277 -5.454881,2.970867 -11.953125,1.719251 z m -26.25,-2.180089 c -3.504691,-1.408714 -2.537295,-2.945462 1.40625,-2.233887 4.115131,0.742537 4.921875,1.12255 4.921875,2.318429 0,1.095221 -3.509686,1.048332 -6.328125,-0.08454 z M 92.8125,48.004908 c -6.001163,-2.956041 -3.10034,-7.137975 3.142069,-4.529728 2.832253,1.18339 3.494465,1.917091 3.253818,3.605093 -0.38415,2.694564 -2.253928,2.964873 -6.395887,0.924635 z M 55.917616,46.785194 c -0.805433,-1.149917 -1.24402,-2.447378 -0.974638,-2.883247 0.520569,-0.8423 12.086255,-0.241054 13.622098,0.70815 2.034759,1.25755 -0.07105,2.736418 -3.956715,2.778723 -2.276786,0.02479 -4.83412,0.369534 -5.682966,0.766101 -1.071851,0.500752 -1.990745,0.08229 -3.007779,-1.369727 z m 22.537521,-0.263859 c -0.292152,-0.761337 0.02042,-1.842038 0.694599,-2.401558 1.705098,-1.415106 8.506514,0.07181 8.506514,1.859687 0,1.966922 -8.463014,2.465324 -9.201113,0.541871 z m 24.266323,-1.593396 c 1.34832,-1.489875 2.44142,-1.805177 4.75411,-1.371313 1.79727,0.33717 3.26391,0.141593 3.65244,-0.487054 0.39905,-0.645692 1.87219,-0.821028 3.8231,-0.455035 1.9624,0.368147 3.17389,0.221359 3.17389,-0.384556 0,-0.538989 0.42188,-0.979981 0.9375,-0.979981 1.7242,0 0.96248,2.580588 -1.17187,3.970164 -1.34256,0.874068 -4.80145,1.422237 -9.51472,1.507901 l -7.40534,0.134593 z m 0.14964,80.130651 c -0.31153,-0.31152 -1.12013,-0.34482 -1.79688,-0.074 -0.74787,0.29927 -0.52573,0.52142 0.56641,0.5664 0.98827,0.0407 1.54199,-0.18087 1.23047,-0.49239 z"
       id="path4778"
       inkscape:connector-curvature="0"
       sodipodi:nodetypes="csscssscsssssscsscccssssssssssssssssssccscsssscssssscsscscssssscsssssccscscssccssssssssssssssscssssssssssssssssssssssscssssscsccscc" />
  </g>
</svg>
