<?xml version="1.0" encoding="UTF-8" standalone="no"?>
<!-- Created with Inkscape (http://www.inkscape.org/) -->

<svg
   xmlns:dc="http://purl.org/dc/elements/1.1/"
   xmlns:cc="http://creativecommons.org/ns#"
   xmlns:rdf="http://www.w3.org/1999/02/22-rdf-syntax-ns#"
   xmlns:svg="http://www.w3.org/2000/svg"
   xmlns="http://www.w3.org/2000/svg"
   xmlns:xlink="http://www.w3.org/1999/xlink"
   xmlns:sodipodi="http://sodipodi.sourceforge.net/DTD/sodipodi-0.dtd"
   xmlns:inkscape="http://www.inkscape.org/namespaces/inkscape"
   id="svg4136"
   version="1.1"
   inkscape:version="0.91 r13725"
   width="739.6875"
   height="174.375"
   viewBox="0 0 739.6875 174.375"
   sodipodi:docname="ok1.svg">
  <metadata
     id="metadata4142">
    <rdf:RDF>
      <cc:Work
         rdf:about="">
        <dc:format>image/svg+xml</dc:format>
        <dc:type
           rdf:resource="http://purl.org/dc/dcmitype/StillImage" />
        <dc:title />
      </cc:Work>
    </rdf:RDF>
  </metadata>
  <defs
     id="defs4140">
    <linearGradient
       inkscape:collect="always"
       id="linearGradient4719">
      <stop
         id="stop4727"
         offset="0"
         style="stop-color:#080a12;stop-opacity:1" />
      <stop
         style="stop-color:#272e67;stop-opacity:0.86274511"
         offset="0.4478502"
         id="stop4729" />
      <stop
         id="stop4731"
         offset="0.60000587"
         style="stop-color:#121831;stop-opacity:0.94509804" />
      <stop
         style="stop-color:#232a4c;stop-opacity:0.8;"
         offset="1"
         id="stop5402" />
    </linearGradient>
    <linearGradient
       inkscape:collect="always"
       xlink:href="#linearGradient4719"
       id="linearGradient5400"
       x1="275.09726"
       y1="149.44171"
       x2="275.09726"
       y2="39.892193"
       gradientUnits="userSpaceOnUse" />
  </defs>
  <sodipodi:namedview
     pagecolor="#ffffff"
     bordercolor="#666666"
     borderopacity="1"
     objecttolerance="10"
     gridtolerance="10"
     guidetolerance="10"
     inkscape:pageopacity="0"
     inkscape:pageshadow="2"
     inkscape:window-width="1366"
     inkscape:window-height="705"
     id="namedview4138"
     showgrid="false"
     inkscape:zoom="6.8063881"
     inkscape:cx="382.64463"
     inkscape:cy="51.505747"
     inkscape:window-x="-8"
     inkscape:window-y="-8"
     inkscape:window-maximized="1"
     inkscape:current-layer="svg4136" />
  <g
     id="g4146"
     style="fill-opacity:1;fill:url(#linearGradient5400)" />
  <path
     id="path4162"
     style="opacity:1;fill:#2f3db3;fill-opacity:1;fill-rule:evenodd;stroke:#63616a;stroke-width:0;stroke-linecap:round;stroke-linejoin:bevel;stroke-miterlimit:4;stroke-dasharray:none;stroke-opacity:1"
     d="m 287.22838,127.66581 c 1.07189,-1.14097 2.13212,-1.89126 2.35607,-1.66731 0.55174,0.55174 -2.39619,3.74181 -3.45778,3.74181 -0.46595,0 0.0298,-0.93352 1.10171,-2.0745 z M 251.10004,63.251545 c 1.48233,-10.508984 3.81201,-14.347986 10.80876,-17.811402 6.78769,-3.359933 16.69316,-4.010559 21.75371,-1.428859 4.93745,2.518899 9.14938,7.883646 11.06898,14.098611 2.33086,7.546444 2.012,8.776181 -0.90381,3.485658 -4.96822,-9.01447 -11.31929,-13.309947 -19.65857,-13.295861 -8.75661,0.01479 -15.68866,4.671963 -21.01827,14.120743 l -2.57833,4.571103 z m 15.76924,74.027955 c -5.29227,-0.68499 -6.66447,-1.47959 -11.5207,-6.6713 -4.65877,-4.9806 -7.76483,-11.3024 -8.87067,-18.0546 -1.01437,-6.19364 -0.99565,-32.268274 0.0309,-43.068733 1.23144,-12.955853 3.00673,-19.159687 6.47533,-22.628289 4.79878,-4.798779 12.59922,-7.959507 20.6917,-8.384254 6.18837,-0.324806 7.34103,-0.136645 11.43593,1.866801 6.07332,2.971397 10.71632,8.382486 12.9487,15.090778 6.65917,20.010809 5.00348,52.661017 -3.53646,69.739307 -3.16995,6.33931 -6.71106,8.9347 -15.73157,11.53015 -4.93896,1.42108 -5.29298,1.43831 -11.92316,0.58014 z m 11.63553,-7.33579 c 6.69781,-3.39081 13.70976,-11.78554 17.92448,-21.45927 1.59225,-3.65455 1.73578,-5.11675 1.34004,-13.650732 -1.20403,-25.964261 -9.55451,-41.96354 -22.46057,-43.033811 -12.97985,-1.07639 -23.0304,12.990521 -25.10566,35.13827 -0.64259,6.857917 0.63496,18.693043 3.12323,28.933473 1.65468,6.80975 2.06159,7.57799 5.78873,10.92902 5.97393,5.37107 12.80237,6.47795 19.38975,3.14305 z m -12.33172,17.36952 c -6.74597,-0.64991 -8.23282,-1.53514 -17.83814,-10.62041 -3.76028,-3.55668 -6.27989,-7.10656 -8.84215,-12.4577 l -3.58335,-7.48363 -0.38225,-17.360121 c -0.21025,-9.548066 0.0189,-23.266369 0.50913,-30.485119 0.82557,-12.155583 1.11897,-13.557123 3.97239,-18.975536 5.71141,-10.845524 14.12478,-17.113812 25.43325,-18.948764 13.81755,-2.242085 21.6656,-0.464748 30.2206,6.844017 8.99665,7.686073 14.10231,20.283803 15.06606,37.174033 0.81812,14.338034 -0.78855,42.51524 -2.68145,47.02619 -0.79219,1.88784 -3.9329,6.53088 -6.97936,10.31785 -4.76074,5.91793 -6.641,7.44408 -13.38154,10.86133 -8.53718,4.32809 -12.12207,5.0126 -21.51319,4.10786 z m 12.73316,-5.75073 c 0.31867,-0.51563 1.50373,-0.94163 2.63346,-0.94666 3.98475,-0.0177 11.38424,-4.3225 14.98273,-8.71639 12.7845,-22.5175 13.93289,-63.142322 3.76921,-83.495824 -4.09862,-8.093773 -12.80514,-13.990014 -22.18617,-15.02497 -12.03871,-1.328159 -28.47782,6.429808 -32.2368,15.213234 -3.11363,7.275438 -4.88716,22.324195 -4.93531,41.87686 -0.06,24.36968 0.79429,28.98601 7.19987,38.90625 3.76569,5.83187 9.51291,10.64122 14.36676,12.02228 4.34844,1.23727 15.67321,1.35131 16.40625,0.16522 z m -19.32248,-20.5203 c -21.22281,-65.871972 33.76437,-97.271883 33.99515,-17.9172 -6.32134,16.8474 -20.71708,33.54598 -33.99515,17.9172 z m 21.92467,-4.17506 c 2.46246,-2.07005 4.71253,-4.84872 5.00018,-6.17481 0.28764,-1.32609 0.64384,-2.83296 0.79156,-3.34858 0.14773,-0.51563 -0.0139,-10.007813 -0.35905,-21.09375 -0.68973,-22.14999 -1.34867,-24.925874 -6.55612,-27.618756 -6.2442,-3.229 -10.63427,-2.086194 -15.8788,4.133508 -5.93875,7.043005 -6.19805,8.111407 -6.06497,24.989123 0.14861,18.846415 1.25268,24.647635 5.60846,29.468945 5.17289,5.72578 10.34993,5.62031 17.45874,-0.35568 z m 90.18787,18.4057 c 0.42186,-5.41406 0.22134,-14.97207 -0.0865,-17.46906 -0.30781,-2.49697 -0.27019,-7.24306 0.0836,-10.54687 0.5226,-4.87995 0.95466,-6.00691 2.303,-6.00691 2.87559,0 9.03469,5.23178 14.54022,12.35103 21.67993,28.03445 22.89749,27.56094 27.86463,25.50349 12.65745,-11.34477 -6.79612,-26.06335 -13.51482,-34.62363 -6.91804,-8.850929 -9.20021,-12.360016 -8.94122,-16.347458 -0.66132,-1.785889 1.86137,-6.827926 7.61109,-15.949423 2.12349,-3.368749 4.94327,-7.633571 6.14646,-9.229117 3.83642,-6.621174 9.30866,-12.508591 8.42129,-18.589778 -0.49245,-2.947614 -1.41481,-3.077613 -3.67306,-4.337816 -6.42771,-1.173125 -16.82546,12.463482 -20.35916,17.633427 -4.2652,6.385101 -14.5413,21.089275 -15.78011,21.089275 -1.54764,0 -2.03993,-4.178194 -2.20916,-18.75 -0.20862,-17.962805 -1.43962,-21.974086 -7.06752,-23.029886 -4.94483,-0.927657 -7.56314,0.117287 -9.26143,3.696154 -1.71687,3.618044 -3.34628,30.700845 -3.39115,56.364982 -0.0144,8.25 -0.62493,20.36403 -1.35667,26.92006 -0.77875,6.97717 3.09064,20.65008 6.46605,18.10991 m 4.67766,4.72237 c -4.49148,0.16233 -7.60962,0.93445 -11.04868,-2.50466 -7.45182,-6.33066 -3.28247,-23.56825 -3.07074,-33.44666 1.40495,-65.549928 1.63812,-69.91164 3.98193,-74.488276 2.93025,-5.721751 12.25062,-7.305654 16.71562,-2.840656 4.51026,4.510255 6.12734,8.859032 6.12734,16.478041 0,8.804282 1.00951,18.60154 1.88091,18.254222 1.34386,-0.535629 10.3457,-11.977664 13.34522,-16.74784 2.99952,-4.770176 7.41777,-15.298458 15.33433,-18.174991 7.91656,-2.876532 15.08629,-0.02657 15.99969,8.128739 0.9134,8.155309 -4.60113,15.604748 -10.61065,24.338181 -3.14864,4.532461 -15.41013,18.877668 -15.86816,21.196017 -0.57628,3.603881 -0.38712,3.914984 8.6491,14.224983 5.08106,5.79728 9.66015,11.24452 10.17578,12.10496 0.51562,0.86045 3.57422,5.07552 6.79687,9.36683 6.26175,8.33819 7.8524,12.67673 5.26959,18.84198 -2.58281,6.16526 -10.0158,7.08009 -15.81646,4.37974 l 3e-5,0 c -2.97015,-1.38268 -7.75745,-6.61296 -19.41058,-21.2067 -8.00586,-10.0261 -15.39493,-17.53823 -16.3306,-16.60258 -0.34332,0.34333 -0.82277,6.85608 -1.06545,14.47278 -0.37224,11.68313 -0.7342,14.33268 -2.31486,16.94474"
     inkscape:connector-curvature="0"
     sodipodi:nodetypes="ssssssssssscssssssssssssssssssssssscssssssssssscccsssssscccsscsssssscsssscccsccccssssssccccsssszzzccscszccscsc" />
</svg>
