<?xml version="1.0" encoding="UTF-8" standalone="no"?>
<!-- Created with Inkscape (http://www.inkscape.org/) -->

<svg
   xmlns:dc="http://purl.org/dc/elements/1.1/"
   xmlns:cc="http://creativecommons.org/ns#"
   xmlns:rdf="http://www.w3.org/1999/02/22-rdf-syntax-ns#"
   xmlns:svg="http://www.w3.org/2000/svg"
   xmlns="http://www.w3.org/2000/svg"
   xmlns:xlink="http://www.w3.org/1999/xlink"
   xmlns:sodipodi="http://sodipodi.sourceforge.net/DTD/sodipodi-0.dtd"
   xmlns:inkscape="http://www.inkscape.org/namespaces/inkscape"
   id="svg4164"
   version="1.1"
   inkscape:version="0.91 r13725"
   width="174.375"
   height="174.375"
   viewBox="0 0 174.375 174.375"
   sodipodi:docname="print1.svg">
  <metadata
     id="metadata4170">
    <rdf:RDF>
      <cc:Work
         rdf:about="">
        <dc:format>image/svg+xml</dc:format>
        <dc:type
           rdf:resource="http://purl.org/dc/dcmitype/StillImage" />
        <dc:title />
      </cc:Work>
    </rdf:RDF>
  </metadata>
  <defs
     id="defs4168">
    <linearGradient
       id="linearGradient4199"
       inkscape:collect="always">
      <stop
         id="stop4201"
         offset="0"
         style="stop-color:#585f80;stop-opacity:1" />
      <stop
         style="stop-color:#00020a;stop-opacity:0.89610392"
         offset="0.16517103"
         id="stop4203" />
      <stop
         id="stop4205"
         offset="0.64521462"
         style="stop-color:#8d8d8d;stop-opacity:0.86274511" />
      <stop
         style="stop-color:#0b1126;stop-opacity:1"
         offset="0.65398532"
         id="stop4207" />
      <stop
         id="stop4209"
         offset="1"
         style="stop-color:#3f4a7b;stop-opacity:0.55844158" />
    </linearGradient>
    <linearGradient
       inkscape:collect="always"
       id="linearGradient4728">
      <stop
         style="stop-color:#585f80;stop-opacity:1"
         offset="0"
         id="stop4730" />
      <stop
         id="stop4736"
         offset="0.16517103"
         style="stop-color:#00020a;stop-opacity:0.89610392" />
      <stop
         style="stop-color:#8d8d8d;stop-opacity:0.86274511"
         offset="0.64521462"
         id="stop4738" />
      <stop
         id="stop4740"
         offset="0.65398532"
         style="stop-color:#1b223d;stop-opacity:0.95930231" />
      <stop
         style="stop-color:#3f4a7b;stop-opacity:0.55844158"
         offset="1"
         id="stop4732" />
    </linearGradient>
    <linearGradient
       inkscape:collect="always"
       xlink:href="#linearGradient4199"
       id="linearGradient4734"
       x1="85.560867"
       y1="157.78336"
       x2="86.211525"
       y2="2.9279399"
       gradientUnits="userSpaceOnUse" />
    <linearGradient
       inkscape:collect="always"
       xlink:href="#linearGradient4728"
       id="linearGradient4756"
       x1="78.641357"
       y1="157.92555"
       x2="79.342896"
       y2="3.338295"
       gradientUnits="userSpaceOnUse" />
  </defs>
  <sodipodi:namedview
     pagecolor="#ffffff"
     bordercolor="#666666"
     borderopacity="1"
     objecttolerance="10"
     gridtolerance="10"
     guidetolerance="10"
     inkscape:pageopacity="0"
     inkscape:pageshadow="2"
     inkscape:window-width="1366"
     inkscape:window-height="705"
     id="namedview4166"
     showgrid="false"
     inkscape:zoom="1.5369176"
     inkscape:cx="28.976045"
     inkscape:cy="105.72418"
     inkscape:window-x="-8"
     inkscape:window-y="-8"
     inkscape:window-maximized="1"
     inkscape:current-layer="svg4164" />
  <path
     style="opacity:1;fill:url(#linearGradient4734);fill-opacity:1;stroke:url(#linearGradient4756);stroke-width:0.2;stroke-linecap:round;stroke-linejoin:bevel;stroke-miterlimit:4;stroke-dasharray:none"
     d="m 84.552019,164.31054 c -0.0099,-0.68702 -7.443406,-0.8672 -23.986393,-0.58141 -25.143265,0.43437 -27.580822,0.10513 -24.600475,-3.32276 0.795125,-0.91453 1.713915,-2.79343 2.041754,-4.17535 0.327841,-1.38191 1.228252,-3.14475 2.000915,-3.9174 0.772664,-0.77267 1.404843,-2.01615 1.404843,-2.76328 0,-0.74713 0.656184,-1.903 1.458188,-2.56861 0.802004,-0.6656 3.210842,-4.19773 5.352975,-7.84916 2.142132,-3.65144 5.704697,-8.74111 7.916811,-11.31037 2.212115,-2.56928 4.022026,-5.37179 4.022026,-6.22784 0,-0.85603 0.738281,-1.899 1.640625,-2.31772 0.902344,-0.41872 11.554687,-0.89396 23.671875,-1.05608 l 22.031247,-0.29479 3.51563,5.11835 c 1.93359,2.8151 3.51562,5.56551 3.51562,6.11204 0,0.54652 0.34419,0.99368 0.76487,0.99368 0.42067,0 1.75091,1.79297 2.95607,3.98437 1.20516,2.19141 4.75177,8.40292 7.88134,13.80337 6.28779,10.85029 6.95216,12.81747 4.55479,13.48658 -3.50188,0.97736 -19.13163,1.78933 -31.552936,1.63916 -9.725882,-0.11758 -13.246215,0.14809 -13.813767,1.04249 -0.418909,0.66016 -0.768112,0.75229 -0.776008,0.20473 z M 95.07555,153.19582 c 14.50398,-0.11067 16.38923,-0.45257 24.5916,-0.29128 -5.78095,-8.36615 -3.89644,-9.81429 -11.5407,-15.82868 -8.10119,-3.16019 -24.210985,-4.62578 -40.042399,-0.6944 -8.392549,2.30759 -9.471357,1.76844 -12.23258,6.23444 -2.957685,4.78377 -8.618977,11.4251 -8.618977,11.4251 23.221825,-1.13486 33.339077,-0.73451 47.843056,-0.84518 z M 54.191395,56.797602 C 53.940086,56.390976 53.481932,52.468726 53.173274,45.269883 52.517348,29.971648 52.71932,21.627721 58.063372,22.896718 c 4.130564,0.980844 4.364909,0.349418 7.611632,-0.27416 2.775306,-0.533035 2.75914,-1.885395 2.339204,-7.030435 -0.06917,-0.847444 -0.904881,-1.12318 -2.48734,-0.820673 -1.310745,0.250565 -2.168801,0.669943 -1.906792,0.931953 0.891045,0.891045 -3.735603,6.690038 -5.161696,6.142795 -2.214485,-0.849777 -0.707602,-3.821849 5.506414,-8.547667 l 5.439548,-4.1368278 16.830974,-0.608411 c 9.257034,-0.334626 19.995034,-0.854179 23.862224,-1.154565 5.97668,-0.464241 7.46707,-0.27022 9.93705,1.293612 3.57501,2.2634668 4.74009,11.1192588 4.27978,27.7074698 -0.44438,16.013857 -0.94242,16.956546 -2.68932,17.626894 -0.78689,0.301958 -4.02279,-0.350951 -7.1909,-1.450911 -5.07279,-1.76123 -19.252993,-1.34181 -20.521487,-0.644722 -0.257813,0.141679 -6.240475,-0.896673 -12.170162,-0.552261 -5.929688,0.344409 -13.88697,1.768144 -16.722907,2.601535 m 23.020691,2.934247 c 6.502127,-0.01545 22.733375,0.289313 28.588905,2.151688 6.22965,1.981361 7.33197,4.331385 7.03609,13.676453 -0.24682,7.795534 -1.28931,7.618272 -9.86689,8.328769 -8.17107,-0.408009 -21.221615,0.516023 -35.354477,0.432213 -13.40625,-0.0795 -24.672303,-0.240806 -25.316834,-0.639619 -0.785171,-0.485836 -0.707057,-3.029061 -0.697438,-8.174119 -0.801692,-6.237916 2.872912,-11.295698 8.394705,-13.003369 m 58.897554,25.05809 7.47201,0.447276 0.18339,-9.161691 c 0.10087,-5.03893 0.20634,-9.432961 0.23438,-9.764514 0.13036,-1.541491 3.12107,-1.462913 7.48898,0.196764 9.61298,3.652642 14.34661,8.294692 15.72477,15.420511 0.60158,3.110486 0.65544,12.406532 0.29473,50.868127 -0.0239,2.548 -2.93091,3.87883 -8.97191,4.10733 -2.2952,0.0868 -4.17283,0.40585 -4.17251,0.70896 3.2e-4,0.30312 -2.21452,0.41224 -4.92187,0.24248 -6.31005,-0.39566 -7.26621,-1.66787 -7.26621,-9.66814 0,-3.48545 -0.44786,-8.42547 -0.99525,-10.97785 -0.97373,-4.54038 -1.08011,-4.65154 -4.92187,-5.1429 -2.15965,-0.27623 -17.8485,-0.27749 -34.864127,-0.003 -17.015625,0.27467 -32.730469,0.44194 -34.921875,0.3717 l -3.984375,-0.12769 -0.09934,9.64692 c -0.05464,5.30581 -0.04045,10.70162 0.03153,11.99068 0.09261,1.65855 -0.550033,2.65418 -2.198182,3.4056 -1.280975,0.58403 -2.565244,0.82566 -2.853931,0.53697 l -4e-6,1.8e-4 c -0.288688,-0.28868 -4.755796,-0.8183 -9.926909,-1.17691 -5.171112,-0.35861 -9.70181,-0.95153 -10.068218,-1.3176 -0.746245,-0.74555 -1.02226,-7.5926 -1.003174,-24.88556 0.02629,-23.820815 0.42211,-28.689228 2.621923,-32.248601 5.464794,-8.842222 18.396123,-16.210837 21.352772,-12.167378 0.690445,0.944238 1.256132,4.578663 1.32322,8.501414 0.06445,3.768636 0.222657,7.273941 0.351563,7.789566 0.128906,0.515625 0.287109,1.548383 0.351562,2.295018 0.09945,1.152093 3.131839,1.298555 20.039063,0.967876 10.957031,-0.214303 24.984375,-0.439572 31.171875,-0.500599 9.090907,-0.08966 12.174187,0.02627 16.082667,-0.115066 M 62.829001,27.126303 c -7.982029,-0.579919 -5.205367,5.371537 -5.536902,9.404792 -0.111091,1.35146 -0.07944,13.047715 0.618297,14.17667 0.314347,0.508623 1.473146,-0.667852 2.575109,-1.023904 1.101964,-0.356051 4.201492,-0.09213 10.13118,-1.100465 15.492635,-2.634508 26.696926,-3.277093 46.183245,0.706961 l 2.50097,0.511333 -0.38726,-13.072396 -0.84735,-23.654262 -12.65625,0.115317 c -16.937654,0.154329 -18.749999,0.272998 -18.749999,1.22773 0,0.44946 -1.898438,0.245855 -4.21875,-0.452457 -2.407259,-0.724478 -4.21875,-0.886357 -4.21875,-0.376998 0,0.490962 -1.222,0.892658 -2.715555,0.892658 l -2.715556,0 -0.184232,0.864065 c -0.338331,2.583621 0.159257,7.133861 -2.460666,9.237711 m 23.161931,5.741812 c 16.124237,-0.639165 20.205007,-0.261734 20.205007,1.868763 0,1.749465 -2.99148,2.407316 -11.01562,2.422428 -3.75062,0.007 -6.796876,0.419789 -6.796876,0.920879 0,0.499442 -0.637597,0.663407 -1.416882,0.364368 -1.037881,-0.398272 -1.2525,-0.115337 -0.802346,1.057744 0.508342,1.324719 1.684691,1.557908 6.807504,1.349457 3.40613,-0.138597 8.28728,-0.179466 10.84699,-0.09082 4.38969,0.152022 4.56303,0.252164 3.05199,1.763208 -1.83616,1.83616 -7.51924,2.249663 -31.038663,2.258381 -15.033569,0.0055 -19.49376,-0.897813 -14.258974,-2.888075 1.406594,-0.534787 3.690135,-1.029789 5.074537,-1.100009 l 2.517094,-0.127672 -2.34375,-0.457897 c -2.187625,-0.427395 -2.21885,-0.508175 -0.46875,-1.212687 1.550837,-0.624297 1.361492,-0.766182 -1.0952,-0.820683 -4.240545,-0.09407 -3.821428,0.193769 -3.821428,-1.840051 0,-1.490169 -1.227538,-2.068958 2.501166,-1.789054"
     id="path4174"
     inkscape:connector-curvature="0"
     sodipodi:nodetypes="cssssssssssscssssssssczcccsczsssssssscssssssssccsscssccccssssssssssscscsssccssssssssssccsssssscccssssscccsscssssssssscssscc" />
</svg>
