<?xml version="1.0" encoding="UTF-8" standalone="no"?>
<!-- Created with Inkscape (http://www.inkscape.org/) -->

<svg
   xmlns:dc="http://purl.org/dc/elements/1.1/"
   xmlns:cc="http://creativecommons.org/ns#"
   xmlns:rdf="http://www.w3.org/1999/02/22-rdf-syntax-ns#"
   xmlns:svg="http://www.w3.org/2000/svg"
   xmlns="http://www.w3.org/2000/svg"
   xmlns:xlink="http://www.w3.org/1999/xlink"
   xmlns:sodipodi="http://sodipodi.sourceforge.net/DTD/sodipodi-0.dtd"
   xmlns:inkscape="http://www.inkscape.org/namespaces/inkscape"
   id="svg4164"
   version="1.1"
   inkscape:version="0.91 r13725"
   width="174.375"
   height="174.375"
   viewBox="0 0 174.375 174.375"
   sodipodi:docname="print.svg">
  <metadata
     id="metadata4170">
    <rdf:RDF>
      <cc:Work
         rdf:about="">
        <dc:format>image/svg+xml</dc:format>
        <dc:type
           rdf:resource="http://purl.org/dc/dcmitype/StillImage" />
        <dc:title></dc:title>
      </cc:Work>
    </rdf:RDF>
  </metadata>
  <defs
     id="defs4168">
    <linearGradient
       inkscape:collect="always"
       id="linearGradient4728">
      <stop
         style="stop-color:#585f80;stop-opacity:1"
         offset="0"
         id="stop4730" />
      <stop
         id="stop4736"
         offset="0.16517103"
         style="stop-color:#00020a;stop-opacity:0.89610392" />
      <stop
         style="stop-color:#8d8d8d;stop-opacity:0.86274511"
         offset="0.64521462"
         id="stop4738" />
      <stop
         id="stop4740"
         offset="0.65398532"
         style="stop-color:#1b223d;stop-opacity:0.8116883" />
      <stop
         style="stop-color:#3f4a7b;stop-opacity:0.55844158"
         offset="1"
         id="stop4732" />
    </linearGradient>
    <linearGradient
       inkscape:collect="always"
       xlink:href="#linearGradient4728"
       id="linearGradient4734"
       x1="85.560867"
       y1="157.78336"
       x2="86.211525"
       y2="2.9279399"
       gradientUnits="userSpaceOnUse" />
    <linearGradient
       inkscape:collect="always"
       xlink:href="#linearGradient4728"
       id="linearGradient4756"
       x1="78.641357"
       y1="157.92555"
       x2="79.342896"
       y2="3.338295"
       gradientUnits="userSpaceOnUse" />
  </defs>
  <sodipodi:namedview
     pagecolor="#ffffff"
     bordercolor="#666666"
     borderopacity="1"
     objecttolerance="10"
     gridtolerance="10"
     guidetolerance="10"
     inkscape:pageopacity="0"
     inkscape:pageshadow="2"
     inkscape:window-width="1366"
     inkscape:window-height="705"
     id="namedview4166"
     showgrid="false"
     inkscape:zoom="4.3470593"
     inkscape:cx="90.029007"
     inkscape:cy="79.79279"
     inkscape:window-x="-8"
     inkscape:window-y="-8"
     inkscape:window-maximized="1"
     inkscape:current-layer="svg4164" />
  <path
     style="fill:url(#linearGradient4734);fill-opacity:1;stroke:url(#linearGradient4756);stroke-width:0.2;stroke-miterlimit:4;stroke-dasharray:none;opacity:1;stroke-linejoin:bevel;stroke-linecap:round"
     d="m 84.552019,164.31054 c -0.0099,-0.68702 -7.443406,-0.8672 -23.986393,-0.58141 -25.143265,0.43437 -27.580822,0.10513 -24.600475,-3.32276 0.795125,-0.91453 1.713915,-2.79343 2.041754,-4.17535 0.327841,-1.38191 1.228252,-3.14475 2.000915,-3.9174 0.772664,-0.77267 1.404843,-2.01615 1.404843,-2.76328 0,-0.74713 0.656184,-1.903 1.458188,-2.56861 0.802004,-0.6656 3.210842,-4.19773 5.352975,-7.84916 2.142132,-3.65144 5.704697,-8.74111 7.916811,-11.31037 2.212115,-2.56928 4.022026,-5.37179 4.022026,-6.22784 0,-0.85603 0.738281,-1.899 1.640625,-2.31772 0.902344,-0.41872 11.554687,-0.89396 23.671875,-1.05608 l 22.031247,-0.29479 3.51563,5.11835 c 1.93359,2.8151 3.51562,5.56551 3.51562,6.11204 0,0.54652 0.34419,0.99368 0.76487,0.99368 0.42067,0 1.75091,1.79297 2.95607,3.98437 1.20516,2.19141 4.75177,8.40292 7.88134,13.80337 6.28779,10.85029 6.95216,12.81747 4.55479,13.48658 -3.50188,0.97736 -19.13163,1.78933 -31.552936,1.63916 -9.725882,-0.11758 -13.246215,0.14809 -13.813767,1.04249 -0.418909,0.66016 -0.768112,0.75229 -0.776008,0.20473 z m 22.485641,-5.13366 c 0.25781,-0.0884 5.27528,-0.0865 11.14993,0.004 l 10.68118,0.1648 -2.03983,-3.11359 c -2.7269,-4.16231 -11.17936,-18.42777 -15.71196,-26.51753 -4.53788,-8.09914 -4.16075,-7.9983 -28.33159,-7.57569 -16.498191,0.28847 -18.325369,0.48435 -19.983261,2.14224 -1.003606,1.00361 -1.926703,2.51947 -2.051328,3.36859 -0.124624,0.84911 -1.468093,2.97468 -2.985489,4.72348 -1.517394,1.7488 -3.602649,4.69123 -4.633899,6.53874 -1.03125,1.8475 -4.134183,7.01311 -6.895406,11.47911 -2.957685,4.78377 -4.627616,8.36278 -4.064405,8.71086 0.797726,0.49302 63.435348,0.56534 64.866058,0.0749 z M 54.191395,56.797602 C 53.940086,56.390976 53.481932,52.468726 53.173274,45.269883 52.517348,29.971648 52.71932,21.627721 58.063372,22.896718 c 4.130564,0.980844 4.364909,0.349418 7.611632,-0.27416 2.775306,-0.533035 2.75914,-1.885395 2.339204,-7.030435 -0.06917,-0.847444 -0.904881,-1.12318 -2.48734,-0.820673 -1.310745,0.250565 -2.168801,0.669943 -1.906792,0.931953 0.891045,0.891045 -3.735603,6.690038 -5.161696,6.142795 -2.214485,-0.849777 -0.707602,-3.821849 5.506414,-8.547667 l 5.439548,-4.1368278 16.830974,-0.608411 c 9.257034,-0.334626 19.995034,-0.854179 23.862224,-1.154565 5.97668,-0.464241 7.46707,-0.27022 9.93705,1.293612 3.57501,2.2634668 4.74009,11.1192588 4.27978,27.7074698 -0.44438,16.013857 -0.94242,16.956546 -2.68932,17.626894 -0.78689,0.301958 -4.02279,-0.350951 -7.1909,-1.450911 -5.07279,-1.76123 -19.252993,-1.34181 -20.521487,-0.644722 -0.257813,0.141679 -6.240475,-0.896673 -12.170162,-0.552261 -5.929688,0.344409 -13.88697,1.768144 -16.722907,2.601535 m -1.842299,5.189064 c 9.282323,-1.828511 20.267595,-2.243899 24.86299,-2.254817 6.502127,-0.01545 22.733375,0.289313 28.588905,2.151688 6.22965,1.981361 7.03609,4.326702 7.03609,13.676453 0,7.548711 -0.92738,7.256342 -9.86689,8.328769 -8.17107,-0.408009 -21.221615,0.516023 -35.354477,0.432213 -13.40625,-0.0795 -24.672303,-0.240806 -25.316834,-0.639619 -0.785171,-0.485836 -0.707057,-3.029061 -0.697438,-8.174119 0.02287,-12.237642 2.917875,-14.177361 3.583305,-2.400902 0.254069,4.496402 0.786636,6.742854 1.679784,7.085587 2.496997,0.958188 11.136303,0.878789 12.480641,-0.1147 1.056055,-0.780445 1.176249,-0.707768 0.549333,0.332161 -0.626005,1.038417 -0.407849,1.172813 0.991914,0.611074 2.014535,-0.808455 31.504092,-1.302202 32.811162,-0.49439 0.46146,0.285194 1.327,0.64546 1.327,0.204158 0,-0.441301 3.05859,-0.782605 6.79688,-0.758454 l 6.79687,0.04391 0.28976,-5.106145 c 0.47345,-8.343034 0.007,-9.131807 -6.15038,-10.420366 -10.49366,-2.195701 -39.693598,-1.611811 -51.479181,1.029393 -2.303627,0.516254 -4.582845,0.694871 -5.064928,0.396927 -1.455996,-0.899854 -0.497235,-2.264352 1.252099,-2.7215 m 61.428,24.367968 7.47201,0.447276 0.18339,-9.161691 c 0.10087,-5.03893 0.20634,-9.432961 0.23438,-9.764514 0.13036,-1.541491 3.12107,-1.462913 7.48898,0.196764 9.61298,3.652642 14.34661,8.294692 15.72477,15.420511 0.60158,3.110486 0.65544,12.406532 0.29473,50.868127 -0.0239,2.548 -2.93091,3.87883 -8.97191,4.10733 -2.2952,0.0868 -4.17283,0.40585 -4.17251,0.70896 3.2e-4,0.30312 -2.21452,0.41224 -4.92187,0.24248 -6.31005,-0.39566 -7.26621,-1.66787 -7.26621,-9.66814 0,-3.48545 -0.44786,-8.42547 -0.99525,-10.97785 -0.97373,-4.54038 -1.08011,-4.65154 -4.92187,-5.1429 -2.15965,-0.27623 -17.8485,-0.27749 -34.864127,-0.003 -17.015625,0.27467 -32.730469,0.44194 -34.921875,0.3717 l -3.984375,-0.12769 -0.09934,9.64692 c -0.05464,5.30581 -0.04045,10.70162 0.03153,11.99068 0.09261,1.65855 -0.550033,2.65418 -2.198182,3.4056 -1.280975,0.58403 -2.565244,0.82566 -2.853931,0.53697 l -4e-6,1.8e-4 c -0.288688,-0.28868 -4.755796,-0.8183 -9.926909,-1.17691 -5.171112,-0.35861 -9.70181,-0.95153 -10.068218,-1.3176 -0.746245,-0.74555 -1.02226,-7.5926 -1.003174,-24.88556 0.02629,-23.820815 0.42211,-28.689228 2.621923,-32.248601 5.464794,-8.842222 18.396123,-16.210837 21.352772,-12.167378 0.690445,0.944238 1.256132,4.578663 1.32322,8.501414 0.06445,3.768636 0.222657,7.273941 0.351563,7.789566 0.128906,0.515625 0.287109,1.548383 0.351562,2.295018 0.09945,1.152093 3.131839,1.298555 20.039063,0.967876 10.957031,-0.214303 24.984375,-0.439572 31.171875,-0.500599 9.090907,-0.08966 12.174187,0.02627 16.082667,-0.115066 m 34.50058,31.38854 c 0.11951,-9.69624 -0.26899,-22.335638 -0.86333,-28.087558 -0.9316,-9.015943 -1.43374,-10.921018 -3.6415,-13.815536 -2.97583,-3.901509 -4.50857,-4.848896 -9.2988,-5.747548 -3.45824,-0.648768 -3.49996,-0.620145 -3.63725,2.494913 -0.0764,1.733165 -0.0696,5.893398 0.0151,9.24496 0.12999,5.146183 -0.13318,6.272968 -1.69245,7.246293 -1.37592,0.858886 -12.48242,1.201891 -43.590685,1.346225 -22.959426,0.106524 -42.000156,-0.0621 -42.312779,-0.374725 -0.312623,-0.312623 -0.637174,-4.7153 -0.721225,-9.783725 -0.142961,-8.620905 -0.281131,-9.233626 -2.142089,-9.499158 -2.622324,-0.374168 -10.086822,4.18976 -11.848969,7.244672 -0.765903,1.327792 -1.648309,5.789168 -1.960903,9.914168 -0.866387,11.432878 -0.846637,44.668789 0.02706,45.524659 1.106797,1.08423 14.269667,1.35277 15.310087,0.31234 0.47932,-0.47932 0.990294,-6.3481 1.135498,-13.04174 l 0.264002,-12.17026 40.40379,0 c 45.151073,0 42.374183,-0.41979 45.617633,6.89624 1.4268,3.21833 1.74218,5.70174 1.48827,11.71875 l -0.3222,7.63501 7.63934,0 c 4.20164,0 7.96336,0.31641 8.35938,0.70312 0.39602,0.38672 0.90784,0.51532 1.13738,0.28577 0.22955,-0.22954 0.51514,-8.35064 0.63464,-18.04687 z M 62.829001,27.126303 c -7.982029,-0.579919 -5.205367,5.371537 -5.536902,9.404792 -0.111091,1.35146 -0.07944,13.047715 0.618297,14.17667 0.314347,0.508623 1.473146,-0.667852 2.575109,-1.023904 1.101964,-0.356051 4.201492,-0.09213 10.13118,-1.100465 15.492635,-2.634508 26.696926,-3.277093 46.183245,0.706961 l 2.50097,0.511333 -0.38726,-13.072396 -0.84735,-23.654262 -12.65625,0.115317 c -16.937654,0.154329 -18.749999,0.272998 -18.749999,1.22773 0,0.44946 -1.898438,0.245855 -4.21875,-0.452457 -2.407259,-0.724478 -4.21875,-0.886357 -4.21875,-0.376998 0,0.490962 -1.222,0.892658 -2.715555,0.892658 l -2.715556,0 -0.184232,0.864065 c -0.338331,2.583621 0.159257,7.133861 -2.460666,9.237711 m 23.161931,5.741812 c 16.124237,-0.639165 20.205007,-0.261734 20.205007,1.868763 0,1.749465 -2.99148,2.407316 -11.01562,2.422428 -3.75062,0.007 -6.796876,0.419789 -6.796876,0.920879 0,0.499442 -0.637597,0.663407 -1.416882,0.364368 -1.037881,-0.398272 -1.2525,-0.115337 -0.802346,1.057744 0.508342,1.324719 1.684691,1.557908 6.807504,1.349457 3.40613,-0.138597 8.28728,-0.179466 10.84699,-0.09082 4.38969,0.152022 4.56303,0.252164 3.05199,1.763208 -1.83616,1.83616 -7.51924,2.249663 -31.038663,2.258381 -15.033569,0.0055 -19.49376,-0.897813 -14.258974,-2.888075 1.406594,-0.534787 3.690135,-1.029789 5.074537,-1.100009 l 2.517094,-0.127672 -2.34375,-0.457897 c -2.187625,-0.427395 -2.21885,-0.508175 -0.46875,-1.212687 1.550837,-0.624297 1.361492,-0.766182 -1.0952,-0.820683 -4.240545,-0.09407 -3.821428,0.193769 -3.821428,-1.840051 0,-1.490169 -1.227538,-2.068958 2.501166,-1.789054"
     id="path4174"
     inkscape:connector-curvature="0"
     sodipodi:nodetypes="cssssssssssscssssssssccccssssssssscccsssssssscssssssssccssscssssssssssscscsscccssssssssssscscsssccssssssssssccsssscsssssssssscssscsscccsssssscccssssscccsscssssssssscsssc" />
</svg>
