<?xml version="1.0" encoding="UTF-8" standalone="no"?>
<!-- Created with Inkscape (http://www.inkscape.org/) -->

<svg
   xmlns:dc="http://purl.org/dc/elements/1.1/"
   xmlns:cc="http://creativecommons.org/ns#"
   xmlns:rdf="http://www.w3.org/1999/02/22-rdf-syntax-ns#"
   xmlns:svg="http://www.w3.org/2000/svg"
   xmlns="http://www.w3.org/2000/svg"
   xmlns:sodipodi="http://sodipodi.sourceforge.net/DTD/sodipodi-0.dtd"
   xmlns:inkscape="http://www.inkscape.org/namespaces/inkscape"
   id="svg4194"
   version="1.1"
   inkscape:version="0.91 r13725"
   width="174.375"
   height="174.375"
   viewBox="0 0 174.375 174.375"
   sodipodi:docname="rotate1.svg">
  <metadata
     id="metadata4200">
    <rdf:RDF>
      <cc:Work
         rdf:about="">
        <dc:format>image/svg+xml</dc:format>
        <dc:type
           rdf:resource="http://purl.org/dc/dcmitype/StillImage" />
        <dc:title />
      </cc:Work>
    </rdf:RDF>
  </metadata>
  <defs
     id="defs4198" />
  <sodipodi:namedview
     pagecolor="#ffffff"
     bordercolor="#666666"
     borderopacity="1"
     objecttolerance="10"
     gridtolerance="10"
     guidetolerance="10"
     inkscape:pageopacity="0"
     inkscape:pageshadow="2"
     inkscape:window-width="1366"
     inkscape:window-height="705"
     id="namedview4196"
     showgrid="false"
     inkscape:zoom="3.0738351"
     inkscape:cx="70.069241"
     inkscape:cy="91.500818"
     inkscape:window-x="-8"
     inkscape:window-y="-8"
     inkscape:window-maximized="1"
     inkscape:current-layer="svg4194" />
  <g
     id="g4204">
    <path
       style="fill:#494660;stroke:#494660;stroke-width:3.79999995;stroke-miterlimit:4;stroke-dasharray:none;stroke-opacity:1"
       d="M 111.5625,152.19941 C 102.52137,148.49098 99.76433,138.04647 97.512952,129.48098 95.504329,117.91795 93.524566,105.6592 97.192667,94.229677 100.8809,86.08113 112.34672,87.112693 116.96341,93.711814 c 1.69797,3.079098 6.47868,11.257316 6.96009,2.83219 2.6534,-12.391046 -1.36129,-25.83157 -10.42441,-34.70472 C 107.27441,55.185505 99.431427,49.029769 89.877831,48.880911 81.447917,48.032794 72.566082,49.269927 65.786309,54.724468 58.163441,60.474656 51.624517,68.551344 49.205415,77.883535 46.667597,92.1629 48.94535,108.30126 59.77549,118.83785 c 6.195901,7.56404 16.517322,10.4652 24.367485,14.24526 -1.123055,7.67372 -13.384894,4.66955 -19.254453,4.62763 C 52.82288,135.58495 41.558914,129.26391 32.752407,120.89059 26.248462,112.57442 24.003096,101.92519 21.065053,92.032449 19.434355,77.363773 24.479628,62.795131 31.562999,50.138961 33.682392,45.427891 36.69041,41.397554 41.205946,38.761735 53.34847,29.447659 67.783804,21.501001 83.558697,22.187201 c 21.402733,-0.501941 43.879053,8.64101 55.722253,27.119331 12.30412,17.772437 17.18336,41.823703 8.91968,62.241708 -4.78368,5.64688 -2.53514,14.45439 5.80538,13.09645 8.51467,2.36364 9.3836,15.20274 2.23955,19.72996 -8.08975,6.8303 -19.40423,6.26329 -29.30613,7.65926 -5.10573,0.46715 -10.27183,0.85701 -15.37693,0.1655 z"
       id="path4206"
       inkscape:connector-curvature="0"
       sodipodi:nodetypes="ccccccccccccccccccccccc" />
  </g>
</svg>
