<?xml version="1.0" encoding="UTF-8" standalone="no"?>
<!-- Created with Inkscape (http://www.inkscape.org/) -->

<svg
   xmlns:dc="http://purl.org/dc/elements/1.1/"
   xmlns:cc="http://creativecommons.org/ns#"
   xmlns:rdf="http://www.w3.org/1999/02/22-rdf-syntax-ns#"
   xmlns:svg="http://www.w3.org/2000/svg"
   xmlns="http://www.w3.org/2000/svg"
   xmlns:sodipodi="http://sodipodi.sourceforge.net/DTD/sodipodi-0.dtd"
   xmlns:inkscape="http://www.inkscape.org/namespaces/inkscape"
   id="svg4194"
   version="1.1"
   inkscape:version="0.91 r13725"
   width="174.375"
   height="174.375"
   viewBox="0 0 174.375 174.375"
   sodipodi:docname="rotate.svg">
  <metadata
     id="metadata4200">
    <rdf:RDF>
      <cc:Work
         rdf:about="">
        <dc:format>image/svg+xml</dc:format>
        <dc:type
           rdf:resource="http://purl.org/dc/dcmitype/StillImage" />
        <dc:title></dc:title>
      </cc:Work>
    </rdf:RDF>
  </metadata>
  <defs
     id="defs4198" />
  <sodipodi:namedview
     pagecolor="#ffffff"
     bordercolor="#666666"
     borderopacity="1"
     objecttolerance="10"
     gridtolerance="10"
     guidetolerance="10"
     inkscape:pageopacity="0"
     inkscape:pageshadow="2"
     inkscape:window-width="1366"
     inkscape:window-height="705"
     id="namedview4196"
     showgrid="false"
     inkscape:zoom="3.0738351"
     inkscape:cx="70.069241"
     inkscape:cy="91.500818"
     inkscape:window-x="-8"
     inkscape:window-y="-8"
     inkscape:window-maximized="1"
     inkscape:current-layer="svg4194" />
  <g
     id="g4204">
    <path
       style="fill:#494660;stroke:#494660;stroke-opacity:1;stroke-width:3.8;stroke-miterlimit:4;stroke-dasharray:none"
       d="M 111.5625,152.19941 C 102.52137,148.49098 99.76433,138.04647 97.512952,129.48098 95.504329,117.91795 93.524566,105.6592 97.192667,94.229677 100.8809,86.08113 112.34672,87.112693 116.96341,93.711814 c 1.69797,3.079098 6.47868,11.257316 6.96009,2.83219 2.6534,-12.391046 -1.36129,-25.83157 -10.42441,-34.70472 C 107.27441,55.185505 99.431427,49.029769 89.877831,48.880911 81.447917,48.032794 72.566082,49.269927 65.786309,54.724468 58.163441,60.474656 51.624517,68.551344 49.205415,77.883535 46.667597,92.1629 48.94535,108.30126 59.77549,118.83785 c 6.195901,7.56404 16.517322,10.4652 24.367485,14.24526 -1.123055,7.67372 -13.384894,4.66955 -19.254453,4.62763 C 52.82288,135.58495 41.558914,129.26391 32.752407,120.89059 26.248462,112.57442 24.003096,101.92519 21.065053,92.032449 19.434355,77.363773 24.479628,62.795131 31.562999,50.138961 33.682392,45.427891 36.69041,41.397554 41.205946,38.761735 53.34847,29.447659 67.783804,21.501001 83.558697,22.187201 c 21.402733,-0.501941 43.879053,8.64101 55.722253,27.119331 12.30412,17.772437 17.18336,41.823703 8.91968,62.241708 -4.78368,5.64688 -2.53514,14.45439 5.80538,13.09645 8.51467,2.36364 9.3836,15.20274 2.23955,19.72996 -8.08975,6.8303 -19.40423,6.26329 -29.30613,7.65926 -5.10573,0.46715 -10.27183,0.85701 -15.37693,0.1655 z m 24.34185,-4.65205 c 8.01398,-0.63425 17.65919,-2.06863 21.9596,-9.80265 1.08446,-7.33621 -7.47017,-10.53738 -13.48801,-9.60226 -4.96496,2.77463 -11.89105,-1.03984 -6.83821,-6.47305 7.63268,-10.76318 10.32113,-24.457987 9.12235,-37.494549 -0.52131,-18.986006 -10.98274,-37.5427 -26.84713,-47.940125 -8.76986,-5.11182 -18.85359,-8.524414 -29.045206,-8.839585 -10.842296,1.313576 -22.795788,-1.414878 -32.631527,4.715058 -8.043142,5.458841 -14.567214,12.829995 -21.141368,19.886591 -7.64998,10.577781 -10.555234,23.893643 -9.483244,36.783861 0.01761,12.348239 3.421017,25.647299 13.585065,33.576919 7.524525,6.29515 17.068808,9.59121 26.598514,11.36351 C 65.944605,127.25238 56.557452,127.45539 53.694619,121.2989 47.259998,115.72797 41.721762,107.97754 42.149936,99.087095 41.294662,88.474935 41.677799,77.407286 45.345913,67.342384 50.718442,57.815472 58.610207,48.956185 68.878666,44.775007 83.2848,40.972662 99.839547,42.101796 111.76223,51.816845 c 11.20074,8.261778 17.80729,22.012551 17.39797,35.906383 0.37383,8.885681 -0.70328,18.761692 -6.49905,25.842392 -8.93255,3.41466 -3.3418,-10.24576 -7.70478,-14.461356 -2.70844,-8.259751 -14.85496,-6.834241 -15.224739,1.996236 -1.38455,11.16722 1.172809,22.52808 4.547379,33.1379 2.22342,5.2433 4.06267,12.21947 10.45752,13.5882 6.96382,1.94915 14.12071,-0.516 21.16782,-0.27924 z"
       id="path4206"
       inkscape:connector-curvature="0" />
  </g>
</svg>
