<?xml version="1.0" encoding="UTF-8" standalone="no"?>
<!-- Created with Inkscape (http://www.inkscape.org/) -->

<svg
   xmlns:dc="http://purl.org/dc/elements/1.1/"
   xmlns:cc="http://creativecommons.org/ns#"
   xmlns:rdf="http://www.w3.org/1999/02/22-rdf-syntax-ns#"
   xmlns:svg="http://www.w3.org/2000/svg"
   xmlns="http://www.w3.org/2000/svg"
   xmlns:sodipodi="http://sodipodi.sourceforge.net/DTD/sodipodi-0.dtd"
   xmlns:inkscape="http://www.inkscape.org/namespaces/inkscape"
   id="svg4222"
   version="1.1"
   inkscape:version="0.91 r13725"
   width="174.375"
   height="174.375"
   viewBox="0 0 174.375 174.375"
   sodipodi:docname="scale.svg">
  <metadata
     id="metadata4228">
    <rdf:RDF>
      <cc:Work
         rdf:about="">
        <dc:format>image/svg+xml</dc:format>
        <dc:type
           rdf:resource="http://purl.org/dc/dcmitype/StillImage" />
        <dc:title></dc:title>
      </cc:Work>
    </rdf:RDF>
  </metadata>
  <defs
     id="defs4226" />
  <sodipodi:namedview
     pagecolor="#ffffff"
     bordercolor="#666666"
     borderopacity="1"
     objecttolerance="10"
     gridtolerance="10"
     guidetolerance="10"
     inkscape:pageopacity="0"
     inkscape:pageshadow="2"
     inkscape:window-width="1366"
     inkscape:window-height="705"
     id="namedview4224"
     showgrid="false"
     inkscape:zoom="3.0738351"
     inkscape:cx="87.1875"
     inkscape:cy="88.265829"
     inkscape:window-x="-8"
     inkscape:window-y="-8"
     inkscape:window-maximized="1"
     inkscape:current-layer="svg4222" />
  <g
     id="g4232">
    <path
       style="fill:#504c59;stroke:#504c59;stroke-opacity:1;stroke-width:0.3;stroke-miterlimit:4;stroke-dasharray:none"
       d="m 23.48032,162.44026 c -8.787974,-2.49452 -12.095139,-16.19274 -2.764011,-20.34126 6.906376,-4.0972 11.36608,-10.712 16.947219,-16.21038 6.121051,-5.87019 12.569178,-11.54951 17.369978,-18.60919 -2.018634,-7.00788 8.492821,-11.85087 4.141575,-18.238427 -5.123753,-12.616062 -10.528907,-26.889355 -6.284509,-40.5019 4.589993,-10.454125 11.798192,-19.86187 20.415957,-27.319463 7.043135,-5.360406 14.797932,-10.712804 24.172473,-9.724917 14.715238,-0.840421 30.681198,1.91761 41.639198,12.550866 12.1449,9.914075 21.64782,23.911968 22.9414,39.854775 2.59336,18.991071 -5.70895,38.909346 -21.08189,50.357766 -7.68117,4.11077 -15.25885,9.22238 -24.24999,9.94265 -6.42284,1.61459 -14.42285,0.95749 -21.592971,-0.89006 -7.71332,1.43117 -12.658714,-8.92106 -19.855036,-5.83363 -4.786333,2.38735 -12.481751,2.97518 -14.936702,10.00295 -4.941746,6.90712 -10.968564,14.59804 -18.696957,19.58248 -7.714709,3.55714 -6.643233,16.36106 -16.691305,15.7673 z m 4.014207,-7.23593 c 4.359951,-8.12897 -13.21794,-6.53977 -4.689655,0.72182 1.486215,0.89195 3.46332,0.3795 4.689655,-0.72182 z m 19.306504,-21.85255 c 4.187699,-4.89779 12.879603,-11.64626 12.867164,-16.54455 -6.445085,1.52333 -13.104876,7.46977 -16.532673,11.26709 -3.427797,3.79731 -12.426661,10.98536 -7.547265,15.67632 4.032094,-3.10455 7.547805,-6.87378 11.212774,-10.39886 z m 69.555389,-14.28575 c 11.31672,-2.30529 21.82733,-8.66894 29.60449,-17.09527 6.12588,-8.343397 11.14366,-17.980559 11.27213,-28.555805 0.91937,-11.311541 -2.15645,-23.231677 -10.33058,-31.435962 -4.65265,-7.070845 -10.74287,-12.854127 -18.04241,-17.21243 -10.71841,-7.98989 -25.06104,-9.939003 -38.00435,-7.640929 -2.82842,2.016618 -3.240072,0.373697 -9.457309,4.457133 -6.217237,4.083435 -14.166152,12.953963 -17.558421,22.496672 -4.077301,6.801276 -7.437236,14.600691 -5.300792,22.650565 1.204067,9.529581 4.467043,18.622565 7.464361,27.668519 -1.292522,6.234447 -7.38889,17.083627 3.150293,18.543537 5.465555,-2.17034 11.777118,-6.64243 15.964356,0.26648 9.16796,5.83208 20.596392,7.68662 31.238232,5.85749 z m -11.44447,-8.51529 C 91.830176,108.36147 81.452175,98.688549 74.209305,88.093349 68.564557,80.408783 65.129374,70.982464 66.231477,61.378535 66.122552,50.572812 70.987966,39.95639 79.59249,33.330259 c 5.543514,-7.092237 14.271657,-9.043531 22.73385,-9.891955 12.69343,-1.584562 25.08433,5.039751 34.11162,13.50707 10.72585,9.398429 15.09982,24.178784 14.6598,38.084167 -0.41209,9.22237 -4.33563,18.733652 -11.89682,24.307802 -8.63759,8.845817 -21.80315,11.021117 -33.58527,11.507447 l -0.39015,-0.16303 z m 9.50268,-4.92862 c 12.05409,-0.28621 19.86572,-10.809964 26.98937,-19.157311 6.97636,-12.60133 3.67026,-28.567837 -3.62519,-40.306439 -4.38113,-7.284736 -12.34605,-11.54866 -19.8572,-15.02382 -7.41868,-3.274273 -15.8974,-3.105863 -23.703401,-1.576672 -6.294669,4.694844 -14.469213,6.700678 -17.848383,14.950886 -5.987662,7.046807 -6.525272,16.678317 -5.662591,25.465004 2.780924,13.835084 12.741068,25.367969 24.448654,32.712452 5.830671,3.60832 12.663091,4.06155 19.258741,2.9359 z M 101.25,98.192456 C 94.494877,95.952542 82.76996,88.659532 85.110026,81.698198 c 7.271632,0.593487 11.874957,9.336792 20.028624,8.167028 9.59677,0.840219 19.11049,-3.198112 25.79536,-9.980364 8.75603,-4.869459 2.28131,8.273239 -0.84777,10.945753 -7.81341,6.248312 -18.93093,9.737545 -28.83624,7.361841 z M 91.922242,45.772233 C 84.61933,37.888271 99.085626,33.05594 105.34068,32.687544 c 5.56285,-1.906182 15.19418,3.98287 5.41678,6.830864 -5.95285,1.756142 -11.597962,9.582436 -17.741745,7.255088 z"
       id="path4234"
       inkscape:connector-curvature="0"
       sodipodi:nodetypes="ccccccccccccccccccccccczccccccccczcccccccccccccccccccccccccccccccccccc" />
  </g>
</svg>
