<?xml version="1.0" encoding="UTF-8" standalone="no"?>
<!-- Created with Inkscape (http://www.inkscape.org/) -->

<svg
   xmlns:dc="http://purl.org/dc/elements/1.1/"
   xmlns:cc="http://creativecommons.org/ns#"
   xmlns:rdf="http://www.w3.org/1999/02/22-rdf-syntax-ns#"
   xmlns:svg="http://www.w3.org/2000/svg"
   xmlns="http://www.w3.org/2000/svg"
   xmlns:sodipodi="http://sodipodi.sourceforge.net/DTD/sodipodi-0.dtd"
   xmlns:inkscape="http://www.inkscape.org/namespaces/inkscape"
   id="svg3336"
   version="1.1"
   inkscape:version="0.91 r13725"
   width="174.375"
   height="173.4375"
   viewBox="0 0 174.375 173.4375"
   sodipodi:docname="undo.svg">
  <metadata
     id="metadata3342">
    <rdf:RDF>
      <cc:Work
         rdf:about="">
        <dc:format>image/svg+xml</dc:format>
        <dc:type
           rdf:resource="http://purl.org/dc/dcmitype/StillImage" />
        <dc:title></dc:title>
      </cc:Work>
    </rdf:RDF>
  </metadata>
  <defs
     id="defs3340" />
  <sodipodi:namedview
     pagecolor="#ffffff"
     bordercolor="#666666"
     borderopacity="1"
     objecttolerance="10"
     gridtolerance="10"
     guidetolerance="10"
     inkscape:pageopacity="0"
     inkscape:pageshadow="2"
     inkscape:window-width="1366"
     inkscape:window-height="705"
     id="namedview3338"
     showgrid="false"
     inkscape:zoom="3.0904505"
     inkscape:cx="38.974464"
     inkscape:cy="86.71875"
     inkscape:window-x="-8"
     inkscape:window-y="-8"
     inkscape:window-maximized="1"
     inkscape:current-layer="svg3336" />
  <path
     style="fill:#2c395c;fill-rule:evenodd;stroke:#2c395c;stroke-width:6.9;stroke-linecap:butt;stroke-linejoin:round;stroke-opacity:1;stroke-miterlimit:4;stroke-dasharray:none;fill-opacity:1"
     d="m 48.860192,87.689482 c 4.531783,-7.595627 6.363323,-19.015084 7.765858,-26.856926 1.402535,-7.841842 -3.645284,-14.235765 -8.413014,-16.178871 -4.76773,-1.943106 -10.937887,-1.863432 -14.884561,6.471548 -3.946674,8.33498 -7.91902,24.916722 -11.32521,45.947995 -3.40619,21.031272 8.428952,24.356792 13.913829,27.504082 5.484877,3.14729 29.495332,14.19411 37.211404,13.59025 9.559341,-0.74812 12.185408,-0.59876 15.855294,-6.47155 4.549333,-7.28014 -3.882929,-14.56098 -3.882929,-14.56098 -5.17836,-4.22374 -17.300623,-9.79763 -25.562617,-11.00163 13.094116,-9.293438 22.921297,-13.740435 31.387011,-17.149608 7.325123,-2.949853 21.759063,-7.80908 30.092703,-6.795126 11.26401,1.370493 17.79675,4.287598 24.2683,6.147971 3.62143,1.041052 12.82732,1.103931 13.59026,-6.795126 0.55008,-5.69522 -0.63474,-9.192277 -6.47155,-13.266674 -11.31143,-7.895963 -20.89674,-9.775907 -33.65205,-10.0309 -6.41668,-0.128277 -26.279203,3.456464 -34.622789,6.471548 -9.504911,3.434747 -27.829357,11.802134 -35.269939,22.973997 z"
     id="path3346"
     inkscape:connector-curvature="0"
     sodipodi:nodetypes="cszzzzssscsssssssc" />
  <g
     inkscape:groupmode="layer"
     id="layer1"
     inkscape:label="Layer 1" />
</svg>
